<svg xmlns="http://www.w3.org/2000/svg" xmlns:xlink="http://www.w3.org/1999/xlink" width="1080" zoomAndPan="magnify" viewBox="0 0 810 809.999993" height="1080" preserveAspectRatio="xMidYMid meet" version="1.0"><defs><clipPath id="f3b1bb2012"><path d="M 330 296 L 728.152344 296 L 728.152344 694.664062 L 330 694.664062 Z M 330 296 " clip-rule="nonzero"/></clipPath><clipPath id="e8da695933"><path d="M 81 100.921875 L 695 100.921875 L 695 583 L 81 583 Z M 81 100.921875 " clip-rule="nonzero"/></clipPath></defs><g clip-path="url(#f3b1bb2012)"><path fill="#02468f" d="M 529.164062 660.136719 C 438.324219 660.136719 364.6875 586.503906 364.6875 495.667969 C 364.6875 404.828125 438.324219 331.191406 529.164062 331.191406 C 619.992188 331.191406 693.632812 404.828125 693.632812 495.667969 C 693.632812 586.503906 619.992188 660.136719 529.164062 660.136719 Z M 529.164062 296.671875 C 419.253906 296.671875 330.167969 385.765625 330.167969 495.667969 C 330.167969 605.570312 419.253906 694.664062 529.164062 694.664062 C 639.066406 694.664062 728.160156 605.570312 728.160156 495.667969 C 728.160156 385.765625 639.066406 296.671875 529.164062 296.671875 " fill-opacity="1" fill-rule="nonzero"/></g><path fill="#02468f" d="M 576.976562 508.320312 C 560.375 512.367188 538.679688 509.238281 527.886719 503.589844 C 517.105469 509.238281 495.402344 512.367188 478.800781 508.320312 C 456.613281 502.925781 451.925781 486.761719 454.140625 477.667969 C 456.351562 468.570312 476.132812 465.582031 498.308594 470.984375 C 510.824219 474.023438 544.953125 474.023438 557.46875 470.984375 C 579.644531 465.582031 599.425781 468.570312 601.636719 477.667969 C 603.851562 486.761719 599.164062 502.925781 576.976562 508.320312 Z M 528 577.90625 C 505.171875 577.90625 486.660156 570.3125 486.660156 560.949219 C 486.660156 551.589844 505.171875 544.003906 528 544.003906 C 550.828125 544.003906 569.332031 551.589844 569.332031 560.949219 C 569.332031 570.3125 550.828125 577.90625 528 577.90625 Z M 530.519531 384.5 L 525.480469 384.5 C 481.042969 384.5 444.792969 422.230469 444.792969 466.667969 L 444.792969 549.324219 C 444.792969 580.992188 470.585938 608.527344 502.253906 608.527344 L 553.75 608.527344 C 585.414062 608.527344 617.78125 580.992188 617.78125 549.324219 L 617.78125 466.667969 C 617.78125 422.230469 574.957031 384.5 530.519531 384.5 " fill-opacity="1" fill-rule="nonzero"/><path fill="#02468f" d="M 512.3125 568.386719 C 523.015625 564.207031 533.878906 565.199219 544.460938 568.777344 C 552.445312 571.472656 555.863281 558.863281 547.9375 556.1875 C 535.453125 551.96875 521.414062 550.898438 508.839844 555.800781 C 501.105469 558.820312 504.464844 571.453125 512.3125 568.386719 " fill-opacity="1" fill-rule="nonzero"/><path fill="#02468f" d="M 502.265625 495.867188 L 476.785156 493.832031 C 473.476562 493.566406 470.988281 490.644531 471.25 487.328125 C 471.519531 484.027344 474.4375 481.53125 477.75 481.796875 L 503.234375 483.832031 C 506.539062 484.101562 509.035156 487.023438 508.765625 490.332031 C 508.503906 493.648438 505.574219 496.136719 502.265625 495.867188 " fill-opacity="1" fill-rule="nonzero"/><path fill="#02468f" d="M 553.511719 495.867188 L 578.988281 493.832031 C 582.300781 493.566406 584.796875 490.644531 584.527344 487.328125 C 584.265625 484.027344 581.335938 481.53125 578.027344 481.796875 L 552.546875 483.832031 C 549.234375 484.101562 546.742188 487.023438 547.011719 490.332031 C 547.273438 493.648438 550.203125 496.136719 553.511719 495.867188 " fill-opacity="1" fill-rule="nonzero"/><g clip-path="url(#e8da695933)"><path fill="#02468f" d="M 179.566406 382.613281 C 155.144531 382.613281 135.34375 366.328125 135.34375 346.246094 C 135.34375 326.160156 155.144531 309.875 179.566406 309.875 C 203.980469 309.875 253.167969 340.3125 253.167969 360.402344 C 253.167969 380.488281 203.980469 382.613281 179.566406 382.613281 Z M 249.597656 157.941406 C 262.328125 139.59375 283.28125 129.273438 305.617188 129.273438 L 484.878906 129.273438 C 507.214844 129.273438 528.171875 139.59375 540.9375 158.003906 C 545.125 164.328125 559.113281 194.496094 573.601562 245.546875 L 216.894531 245.546875 C 231.382812 194.496094 245.378906 164.308594 249.597656 157.941406 Z M 303.644531 495.144531 C 303.644531 370.589844 404.609375 269.886719 529.164062 269.886719 C 580.414062 269.886719 627.648438 287.140625 665.519531 315.933594 C 656.855469 297.871094 644 282.480469 627.722656 271.042969 L 633.042969 261.300781 C 633.042969 261.300781 658.910156 267.1875 667.847656 261.324219 C 676.789062 255.449219 696.105469 240.382812 694.824219 225.050781 C 693.550781 209.730469 641.269531 217.398438 625.925781 225.058594 C 617.996094 229.015625 610.625 237.355469 605.289062 244.488281 C 593.089844 214.550781 570.113281 156.132812 562.714844 145.460938 C 545.625 120.828125 516.867188 100.917969 484.878906 100.917969 L 305.617188 100.917969 C 273.625 100.917969 244.851562 120.835938 227.761719 145.460938 C 220.191406 156.371094 196.34375 215.5 184.367188 244.90625 C 178.984375 237.402344 170.914062 228.621094 162.253906 224.292969 C 146.910156 216.628906 94.546875 209.355469 93.273438 224.679688 C 92 240 111.152344 255.28125 120.097656 261.144531 C 129.03125 267.007812 154.570312 261.242188 154.570312 261.242188 L 158.714844 271.617188 C 126.535156 293.824219 104.496094 330.714844 104.496094 372.582031 L 104.496094 435.539062 L 98.476562 435.539062 C 92.289062 435.539062 81.8125 443.625 81.8125 449.8125 L 81.8125 496.726562 C 81.8125 502.910156 92.289062 503.605469 98.476562 503.605469 L 135.695312 503.605469 L 135.695312 537.898438 C 135.695312 562.21875 152.5 582.117188 176.808594 582.117188 C 201.125 582.117188 217.933594 562.21875 217.933594 537.898438 L 217.933594 503.605469 L 303.867188 503.605469 C 303.746094 500.765625 303.644531 498.15625 303.644531 495.144531 " fill-opacity="1" fill-rule="nonzero"/></g></svg>