<svg xmlns="http://www.w3.org/2000/svg" xmlns:xlink="http://www.w3.org/1999/xlink" width="1080" zoomAndPan="magnify" viewBox="0 0 810 809.999993" height="1080" preserveAspectRatio="xMidYMid meet" version="1.0"><defs><clipPath id="040a0236c4"><path d="M 81 130.140625 L 744 130.140625 L 744 679.890625 L 81 679.890625 Z M 81 130.140625 " clip-rule="nonzero"/></clipPath></defs><g clip-path="url(#040a0236c4)"><path fill="#02468f" d="M 92.820312 570.171875 L 352.566406 163.171875 C 359.242188 152.707031 368.019531 144.488281 378.289062 138.847656 L 378.269531 138.804688 C 388.617188 133.132812 400.273438 130.140625 412.652344 130.140625 C 425.03125 130.140625 436.6875 133.132812 447.035156 138.804688 L 447.015625 138.847656 C 457.285156 144.488281 466.0625 152.707031 472.738281 163.171875 L 732.484375 570.171875 C 739.613281 581.351562 743.414062 593.65625 743.828125 606.160156 C 744.242188 618.675781 741.289062 631.1875 734.9375 642.792969 L 734.894531 642.769531 C 728.488281 654.4375 719.535156 663.679688 708.820312 670.023438 C 698.027344 676.421875 685.617188 679.855469 672.398438 679.855469 L 152.90625 679.855469 C 139.6875 679.855469 127.277344 676.421875 116.484375 670.023438 C 105.769531 663.679688 96.816406 654.4375 90.410156 642.769531 L 90.367188 642.792969 C 84.015625 631.1875 81.0625 618.675781 81.476562 606.160156 C 81.890625 593.65625 85.691406 581.351562 92.820312 570.171875 Z M 336.578125 312.21875 C 325.054688 322.503906 324.050781 340.164062 334.339844 351.683594 C 351.492188 370.90625 367.359375 366.683594 385.367188 356.785156 C 393.121094 352.53125 401.019531 343.753906 391.929688 333.09375 L 376.03125 314.464844 C 365.753906 302.933594 348.097656 301.9375 336.578125 312.21875 Z M 410.167969 362.789062 L 474.269531 360.730469 L 483.386719 318.292969 C 486.628906 301.535156 507.578125 306.597656 505.929688 322.847656 L 500.808594 373.542969 C 499.824219 383.242188 491.296875 386.648438 483.085938 388.046875 L 450.855469 395.582031 C 441.726562 387.0625 420.113281 371.609375 409.535156 365.035156 C 409.070312 364.746094 408.855469 364.207031 409.007812 363.667969 C 409.152344 363.152344 409.621094 362.8125 410.167969 362.789062 Z M 504.203125 551.199219 L 500.507812 615.289062 C 500.125 635.855469 527.605469 639.3125 531.15625 618.003906 L 542.292969 551.230469 C 543.378906 544.710938 542.25 538.519531 538.078125 533.398438 L 499.203125 485.742188 L 553.707031 474.097656 C 556.378906 473.519531 558.988281 474.390625 560.457031 476.695312 L 598.917969 537.238281 C 608.585938 553.777344 635.796875 541.800781 623.441406 519.476562 L 588.589844 444.691406 C 584.078125 435.015625 576.800781 428.566406 558.75 430.730469 L 482.953125 439.839844 C 467.777344 417.824219 440.628906 391.480469 403.367188 369.664062 C 390.417969 363.730469 375.214844 365.636719 364.5 371.949219 C 355.019531 377.539062 334.921875 396.191406 317.550781 410.773438 C 311.488281 415.867188 308.082031 423.09375 309.417969 430.894531 L 320.65625 496.488281 C 323.046875 512.5625 345.570312 512.914062 345.582031 495.296875 L 341.804688 432.59375 L 367.492188 416.796875 C 396.597656 436.972656 408.449219 454.972656 419.792969 469.492188 C 427.058594 478.808594 435.433594 488.1875 444.34375 497.429688 C 461.746094 515.460938 486.75 535.757812 504.203125 551.199219 Z M 291.777344 602.816406 L 458.617188 602.816406 C 465.9375 602.816406 471.917969 608.800781 471.917969 616.117188 C 471.917969 623.425781 465.9375 629.417969 458.617188 629.417969 L 291.777344 629.417969 C 284.460938 629.417969 278.488281 623.425781 278.488281 616.117188 C 278.488281 608.800781 284.460938 602.816406 291.777344 602.816406 Z M 211.988281 602.816406 L 222.875 602.816406 C 230.195312 602.816406 236.175781 608.800781 236.175781 616.117188 C 236.175781 623.425781 230.195312 629.417969 222.875 629.417969 L 211.988281 629.417969 C 204.667969 629.417969 198.695312 623.425781 198.695312 616.117188 C 198.695312 608.800781 204.667969 602.816406 211.988281 602.816406 Z M 211.988281 602.816406 " fill-opacity="1" fill-rule="evenodd"/></g></svg>