<svg xmlns="http://www.w3.org/2000/svg" xmlns:xlink="http://www.w3.org/1999/xlink" width="1080" zoomAndPan="magnify" viewBox="0 0 810 809.999993" height="1080" preserveAspectRatio="xMidYMid meet" version="1.0"><defs><clipPath id="2399bb3042"><path d="M 404 242.011719 L 765 242.011719 L 765 531 L 404 531 Z M 404 242.011719 " clip-rule="nonzero"/></clipPath></defs><path fill="#02468f" d="M 240.40625 500.769531 L 284.363281 519.511719 L 261.257812 490.972656 Z M 240.40625 500.769531 " fill-opacity="1" fill-rule="nonzero"/><path fill="#02468f" d="M 175.136719 484.023438 C 174.105469 483.316406 173.121094 482.53125 172.210938 481.640625 L 162.550781 472.199219 L 162.59375 472.164062 C 161.667969 471.335938 160.785156 470.453125 159.996094 469.457031 C 154.488281 462.535156 153.851562 453.296875 157.566406 445.859375 L 157.539062 445.867188 L 66.214844 477.375 C 52.800781 482.003906 45.679688 496.625 50.308594 510.039062 C 54.933594 523.449219 69.554688 530.570312 82.96875 525.941406 L 170.375 495.785156 C 170.898438 493.625 171.628906 491.496094 172.601562 489.4375 Z M 175.136719 484.023438 " fill-opacity="1" fill-rule="nonzero"/><path fill="#02468f" d="M 430.53125 529.234375 L 594.925781 432.757812 C 600.410156 429.539062 602.261719 422.417969 599.042969 416.933594 L 596.804688 413.117188 C 593.585938 407.632812 586.464844 405.78125 580.980469 409 L 416.589844 505.476562 C 411.105469 508.695312 409.25 515.816406 412.46875 521.300781 L 414.710938 525.113281 C 417.929688 530.601562 425.050781 532.453125 430.53125 529.234375 Z M 430.53125 529.234375 " fill-opacity="1" fill-rule="nonzero"/><g clip-path="url(#2399bb3042)"><path fill="#02468f" d="M 617.386719 248.972656 L 682.464844 359.863281 L 618.132812 397.621094 C 609.9375 384.503906 592.703125 380.183594 579.285156 388.0625 L 492.328125 439.09375 L 482.382812 422.148438 L 431.390625 442.828125 L 410.960938 408.023438 L 404.773438 411.65625 L 428.335938 451.808594 L 479.332031 431.125 L 486.136719 442.726562 L 474.753906 449.40625 L 479.59375 457.660156 L 584.125 396.3125 C 593.226562 390.972656 604.976562 394.03125 610.316406 403.132812 L 614.351562 410.007812 C 619.695312 419.109375 616.636719 430.859375 607.535156 436.199219 L 503.003906 497.546875 L 507.847656 505.796875 L 519.234375 499.117188 L 529.175781 516.0625 L 580.171875 495.378906 L 600.597656 530.1875 L 606.785156 526.554688 L 583.222656 486.398438 L 532.226562 507.082031 L 525.421875 495.484375 L 612.378906 444.453125 C 625.796875 436.574219 630.429688 419.421875 622.976562 405.875 L 687.308594 368.117188 L 752.390625 479.007812 L 764.25 472.046875 L 629.25 242.011719 Z M 617.386719 248.972656 " fill-opacity="1" fill-rule="nonzero"/></g><path fill="#02468f" d="M 291.445312 343.035156 L 240.242188 383.757812 C 241.167969 383.675781 242.097656 383.625 243.023438 383.625 C 252.9375 383.625 262.210938 388.050781 268.457031 395.769531 L 273.042969 401.433594 L 284.289062 392.492188 C 284.644531 394.261719 285.011719 396.070312 285.382812 397.910156 C 285.929688 400.605469 286.492188 403.394531 287.058594 406.226562 L 297.8125 369.125 C 300.53125 359.753906 309.234375 353.210938 318.980469 353.210938 C 321.054688 353.210938 323.125 353.503906 325.125 354.085938 C 330.785156 355.726562 335.464844 359.46875 338.304688 364.628906 C 341.144531 369.789062 341.808594 375.742188 340.167969 381.402344 L 318.621094 455.742188 C 316.859375 461.832031 312.558594 466.867188 306.820312 469.5625 L 266.84375 488.347656 L 290.957031 518.128906 C 294.480469 522.484375 299.097656 525.40625 304.089844 526.894531 C 308.363281 528.714844 314.046875 529.058594 321.167969 529.148438 C 340.785156 529.398438 364.40625 525.859375 371.105469 491.394531 C 375.316406 455.195312 374.492188 430.25 367.441406 401.359375 C 365.226562 392.296875 362.421875 382.855469 358.941406 372.542969 C 349.046875 343.765625 325.914062 333.058594 308.046875 335.015625 C 306.453125 335.191406 304.894531 335.457031 303.398438 335.832031 C 298.71875 336.996094 294.71875 339.542969 291.445312 343.035156 Z M 291.445312 343.035156 " fill-opacity="1" fill-rule="nonzero"/><path fill="#02468f" d="M 219.210938 508.425781 C 210.703125 508.425781 202.867188 503.449219 199.246094 495.75 C 197.722656 492.507812 197.078125 489.078125 197.183594 485.722656 C 194.238281 487.140625 190.996094 487.917969 187.621094 487.917969 C 185.15625 487.917969 182.761719 487.492188 180.492188 486.714844 L 178.023438 491.988281 C 171.730469 505.359375 177.46875 521.300781 190.84375 527.59375 C 204.21875 533.882812 220.15625 528.144531 226.445312 514.773438 L 230.902344 505.234375 L 228.578125 506.328125 C 225.613281 507.71875 222.464844 508.425781 219.210938 508.425781 Z M 219.210938 508.425781 " fill-opacity="1" fill-rule="nonzero"/><path fill="#02468f" d="M 218.789062 404.984375 L 199.339844 446.492188 L 203.03125 450.09375 C 207.609375 454.574219 209.800781 460.574219 209.625 466.519531 C 209.691406 466.488281 209.753906 466.449219 209.824219 466.414062 L 279.042969 433.890625 L 282.355469 422.457031 L 263.800781 399.539062 C 258.003906 392.378906 248.925781 388.695312 239.789062 389.8125 C 230.644531 390.917969 222.710938 396.648438 218.789062 404.984375 Z M 218.789062 404.984375 " fill-opacity="1" fill-rule="nonzero"/><path fill="#02468f" d="M 304.726562 465.105469 C 309.183594 463.015625 312.523438 459.101562 313.890625 454.375 L 335.4375 380.03125 C 338.074219 370.945312 332.84375 361.445312 323.757812 358.816406 C 314.671875 356.179688 305.175781 361.414062 302.542969 370.496094 L 283.152344 437.402344 L 211.917969 470.871094 C 210.636719 471.472656 209.480469 472.226562 208.429688 473.078125 C 207.402344 476.0625 205.742188 478.875 203.394531 481.277344 C 203.160156 481.515625 202.90625 481.726562 202.660156 481.957031 C 201.652344 485.722656 201.914062 489.847656 203.699219 493.65625 C 206.617188 499.859375 212.78125 503.5 219.210938 503.5 C 221.652344 503.5 224.128906 502.976562 226.484375 501.871094 Z M 304.726562 465.105469 " fill-opacity="1" fill-rule="nonzero"/><path fill="#02468f" d="M 290.230469 304.878906 C 290.230469 306.457031 290.152344 308.03125 290 309.601562 C 289.84375 311.171875 289.613281 312.730469 289.304688 314.277344 C 288.996094 315.824219 288.613281 317.351562 288.15625 318.859375 C 287.699219 320.371094 287.167969 321.855469 286.5625 323.3125 C 285.960938 324.769531 285.285156 326.191406 284.542969 327.585938 C 283.800781 328.976562 282.988281 330.328125 282.113281 331.636719 C 281.238281 332.949219 280.296875 334.214844 279.296875 335.433594 C 278.296875 336.652344 277.238281 337.820312 276.125 338.9375 C 275.007812 340.050781 273.839844 341.109375 272.621094 342.109375 C 271.402344 343.113281 270.136719 344.050781 268.824219 344.925781 C 267.511719 345.804688 266.160156 346.613281 264.769531 347.355469 C 263.378906 348.101562 261.953125 348.773438 260.496094 349.378906 C 259.039062 349.980469 257.558594 350.511719 256.046875 350.96875 C 254.539062 351.429688 253.007812 351.8125 251.460938 352.117188 C 249.914062 352.425781 248.355469 352.65625 246.785156 352.8125 C 245.214844 352.96875 243.644531 353.042969 242.066406 353.042969 C 240.488281 353.042969 238.914062 352.96875 237.34375 352.8125 C 235.773438 352.65625 234.214844 352.425781 232.667969 352.117188 C 231.121094 351.8125 229.59375 351.429688 228.085938 350.96875 C 226.574219 350.511719 225.089844 349.980469 223.632812 349.378906 C 222.175781 348.773438 220.75 348.101562 219.359375 347.355469 C 217.96875 346.613281 216.617188 345.804688 215.304688 344.925781 C 213.996094 344.050781 212.730469 343.113281 211.511719 342.109375 C 210.289062 341.109375 209.125 340.050781 208.007812 338.9375 C 206.890625 337.820312 205.835938 336.652344 204.832031 335.433594 C 203.832031 334.214844 202.894531 332.949219 202.019531 331.636719 C 201.140625 330.328125 200.332031 328.976562 199.585938 327.585938 C 198.84375 326.191406 198.171875 324.769531 197.566406 323.3125 C 196.964844 321.855469 196.433594 320.371094 195.972656 318.859375 C 195.515625 317.351562 195.132812 315.824219 194.824219 314.277344 C 194.519531 312.730469 194.285156 311.171875 194.132812 309.601562 C 193.976562 308.03125 193.902344 306.457031 193.902344 304.878906 C 193.902344 303.300781 193.976562 301.726562 194.132812 300.15625 C 194.285156 298.589844 194.519531 297.03125 194.824219 295.484375 C 195.132812 293.933594 195.515625 292.40625 195.972656 290.898438 C 196.433594 289.386719 196.964844 287.90625 197.566406 286.445312 C 198.171875 284.988281 198.84375 283.566406 199.585938 282.175781 C 200.332031 280.78125 201.140625 279.433594 202.019531 278.121094 C 202.894531 276.808594 203.832031 275.542969 204.832031 274.324219 C 205.835938 273.105469 206.890625 271.9375 208.007812 270.820312 C 209.125 269.707031 210.289062 268.648438 211.511719 267.648438 C 212.730469 266.644531 213.996094 265.707031 215.304688 264.832031 C 216.617188 263.953125 217.96875 263.144531 219.359375 262.402344 C 220.75 261.65625 222.175781 260.984375 223.632812 260.378906 C 225.089844 259.777344 226.574219 259.246094 228.085938 258.789062 C 229.59375 258.332031 231.121094 257.949219 232.667969 257.640625 C 234.214844 257.332031 235.773438 257.101562 237.34375 256.945312 C 238.914062 256.792969 240.488281 256.714844 242.066406 256.714844 C 243.644531 256.714844 245.214844 256.792969 246.785156 256.945312 C 248.355469 257.101562 249.914062 257.332031 251.460938 257.640625 C 253.007812 257.949219 254.539062 258.332031 256.046875 258.789062 C 257.558594 259.246094 259.039062 259.777344 260.496094 260.378906 C 261.953125 260.984375 263.378906 261.65625 264.769531 262.402344 C 266.160156 263.144531 267.511719 263.953125 268.824219 264.832031 C 270.136719 265.707031 271.402344 266.644531 272.621094 267.648438 C 273.839844 268.648438 275.007812 269.707031 276.125 270.820312 C 277.238281 271.9375 278.296875 273.105469 279.296875 274.324219 C 280.296875 275.542969 281.238281 276.808594 282.113281 278.121094 C 282.988281 279.433594 283.800781 280.78125 284.542969 282.175781 C 285.285156 283.566406 285.960938 284.988281 286.5625 286.445312 C 287.167969 287.90625 287.699219 289.386719 288.15625 290.898438 C 288.613281 292.40625 288.996094 293.933594 289.304688 295.484375 C 289.613281 297.03125 289.84375 298.589844 290 300.15625 C 290.152344 301.726562 290.230469 303.300781 290.230469 304.878906 Z M 290.230469 304.878906 " fill-opacity="1" fill-rule="nonzero"/><path fill="#02468f" d="M 187.621094 482.992188 C 192.070312 482.992188 196.515625 481.269531 199.871094 477.835938 C 206.480469 471.070312 206.355469 460.226562 199.589844 453.617188 L 192.589844 446.777344 L 211.351562 406.734375 L 166.59375 442.332031 C 166.546875 442.367188 166.507812 442.40625 166.464844 442.445312 C 166.226562 442.636719 166 442.847656 165.769531 443.054688 C 165.554688 443.25 165.339844 443.4375 165.136719 443.640625 C 165.089844 443.6875 165.042969 443.722656 165 443.765625 C 164.863281 443.910156 164.746094 444.0625 164.613281 444.207031 C 164.390625 444.449219 164.167969 444.6875 163.964844 444.941406 C 163.804688 445.136719 163.65625 445.34375 163.507812 445.546875 C 163.320312 445.796875 163.132812 446.046875 162.960938 446.304688 C 162.808594 446.535156 162.671875 446.773438 162.535156 447.007812 C 162.390625 447.25 162.246094 447.488281 162.113281 447.734375 C 161.976562 448 161.851562 448.265625 161.726562 448.535156 C 161.621094 448.765625 161.511719 448.996094 161.414062 449.230469 C 161.296875 449.519531 161.195312 449.8125 161.09375 450.105469 C 161.015625 450.332031 160.933594 450.554688 160.863281 450.785156 C 160.773438 451.082031 160.699219 451.386719 160.625 451.691406 C 160.570312 451.921875 160.511719 452.152344 160.464844 452.390625 C 160.40625 452.683594 160.363281 452.980469 160.320312 453.277344 C 160.285156 453.527344 160.246094 453.777344 160.21875 454.03125 C 160.191406 454.3125 160.179688 454.59375 160.164062 454.875 C 160.152344 455.144531 160.136719 455.417969 160.136719 455.6875 C 160.132812 455.953125 160.148438 456.214844 160.160156 456.476562 C 160.171875 456.769531 160.183594 457.058594 160.210938 457.347656 C 160.234375 457.597656 160.269531 457.84375 160.304688 458.09375 C 160.347656 458.390625 160.386719 458.6875 160.441406 458.980469 C 160.492188 459.230469 160.550781 459.476562 160.613281 459.722656 C 160.679688 460.011719 160.746094 460.296875 160.832031 460.582031 C 160.90625 460.84375 161 461.101562 161.089844 461.359375 C 161.179688 461.617188 161.269531 461.878906 161.371094 462.136719 C 161.484375 462.417969 161.617188 462.695312 161.746094 462.972656 C 161.851562 463.195312 161.949219 463.421875 162.066406 463.644531 C 162.222656 463.945312 162.398438 464.238281 162.574219 464.527344 C 162.6875 464.722656 162.796875 464.914062 162.921875 465.105469 C 163.117188 465.402344 163.332031 465.6875 163.546875 465.976562 C 163.648438 466.113281 163.738281 466.257812 163.847656 466.394531 C 163.878906 466.433594 163.914062 466.464844 163.945312 466.503906 C 164.253906 466.882812 164.585938 467.246094 164.929688 467.605469 C 165.03125 467.710938 165.128906 467.832031 165.234375 467.9375 C 165.253906 467.953125 165.265625 467.96875 165.28125 467.984375 L 175.652344 478.117188 C 178.984375 481.371094 183.304688 482.992188 187.621094 482.992188 Z M 187.621094 482.992188 " fill-opacity="1" fill-rule="nonzero"/><path fill="#02468f" d="M 157.273438 410.261719 L 123.484375 379.863281 L 141.027344 372.835938 L 107.289062 336.945312 L 100.65625 343.144531 L 130.355469 370.742188 L 111.472656 379.882812 L 155.820312 411.746094 Z M 157.273438 410.261719 " fill-opacity="1" fill-rule="nonzero"/><path fill="#02468f" d="M 149.234375 426.695312 L 149.675781 425 L 112.097656 416.886719 L 122.027344 404.351562 L 82.171875 392.183594 L 79.90625 399.519531 L 113.3125 407.296875 L 103.28125 421.949219 Z M 149.234375 426.695312 " fill-opacity="1" fill-rule="nonzero"/></svg>