<svg xmlns="http://www.w3.org/2000/svg" xmlns:xlink="http://www.w3.org/1999/xlink" width="1080" zoomAndPan="magnify" viewBox="0 0 810 809.999993" height="1080" preserveAspectRatio="xMidYMid meet" version="1.0"><path fill="#02468f" d="M 671.96875 141.414062 C 648.855469 111.757812 615.003906 97.179688 574.039062 99.171875 C 561.023438 76.628906 533.855469 88.929688 520.558594 95.117188 C 518.992188 95.828125 517.5 96.539062 516.078125 97.109375 C 514.371094 97.890625 512.59375 98.601562 510.742188 99.3125 C 499.71875 103.863281 485.921875 109.554688 480.804688 122.640625 C 477.601562 130.890625 478.457031 140.492188 483.433594 151.230469 L 484.074219 152.652344 C 489.125 163.605469 496.023438 170.289062 504.414062 172.492188 C 506.546875 173.0625 508.609375 173.277344 510.742188 173.277344 C 521.839844 173.277344 532.078125 165.949219 540.613281 159.90625 C 542.25 158.769531 543.8125 157.628906 545.378906 156.5625 C 546.65625 155.710938 548.082031 154.785156 549.503906 153.789062 C 559.53125 147.175781 576.03125 136.367188 578.875 120.789062 C 611.160156 120.222656 636.621094 131.601562 654.6875 154.785156 C 690.171875 200.300781 688.609375 278.246094 672.109375 331.300781 C 658.382812 375.605469 635.414062 410.878906 618.984375 432.214844 C 609.667969 429.726562 599.285156 432.5 592.457031 440.25 C 562.800781 474.03125 489.410156 516.773438 451.859375 536.757812 C 414.59375 516.773438 342.050781 474.03125 312.398438 440.25 C 305.710938 432.640625 295.613281 429.796875 286.4375 432.074219 C 270.011719 410.667969 247.109375 375.464844 233.457031 331.300781 C 216.816406 277.746094 215.390625 199.519531 251.449219 154.074219 C 269.015625 131.957031 293.480469 120.789062 324.132812 120.71875 C 326.90625 136.292969 343.476562 147.175781 353.503906 153.71875 C 354.925781 154.644531 356.347656 155.566406 357.628906 156.492188 C 359.191406 157.558594 360.828125 158.695312 362.390625 159.835938 C 370.855469 165.878906 381.167969 173.203125 392.261719 173.203125 C 394.324219 173.203125 396.457031 172.921875 398.589844 172.421875 C 407.054688 170.21875 413.882812 163.53125 418.929688 152.652344 L 419.640625 151.15625 C 424.621094 140.417969 425.472656 130.820312 422.273438 122.570312 C 417.152344 109.414062 403.355469 103.792969 392.332031 99.242188 C 390.554688 98.460938 388.777344 97.75 387 97.039062 C 385.578125 96.398438 384.082031 95.757812 382.519531 95.046875 C 369.21875 88.929688 342.050781 76.554688 329.039062 99.027344 C 289.566406 97.820312 256.925781 112.113281 234.308594 140.5625 C 204.652344 177.96875 186.375 253.496094 212.617188 337.84375 C 227.480469 385.632812 251.734375 422.96875 269.300781 445.796875 C 264.605469 455.042969 265.742188 466.636719 272.996094 474.957031 C 319.722656 528.222656 435.074219 587.394531 439.910156 589.882812 L 441.546875 590.734375 C 445.246094 636.890625 432.941406 673.660156 406.484375 693.429688 C 385.078125 709.429688 357.554688 711.566406 332.734375 699.121094 C 296.324219 680.84375 274.632812 635.46875 274.5625 577.578125 C 274.5625 577.4375 274.5625 577.367188 274.5625 577.292969 C 274.5625 577.292969 274.5625 577.222656 274.5625 577.222656 C 274.492188 536.472656 258.632812 504.542969 230.96875 489.535156 C 210.699219 478.582031 187.65625 479.152344 169.308594 491.101562 C 149.820312 503.832031 139.152344 527.371094 139.082031 556.601562 C 106.582031 562.003906 81.691406 590.308594 81.691406 624.304688 C 81.691406 662.210938 112.554688 693.003906 150.390625 693.003906 C 188.226562 693.003906 219.089844 662.136719 219.089844 624.304688 C 219.089844 590.023438 193.773438 561.578125 160.917969 556.457031 C 160.988281 534.835938 168.171875 517.910156 181.253906 509.378906 C 192.707031 501.910156 207.425781 501.625 220.511719 508.738281 C 240.851562 519.761719 252.585938 544.722656 252.585938 577.292969 C 252.585938 644.785156 278.1875 696.273438 322.78125 718.675781 C 336.363281 725.503906 350.941406 728.847656 365.308594 728.847656 C 384.582031 728.847656 403.5 722.800781 419.429688 710.925781 C 451.859375 686.671875 467.289062 643.363281 463.308594 590.023438 L 463.523438 589.882812 C 468.429688 587.394531 585.132812 528.222656 631.855469 474.957031 C 638.96875 466.847656 640.175781 455.542969 635.839844 446.367188 C 653.476562 423.609375 678.011719 385.988281 692.945312 337.84375 C 718.976562 254.207031 701.125 178.894531 671.96875 141.414062 Z M 555.902344 111.617188 L 556.402344 112.613281 C 559.316406 118.800781 554.835938 124.203125 537.484375 135.582031 C 535.917969 136.578125 534.425781 137.574219 533.074219 138.5 C 531.367188 139.636719 529.660156 140.917969 527.882812 142.125 C 522.195312 146.179688 513.730469 152.296875 510.03125 151.300781 C 508.679688 150.945312 506.40625 148.667969 503.917969 143.335938 L 503.277344 141.984375 C 501.640625 138.5 500.003906 133.664062 501.214844 130.605469 C 502.921875 126.195312 511.527344 122.640625 519.136719 119.511719 C 521.125 118.730469 523.046875 117.875 524.894531 117.09375 C 526.390625 116.453125 528.023438 115.671875 529.660156 114.960938 C 549.289062 105.925781 553.554688 106.496094 555.761719 111.117188 M 346.535156 112.542969 L 347.101562 111.261719 C 348.097656 109.199219 349.449219 107.917969 352.363281 107.917969 C 356.0625 107.917969 362.25 109.980469 373.203125 115.03125 C 374.839844 115.8125 376.472656 116.523438 377.96875 117.164062 C 379.816406 118.015625 381.808594 118.800781 383.726562 119.582031 C 391.265625 122.710938 399.871094 126.265625 401.648438 130.675781 C 402.859375 133.734375 401.152344 138.570312 399.515625 142.054688 L 398.875 143.476562 C 396.457031 148.738281 394.109375 151.015625 392.757812 151.371094 C 389.0625 152.367188 380.597656 146.179688 374.910156 142.199219 C 373.132812 140.917969 371.425781 139.707031 369.71875 138.570312 C 368.296875 137.644531 366.800781 136.648438 365.308594 135.65625 C 348.027344 124.203125 343.617188 118.871094 346.535156 112.542969 Z M 197.257812 624.304688 C 197.257812 650.121094 176.207031 671.171875 150.390625 671.171875 C 124.574219 671.171875 103.523438 650.121094 103.523438 624.304688 C 103.523438 598.488281 124.574219 577.4375 150.390625 577.4375 C 176.207031 577.4375 197.257812 598.488281 197.257812 624.304688 Z M 197.257812 624.304688 " fill-opacity="1" fill-rule="nonzero"/><path fill="#02468f" d="M 473.195312 290.476562 C 483.007812 294.105469 491.613281 291.1875 498.9375 284.433594 C 509.320312 274.832031 513.375 262.597656 511.667969 248.589844 C 510.601562 240.125 507.046875 232.730469 499.507812 228.109375 C 496.589844 226.328125 492.964844 225.691406 489.621094 224.480469 C 488.339844 224.480469 487.0625 224.480469 485.710938 224.480469 C 485.355469 224.621094 485 224.765625 484.644531 224.835938 C 479.878906 225.476562 475.683594 227.394531 471.984375 230.3125 C 459.46875 240.054688 453.707031 257.976562 458.257812 273.195312 C 460.675781 281.089844 465.15625 287.492188 473.195312 290.476562 Z M 473.195312 290.476562 " fill-opacity="1" fill-rule="nonzero"/><path fill="#02468f" d="M 412.886719 224.480469 C 411.605469 224.480469 410.324219 224.480469 408.972656 224.480469 C 408.761719 224.550781 408.476562 224.765625 408.261719 224.765625 C 401.648438 225.546875 396.457031 228.820312 392.617188 234.152344 C 387.210938 241.691406 385.648438 250.226562 386.855469 259.1875 C 388.492188 271.277344 393.828125 281.304688 404.421875 287.988281 C 415.445312 294.957031 428.460938 292.609375 435.855469 282.15625 C 442.042969 273.480469 443.039062 263.738281 440.835938 253.640625 C 438.273438 242.117188 432.441406 232.800781 421.632812 227.324219 C 418.929688 225.972656 415.800781 225.40625 412.886719 224.480469 Z M 412.886719 224.480469 " fill-opacity="1" fill-rule="nonzero"/><path fill="#02468f" d="M 398.804688 333.363281 C 404.921875 316.648438 396.882812 295.457031 381.308594 286.636719 C 367.65625 278.886719 352.792969 283.722656 346.960938 297.945312 C 345.820312 300.789062 345.324219 303.847656 344.472656 306.835938 C 344.472656 309.324219 344.472656 311.742188 344.472656 314.230469 C 344.613281 314.730469 344.753906 315.226562 344.828125 315.722656 C 346.320312 326.25 350.800781 335.210938 358.90625 342.109375 C 364.453125 346.875 370.855469 349.789062 378.25 349.363281 C 388.636719 348.722656 395.320312 342.820312 398.804688 333.363281 Z M 398.804688 333.363281 " fill-opacity="1" fill-rule="nonzero"/><path fill="#02468f" d="M 422.488281 315.796875 C 418.929688 321.058594 417.082031 327.101562 415.730469 333.21875 C 413.953125 341.753906 411.109375 349.859375 405.488281 356.617188 C 401.222656 361.667969 396.457031 366.289062 391.691406 370.910156 C 384.4375 377.882812 379.246094 385.917969 378.179688 396.160156 C 377.46875 403.339844 379.320312 409.671875 385.007812 414.292969 C 392.757812 420.695312 402.003906 422.613281 411.605469 420.765625 C 427.535156 417.707031 443.464844 415.929688 459.609375 416.996094 C 469.070312 417.636719 478.527344 418.773438 487.84375 420.410156 C 495.167969 421.691406 502.066406 421.476562 508.964844 418.988281 C 518.921875 415.429688 524.398438 407.679688 523.828125 397.507812 C 523.472656 390.964844 521.625 384.78125 517.570312 379.589844 C 514.085938 375.109375 510.246094 370.910156 506.050781 367.140625 C 495.667969 357.683594 488.625 346.519531 486.066406 332.507812 C 485.425781 329.164062 484.359375 325.894531 483.148438 322.695312 C 478.03125 308.96875 465.726562 300.503906 451.148438 300.503906 C 438.984375 300.578125 429.3125 305.695312 422.488281 315.796875 Z M 422.488281 315.796875 " fill-opacity="1" fill-rule="nonzero"/><path fill="#02468f" d="M 505.90625 343.175781 C 513.304688 350.570312 525.039062 351.425781 534.921875 345.453125 C 548.363281 337.414062 556.332031 319.992188 553.484375 304.628906 C 552.207031 297.445312 549.21875 291.117188 542.960938 286.921875 C 534.285156 281.019531 525.25 281.730469 516.648438 286.992188 C 503.84375 294.886719 498.296875 306.976562 497.585938 320.132812 C 497.800781 329.804688 500.003906 337.203125 505.90625 343.175781 Z M 505.90625 343.175781 " fill-opacity="1" fill-rule="nonzero"/><path fill="#02468f" d="M 170.375 624.304688 C 170.375 624.957031 170.34375 625.609375 170.277344 626.261719 C 170.214844 626.914062 170.117188 627.558594 169.992188 628.203125 C 169.863281 628.84375 169.703125 629.476562 169.515625 630.105469 C 169.324219 630.730469 169.105469 631.347656 168.855469 631.953125 C 168.601562 632.554688 168.324219 633.148438 168.015625 633.722656 C 167.707031 634.300781 167.371094 634.863281 167.007812 635.40625 C 166.644531 635.949219 166.253906 636.476562 165.839844 636.980469 C 165.421875 637.488281 164.984375 637.972656 164.523438 638.433594 C 164.058594 638.898438 163.574219 639.335938 163.070312 639.75 C 162.5625 640.167969 162.039062 640.554688 161.492188 640.917969 C 160.949219 641.285156 160.386719 641.621094 159.8125 641.929688 C 159.234375 642.238281 158.644531 642.515625 158.039062 642.765625 C 157.433594 643.015625 156.816406 643.238281 156.191406 643.425781 C 155.566406 643.617188 154.929688 643.777344 154.289062 643.902344 C 153.648438 644.03125 153 644.128906 152.351562 644.191406 C 151.699219 644.253906 151.046875 644.289062 150.390625 644.289062 C 149.738281 644.289062 149.082031 644.253906 148.433594 644.191406 C 147.78125 644.128906 147.132812 644.03125 146.492188 643.902344 C 145.851562 643.777344 145.214844 643.617188 144.589844 643.425781 C 143.964844 643.238281 143.347656 643.015625 142.742188 642.765625 C 142.136719 642.515625 141.546875 642.238281 140.96875 641.929688 C 140.394531 641.621094 139.832031 641.285156 139.289062 640.917969 C 138.742188 640.554688 138.21875 640.167969 137.714844 639.75 C 137.207031 639.335938 136.722656 638.898438 136.261719 638.433594 C 135.796875 637.972656 135.359375 637.488281 134.941406 636.980469 C 134.527344 636.476562 134.136719 635.949219 133.773438 635.40625 C 133.410156 634.863281 133.074219 634.300781 132.765625 633.722656 C 132.457031 633.148438 132.179688 632.554688 131.929688 631.953125 C 131.675781 631.347656 131.457031 630.730469 131.265625 630.105469 C 131.078125 629.476562 130.917969 628.84375 130.789062 628.203125 C 130.664062 627.558594 130.566406 626.914062 130.503906 626.261719 C 130.4375 625.609375 130.40625 624.957031 130.40625 624.304688 C 130.40625 623.648438 130.4375 622.996094 130.503906 622.34375 C 130.566406 621.695312 130.664062 621.046875 130.789062 620.40625 C 130.917969 619.761719 131.078125 619.128906 131.265625 618.503906 C 131.457031 617.875 131.675781 617.261719 131.929688 616.65625 C 132.179688 616.050781 132.457031 615.460938 132.765625 614.882812 C 133.074219 614.304688 133.410156 613.746094 133.773438 613.199219 C 134.136719 612.65625 134.527344 612.132812 134.941406 611.625 C 135.359375 611.121094 135.796875 610.636719 136.261719 610.171875 C 136.722656 609.710938 137.207031 609.269531 137.714844 608.855469 C 138.21875 608.441406 138.742188 608.050781 139.289062 607.6875 C 139.832031 607.324219 140.394531 606.988281 140.96875 606.679688 C 141.546875 606.371094 142.136719 606.089844 142.742188 605.839844 C 143.347656 605.589844 143.964844 605.371094 144.589844 605.179688 C 145.214844 604.988281 145.851562 604.832031 146.492188 604.703125 C 147.132812 604.574219 147.78125 604.480469 148.433594 604.414062 C 149.082031 604.351562 149.738281 604.320312 150.390625 604.320312 C 151.046875 604.320312 151.699219 604.351562 152.351562 604.414062 C 153 604.480469 153.648438 604.574219 154.289062 604.703125 C 154.929688 604.832031 155.566406 604.988281 156.191406 605.179688 C 156.816406 605.371094 157.433594 605.589844 158.039062 605.839844 C 158.644531 606.089844 159.234375 606.371094 159.8125 606.679688 C 160.386719 606.988281 160.949219 607.324219 161.492188 607.6875 C 162.039062 608.050781 162.5625 608.441406 163.070312 608.855469 C 163.574219 609.269531 164.058594 609.710938 164.523438 610.171875 C 164.984375 610.636719 165.421875 611.121094 165.839844 611.625 C 166.253906 612.132812 166.644531 612.65625 167.007812 613.199219 C 167.371094 613.746094 167.707031 614.304688 168.015625 614.882812 C 168.324219 615.460938 168.601562 616.050781 168.855469 616.65625 C 169.105469 617.261719 169.324219 617.875 169.515625 618.503906 C 169.703125 619.128906 169.863281 619.761719 169.992188 620.40625 C 170.117188 621.046875 170.214844 621.695312 170.277344 622.34375 C 170.34375 622.996094 170.375 623.648438 170.375 624.304688 Z M 170.375 624.304688 " fill-opacity="1" fill-rule="nonzero"/></svg>