<svg xmlns="http://www.w3.org/2000/svg" xmlns:xlink="http://www.w3.org/1999/xlink" width="1080" zoomAndPan="magnify" viewBox="0 0 810 809.999993" height="1080" preserveAspectRatio="xMidYMid meet" version="1.0"><defs><clipPath id="e3dbe73ee7"><path d="M 101.734375 91 L 705 91 L 705 733 L 101.734375 733 Z M 101.734375 91 " clip-rule="nonzero"/></clipPath></defs><g clip-path="url(#e3dbe73ee7)"><path fill="#02468f" d="M 591.636719 123.175781 L 599.878906 103.257812 C 601.707031 98.796875 599.535156 93.757812 595.183594 91.925781 C 590.835938 90.097656 585.683594 92.269531 583.851562 96.621094 L 575.609375 116.652344 C 482.210938 80.824219 366.714844 131.644531 329.515625 224.703125 C 325.507812 234.089844 338.785156 241.417969 344.625 233.0625 C 362.367188 207.992188 401.167969 223.675781 395.902344 254.121094 C 394.757812 263.507812 406.550781 268.085938 411.8125 260.1875 C 428.410156 233.632812 469.734375 250.6875 462.863281 281.25 C 462.179688 285.140625 463.894531 289.375 467.558594 290.980469 C 470.648438 292.46875 474.65625 291.894531 477.285156 289.492188 C 485.757812 281.476562 497.316406 278.042969 508.535156 279.761719 L 440.542969 444.933594 L 425.433594 444.933594 C 410.898438 444.589844 398.078125 457.410156 398.308594 471.945312 C 398.308594 471.945312 398.308594 485.796875 398.308594 485.796875 L 371.867188 485.796875 C 371.753906 481.789062 371.980469 430.96875 371.867188 425.359375 C 371.867188 401.4375 352.40625 382.089844 328.597656 382.089844 L 295.40625 382.089844 L 295.40625 297.160156 C 315.550781 289.03125 310.742188 253.664062 287.621094 254.007812 C 287.621094 254.007812 186.320312 254.007812 186.320312 254.007812 C 163.316406 253.664062 158.394531 288.917969 178.425781 297.160156 C 178.425781 297.160156 178.425781 382.089844 178.425781 382.089844 L 144.65625 382.089844 C 120.734375 382.089844 101.390625 401.550781 101.390625 425.359375 L 101.390625 636.429688 C 101.390625 656.230469 114.78125 672.828125 132.980469 677.980469 C 117.414062 699.839844 134.699219 733.265625 162.054688 732.347656 C 188.382812 733.035156 206.125 701.902344 192.046875 679.808594 C 192.046875 679.808594 276.289062 679.808594 276.289062 679.808594 L 276.289062 689.082031 C 276.289062 713.003906 295.75 732.347656 319.558594 732.347656 L 595.296875 732.347656 C 619.222656 732.347656 638.566406 712.890625 638.566406 689.082031 L 638.566406 529.0625 C 638.566406 505.140625 619.105469 485.796875 595.296875 485.796875 L 516.664062 485.796875 L 516.664062 472.058594 C 516.664062 457.179688 504.53125 444.933594 489.648438 444.933594 L 459.316406 444.933594 L 524.558594 286.285156 C 533.71875 292.925781 539.554688 303.570312 539.898438 315.246094 C 540.128906 322.800781 549.511719 326.347656 554.777344 321.082031 C 574.121094 300.707031 608.234375 315.933594 606.972656 343.746094 C 607.433594 347.980469 611.324219 351.1875 615.445312 351.1875 C 617.734375 351.070312 619.792969 350.15625 621.511719 348.667969 C 640.742188 328.75 674.621094 342.144531 673.589844 369.957031 C 673.476562 374.652344 677.484375 378.773438 682.289062 378.65625 C 685.722656 378.65625 689.042969 376.597656 690.304688 373.164062 C 728.648438 277.128906 684.351562 166.328125 591.636719 123.175781 Z M 551.230469 503.078125 L 551.230469 714.949219 L 363.738281 714.949219 L 363.738281 503.078125 Z M 276.289062 529.0625 L 276.289062 569.125 L 118.675781 569.125 L 118.675781 485.679688 L 354.46875 485.679688 C 354.582031 485.796875 319.558594 485.679688 319.558594 485.679688 C 295.75 485.796875 276.289062 505.253906 276.289062 529.0625 Z M 183.460938 274.152344 C 183.460938 272.550781 184.71875 271.292969 186.320312 271.292969 L 287.621094 271.292969 C 289.222656 271.292969 290.484375 272.550781 290.484375 274.152344 C 290.367188 276.441406 291.398438 281.476562 287.621094 281.363281 C 287.621094 281.363281 186.320312 281.363281 186.320312 281.363281 C 182.660156 281.476562 183.460938 276.441406 183.460938 274.152344 Z M 195.707031 298.648438 L 278.007812 298.648438 L 278.007812 381.976562 L 272.285156 381.976562 L 272.285156 364.351562 C 272.285156 354.847656 264.5 347.066406 255 347.066406 L 218.257812 347.066406 C 208.757812 347.066406 200.972656 354.847656 200.972656 364.351562 L 200.972656 381.976562 L 195.707031 381.976562 Z M 218.257812 382.089844 L 218.257812 364.464844 L 254.886719 364.464844 L 254.886719 382.089844 Z M 144.65625 399.375 C 174.1875 399.375 234.167969 399.375 263.46875 399.375 C 263.8125 399.261719 328.140625 399.375 328.484375 399.375 C 342.792969 399.375 354.46875 411.050781 354.46875 425.359375 L 354.46875 468.398438 L 118.675781 468.398438 L 118.675781 425.359375 C 118.675781 411.050781 130.347656 399.375 144.65625 399.375 Z M 179.683594 697.4375 C 179.226562 720.558594 144.773438 720.558594 144.429688 697.4375 C 145 674.203125 178.996094 674.203125 179.683594 697.4375 Z M 162.511719 662.527344 C 162.171875 662.527344 161.828125 662.527344 161.484375 662.527344 L 144.65625 662.527344 C 130.347656 662.527344 118.675781 650.851562 118.675781 636.542969 L 118.675781 586.523438 L 276.289062 586.523438 L 276.289062 662.527344 Z M 293.574219 689.082031 C 293.574219 678.894531 293.574219 590.527344 293.574219 578.050781 C 293.460938 577.480469 293.574219 529.632812 293.574219 529.175781 C 293.574219 514.867188 305.25 503.195312 319.558594 503.195312 L 346.339844 503.195312 L 346.339844 715.066406 L 319.558594 715.066406 C 305.25 715.066406 293.574219 703.390625 293.574219 689.082031 Z M 621.28125 529.0625 L 621.28125 688.96875 C 621.28125 703.273438 609.605469 714.949219 595.296875 714.949219 L 568.515625 714.949219 L 568.515625 503.078125 L 595.296875 503.078125 C 609.605469 503.078125 621.28125 514.753906 621.28125 529.0625 Z M 499.265625 472.058594 L 499.265625 485.796875 L 415.589844 485.796875 L 415.589844 471.945312 C 415.476562 466.679688 420.054688 462.101562 425.320312 462.214844 C 425.320312 462.214844 489.535156 462.214844 489.535156 462.214844 C 494.914062 462.214844 499.265625 466.679688 499.265625 472.058594 Z M 388.234375 207.648438 C 379.308594 203.300781 369.464844 202.269531 360.078125 203.988281 C 393.730469 150.417969 461.035156 117.339844 524.21875 123.0625 C 485.183594 137.828125 441.6875 174.113281 409.066406 229.054688 C 404.71875 220.011719 397.621094 212.226562 388.234375 207.648438 Z M 452.792969 232.945312 C 445.007812 229.742188 436.652344 228.941406 428.640625 230.199219 C 464.925781 173.082031 512.65625 141.261719 547.796875 134.507812 C 522.042969 160.148438 494.226562 211.3125 474.996094 252.976562 C 470.191406 244.277344 462.519531 236.953125 452.792969 232.945312 Z M 523.644531 266.027344 C 512.542969 261.332031 500.292969 260.875 489.078125 263.738281 C 528.222656 176.746094 566.226562 133.933594 576.753906 135.539062 C 576.984375 135.652344 577.214844 135.652344 577.441406 135.765625 C 586.257812 141.605469 583.164062 198.835938 549.511719 288.574219 C 543.675781 278.617188 534.746094 270.605469 523.644531 266.027344 Z M 596.671875 298.648438 C 586.714844 293.953125 575.609375 293.152344 565.308594 295.785156 C 581.90625 251.144531 599.761719 190.9375 598.734375 153.28125 C 620.824219 182.695312 632.957031 242.332031 614.757812 313.984375 C 610.179688 307.574219 604.113281 302.082031 596.671875 298.648438 Z M 682.175781 341.457031 C 671.074219 324.859375 648.867188 317.761719 630.09375 324.058594 C 647.152344 261.449219 642.457031 204.214844 625.402344 165.640625 C 674.394531 208.449219 697.285156 276.554688 682.175781 341.457031 Z M 682.175781 341.457031 " fill-opacity="1" fill-rule="nonzero"/></g></svg>