<svg xmlns="http://www.w3.org/2000/svg" xmlns:xlink="http://www.w3.org/1999/xlink" width="1080" zoomAndPan="magnify" viewBox="0 0 810 809.999993" height="1080" preserveAspectRatio="xMidYMid meet" version="1.0"><defs><clipPath id="556596dd54"><path d="M 57.898438 130.496094 L 744 130.496094 L 744 574 L 57.898438 574 Z M 57.898438 130.496094 " clip-rule="nonzero"/></clipPath></defs><g clip-path="url(#556596dd54)"><path fill="#02468f" d="M 632.707031 351.976562 C 624.671875 352.070312 616.738281 353.03125 608.910156 354.863281 L 593.433594 329.25 C 595.457031 329.601562 597.496094 329.808594 599.546875 329.871094 L 632.707031 329.871094 C 633.433594 329.871094 634.152344 329.800781 634.867188 329.65625 C 635.578125 329.515625 636.269531 329.304688 636.9375 329.027344 C 637.609375 328.75 638.246094 328.410156 638.851562 328.007812 C 639.453125 327.605469 640.011719 327.144531 640.523438 326.632812 C 641.039062 326.121094 641.496094 325.5625 641.898438 324.957031 C 642.304688 324.355469 642.644531 323.71875 642.921875 323.046875 C 643.199219 322.375 643.410156 321.683594 643.550781 320.972656 C 643.691406 320.261719 643.761719 319.542969 643.761719 318.816406 L 643.761719 252.492188 C 643.761719 251.765625 643.691406 251.046875 643.550781 250.335938 C 643.410156 249.625 643.199219 248.933594 642.921875 248.261719 C 642.644531 247.589844 642.304688 246.953125 641.898438 246.351562 C 641.496094 245.746094 641.039062 245.1875 640.523438 244.675781 C 640.011719 244.160156 639.453125 243.703125 638.851562 243.300781 C 638.246094 242.898438 637.609375 242.558594 636.9375 242.277344 C 636.269531 242 635.578125 241.792969 634.867188 241.648438 C 634.152344 241.507812 633.433594 241.4375 632.707031 241.4375 L 599.546875 241.4375 C 597.28125 241.445312 595.027344 241.625 592.789062 241.976562 C 590.550781 242.332031 588.351562 242.855469 586.195312 243.546875 C 584.035156 244.238281 581.945312 245.089844 579.917969 246.105469 C 577.890625 247.121094 575.953125 248.285156 574.109375 249.597656 C 572.261719 250.910156 570.523438 252.355469 568.898438 253.9375 C 567.277344 255.519531 565.78125 257.214844 564.417969 259.023438 C 563.054688 260.835938 561.839844 262.738281 560.769531 264.738281 C 559.699219 266.734375 558.789062 268.800781 558.039062 270.941406 L 476.347656 136.214844 C 475.855469 135.402344 475.269531 134.667969 474.585938 134.003906 C 473.902344 133.34375 473.148438 132.78125 472.320312 132.316406 C 471.492188 131.851562 470.621094 131.5 469.699219 131.257812 C 468.78125 131.015625 467.847656 130.898438 466.898438 130.898438 L 378.464844 130.898438 C 377.378906 130.898438 376.296875 130.949219 375.214844 131.058594 C 374.132812 131.164062 373.0625 131.324219 371.996094 131.535156 C 370.929688 131.746094 369.878906 132.007812 368.839844 132.324219 C 367.800781 132.640625 366.777344 133.003906 365.773438 133.421875 C 364.769531 133.835938 363.789062 134.300781 362.832031 134.8125 C 361.875 135.324219 360.945312 135.882812 360.042969 136.484375 C 359.136719 137.089844 358.265625 137.734375 357.425781 138.425781 C 356.589844 139.113281 355.785156 139.84375 355.015625 140.609375 C 354.25 141.378906 353.519531 142.183594 352.832031 143.019531 C 352.140625 143.859375 351.496094 144.730469 350.890625 145.636719 C 350.289062 146.539062 349.730469 147.46875 349.21875 148.425781 C 348.707031 149.382812 348.242188 150.363281 347.828125 151.367188 C 347.410156 152.371094 347.046875 153.394531 346.730469 154.433594 C 346.414062 155.472656 346.152344 156.523438 345.941406 157.589844 C 345.730469 158.65625 345.570312 159.726562 345.464844 160.808594 C 345.355469 161.890625 345.304688 162.972656 345.304688 164.058594 C 345.304688 165.144531 345.355469 166.230469 345.464844 167.308594 C 345.570312 168.390625 345.730469 169.464844 345.941406 170.527344 C 346.152344 171.59375 346.414062 172.644531 346.730469 173.6875 C 347.046875 174.726562 347.410156 175.746094 347.828125 176.75 C 348.242188 177.753906 348.707031 178.734375 349.21875 179.691406 C 349.730469 180.648438 350.289062 181.578125 350.890625 182.484375 C 351.496094 183.386719 352.140625 184.257812 352.832031 185.097656 C 353.519531 185.9375 354.25 186.742188 355.015625 187.507812 C 355.785156 188.277344 356.589844 189.003906 357.425781 189.695312 C 358.265625 190.382812 359.136719 191.027344 360.042969 191.632812 C 360.945312 192.234375 361.875 192.792969 362.832031 193.304688 C 363.789062 193.816406 364.769531 194.28125 365.773438 194.695312 C 366.777344 195.113281 367.800781 195.476562 368.839844 195.792969 C 369.878906 196.109375 370.929688 196.371094 371.996094 196.585938 C 373.0625 196.796875 374.132812 196.957031 375.214844 197.0625 C 376.296875 197.167969 377.378906 197.222656 378.464844 197.222656 L 439.382812 197.222656 L 487.105469 274.734375 C 479.414062 274.894531 471.769531 275.597656 464.175781 276.84375 C 456.582031 278.09375 449.117188 279.871094 441.777344 282.175781 C 434.4375 284.484375 427.296875 287.296875 420.355469 290.617188 C 413.414062 293.941406 406.742188 297.734375 400.339844 302.003906 L 381.949219 314.261719 C 379.152344 316.164062 376.714844 318.445312 374.636719 321.113281 C 372.558594 323.777344 370.9375 326.695312 369.777344 329.871094 L 323.195312 329.871094 C 322.050781 329.875 320.914062 329.796875 319.78125 329.644531 C 318.648438 329.488281 317.535156 329.257812 316.433594 328.945312 C 315.335938 328.636719 314.261719 328.25 313.214844 327.789062 C 312.167969 327.332031 311.160156 326.800781 310.1875 326.199219 C 309.214844 325.597656 308.289062 324.933594 307.410156 324.203125 C 306.53125 323.472656 305.707031 322.6875 304.9375 321.839844 C 304.167969 320.996094 303.460938 320.101562 302.816406 319.160156 C 302.171875 318.214844 301.59375 317.230469 301.085938 316.207031 C 299.953125 313.917969 298.664062 311.71875 297.222656 309.609375 C 295.78125 307.5 294.199219 305.5 292.476562 303.609375 C 290.757812 301.71875 288.914062 299.960938 286.949219 298.328125 C 284.980469 296.695312 282.910156 295.207031 280.738281 293.863281 C 278.5625 292.519531 276.308594 291.335938 273.96875 290.304688 C 271.628906 289.277344 269.230469 288.414062 266.769531 287.722656 C 264.3125 287.027344 261.816406 286.507812 259.285156 286.160156 C 256.753906 285.8125 254.207031 285.644531 251.652344 285.652344 L 228.925781 285.652344 C 225.019531 285.648438 221.125 285.894531 217.25 286.390625 C 213.375 286.890625 209.546875 287.636719 205.769531 288.632812 C 201.992188 289.628906 198.292969 290.863281 194.671875 292.335938 C 191.054688 293.8125 187.546875 295.515625 184.148438 297.445312 C 180.75 299.375 177.492188 301.515625 174.371094 303.871094 C 171.253906 306.222656 168.296875 308.769531 165.507812 311.503906 C 162.71875 314.242188 160.117188 317.144531 157.707031 320.21875 C 155.292969 323.292969 153.089844 326.511719 151.09375 329.871094 L 124.222656 329.871094 C 123.496094 329.871094 122.777344 329.941406 122.066406 330.082031 C 121.351562 330.222656 120.664062 330.433594 119.992188 330.710938 C 119.320312 330.988281 118.683594 331.328125 118.082031 331.734375 C 117.476562 332.136719 116.917969 332.59375 116.40625 333.109375 C 115.890625 333.621094 115.433594 334.179688 115.03125 334.78125 C 114.628906 335.386719 114.285156 336.023438 114.007812 336.695312 C 113.730469 337.363281 113.523438 338.054688 113.378906 338.769531 C 113.238281 339.480469 113.167969 340.199219 113.167969 340.925781 L 113.167969 352.972656 C 111.257812 353.296875 109.363281 353.707031 107.488281 354.195312 C 105.613281 354.6875 103.761719 355.257812 101.9375 355.910156 C 100.113281 356.5625 98.316406 357.292969 96.558594 358.105469 C 94.796875 358.914062 93.074219 359.800781 91.390625 360.761719 C 89.707031 361.71875 88.066406 362.753906 86.472656 363.855469 C 84.878906 364.960938 83.339844 366.132812 81.847656 367.371094 C 80.355469 368.609375 78.921875 369.914062 77.546875 371.277344 C 76.167969 372.644531 74.855469 374.066406 73.601562 375.546875 C 72.351562 377.023438 71.167969 378.558594 70.046875 380.140625 C 68.929688 381.722656 67.882812 383.355469 66.910156 385.03125 C 65.933594 386.703125 65.035156 388.417969 64.207031 390.175781 C 63.382812 391.929688 62.636719 393.714844 61.96875 395.535156 C 61.300781 397.355469 60.710938 399.199219 60.207031 401.070312 C 59.699219 402.941406 59.273438 404.832031 58.933594 406.738281 C 58.59375 408.648438 58.335938 410.566406 58.164062 412.5 C 57.988281 414.429688 57.902344 416.363281 57.898438 418.300781 L 57.898438 440.410156 C 57.898438 441.136719 57.96875 441.855469 58.109375 442.566406 C 58.25 443.277344 58.460938 443.96875 58.738281 444.640625 C 59.015625 445.3125 59.355469 445.949219 59.761719 446.550781 C 60.164062 447.15625 60.621094 447.714844 61.136719 448.226562 C 61.648438 448.742188 62.207031 449.199219 62.808594 449.601562 C 63.414062 450.003906 64.050781 450.34375 64.722656 450.625 C 65.390625 450.902344 66.082031 451.109375 66.796875 451.253906 C 67.507812 451.394531 68.226562 451.464844 68.953125 451.464844 L 91.667969 451.464844 C 91.304688 455.136719 91.058594 458.816406 91.058594 462.519531 C 91.054688 465.394531 91.164062 468.265625 91.382812 471.132812 C 91.605469 474.003906 91.9375 476.855469 92.378906 479.699219 C 92.824219 482.539062 93.378906 485.359375 94.042969 488.15625 C 94.703125 490.957031 95.476562 493.726562 96.359375 496.460938 C 97.238281 499.199219 98.222656 501.898438 99.316406 504.5625 C 100.40625 507.222656 101.601562 509.835938 102.894531 512.402344 C 104.191406 514.972656 105.585938 517.484375 107.078125 519.941406 C 108.570312 522.402344 110.15625 524.796875 111.835938 527.132812 C 113.515625 529.46875 115.28125 531.734375 117.140625 533.929688 C 118.996094 536.125 120.933594 538.246094 122.957031 540.292969 C 124.980469 542.335938 127.078125 544.300781 129.253906 546.179688 C 131.429688 548.0625 133.675781 549.855469 135.992188 551.558594 C 138.308594 553.265625 140.6875 554.875 143.128906 556.394531 C 145.570312 557.914062 148.070312 559.335938 150.621094 560.660156 C 153.175781 561.984375 155.777344 563.207031 158.425781 564.328125 C 161.074219 565.449219 163.761719 566.464844 166.492188 567.375 C 169.21875 568.285156 171.976562 569.089844 174.769531 569.78125 C 177.558594 570.476562 180.375 571.0625 183.210938 571.539062 C 186.046875 572.011719 188.898438 572.375 191.761719 572.628906 C 194.628906 572.878906 197.496094 573.019531 200.375 573.046875 C 203.25 573.074219 206.121094 572.992188 208.992188 572.792969 C 211.859375 572.597656 214.71875 572.289062 217.5625 571.867188 C 220.410156 571.449219 223.234375 570.917969 226.035156 570.277344 C 228.839844 569.632812 231.613281 568.886719 234.359375 568.027344 C 237.105469 567.167969 239.8125 566.207031 242.480469 565.136719 C 245.152344 564.066406 247.777344 562.894531 250.355469 561.621094 C 252.933594 560.34375 255.457031 558.972656 257.925781 557.5 C 260.398438 556.027344 262.808594 554.460938 265.15625 552.800781 C 267.503906 551.140625 269.785156 549.390625 271.996094 547.550781 C 274.207031 545.714844 276.34375 543.792969 278.40625 541.785156 C 280.464844 539.78125 282.445312 537.695312 284.34375 535.535156 C 286.242188 533.375 288.054688 531.144531 289.777344 528.84375 L 444.789062 528.84375 C 446.675781 528.847656 448.554688 528.773438 450.4375 528.628906 C 452.316406 528.484375 454.1875 528.265625 456.046875 527.972656 C 457.910156 527.679688 459.757812 527.316406 461.589844 526.878906 C 463.425781 526.441406 465.238281 525.933594 467.03125 525.355469 C 468.824219 524.773438 470.59375 524.125 472.335938 523.40625 C 474.078125 522.6875 475.789062 521.902344 477.46875 521.050781 C 479.152344 520.199219 480.796875 519.28125 482.40625 518.296875 C 484.011719 517.316406 485.582031 516.273438 487.109375 515.167969 C 488.636719 514.0625 490.117188 512.898438 491.550781 511.679688 C 492.988281 510.457031 494.371094 509.179688 495.707031 507.851562 C 497.042969 506.519531 498.324219 505.140625 499.550781 503.710938 C 500.777344 502.277344 501.949219 500.800781 503.058594 499.28125 C 504.171875 497.757812 505.21875 496.195312 506.207031 494.589844 C 507.195312 492.984375 508.121094 491.34375 508.980469 489.664062 C 509.839844 487.988281 510.632812 486.28125 511.355469 484.539062 C 512.082031 482.800781 512.738281 481.035156 513.324219 479.242188 L 522.832031 450.347656 C 522.628906 452.1875 522.46875 454.03125 522.359375 455.878906 C 522.246094 457.730469 522.183594 459.578125 522.164062 461.429688 C 522.148438 463.28125 522.175781 465.132812 522.25 466.980469 C 522.324219 468.832031 522.445312 470.679688 522.613281 472.523438 C 522.78125 474.367188 522.996094 476.203125 523.253906 478.039062 C 523.515625 479.871094 523.820312 481.695312 524.171875 483.515625 C 524.523438 485.332031 524.921875 487.140625 525.363281 488.9375 C 525.804688 490.734375 526.292969 492.519531 526.824219 494.292969 C 527.355469 496.066406 527.933594 497.824219 528.554688 499.570312 C 529.175781 501.3125 529.839844 503.042969 530.546875 504.753906 C 531.253906 506.464844 532.003906 508.15625 532.796875 509.828125 C 533.585938 511.503906 534.421875 513.15625 535.296875 514.785156 C 536.171875 516.417969 537.089844 518.027344 538.042969 519.613281 C 539 521.195312 539.996094 522.757812 541.03125 524.292969 C 542.066406 525.828125 543.136719 527.335938 544.25 528.816406 C 545.359375 530.300781 546.507812 531.75 547.6875 533.175781 C 548.871094 534.597656 550.089844 535.992188 551.34375 537.355469 C 552.597656 538.71875 553.886719 540.046875 555.203125 541.347656 C 556.523438 542.644531 557.878906 543.90625 559.261719 545.136719 C 560.644531 546.367188 562.058594 547.5625 563.503906 548.722656 C 564.945312 549.878906 566.417969 551.003906 567.917969 552.085938 C 569.417969 553.171875 570.945312 554.21875 572.496094 555.226562 C 574.050781 556.234375 575.628906 557.203125 577.230469 558.132812 C 578.832031 559.0625 580.453125 559.949219 582.101562 560.796875 C 583.746094 561.644531 585.414062 562.453125 587.097656 563.214844 C 588.785156 563.980469 590.492188 564.699219 592.214844 565.378906 C 593.9375 566.054688 595.675781 566.691406 597.429688 567.28125 C 599.183594 567.871094 600.953125 568.417969 602.734375 568.921875 C 604.515625 569.421875 606.308594 569.878906 608.113281 570.289062 C 609.921875 570.703125 611.734375 571.070312 613.558594 571.390625 C 615.382812 571.710938 617.210938 571.984375 619.050781 572.214844 C 620.886719 572.441406 622.726562 572.625 624.574219 572.761719 C 626.421875 572.898438 628.269531 572.984375 630.121094 573.03125 C 631.972656 573.074219 633.820312 573.070312 635.671875 573.019531 C 637.523438 572.96875 639.371094 572.875 641.21875 572.730469 C 643.0625 572.589844 644.90625 572.398438 646.742188 572.164062 C 648.578125 571.929688 650.40625 571.648438 652.230469 571.320312 C 654.050781 570.992188 655.863281 570.621094 657.667969 570.203125 C 659.472656 569.785156 661.265625 569.320312 663.042969 568.8125 C 664.824219 568.304688 666.589844 567.753906 668.34375 567.15625 C 670.097656 566.558594 671.832031 565.917969 673.554688 565.234375 C 675.273438 564.550781 676.976562 563.824219 678.660156 563.050781 C 680.34375 562.28125 682.007812 561.472656 683.648438 560.617188 C 685.292969 559.765625 686.914062 558.871094 688.511719 557.9375 C 690.109375 557 691.683594 556.027344 693.230469 555.011719 C 694.78125 554 696.304688 552.945312 697.800781 551.855469 C 699.296875 550.765625 700.765625 549.640625 702.203125 548.476562 C 703.644531 547.3125 705.054688 546.113281 706.433594 544.875 C 707.8125 543.640625 709.160156 542.371094 710.476562 541.070312 C 711.789062 539.765625 713.074219 538.433594 714.320312 537.066406 C 715.570312 535.699219 716.785156 534.300781 717.960938 532.871094 C 719.140625 531.445312 720.28125 529.988281 721.386719 528.503906 C 722.492188 527.015625 723.558594 525.503906 724.589844 523.964844 C 725.617188 522.425781 726.609375 520.863281 727.558594 519.273438 C 728.507812 517.6875 729.417969 516.074219 730.289062 514.441406 C 731.15625 512.804688 731.984375 511.148438 732.773438 509.472656 C 733.558594 507.796875 734.304688 506.101562 735.003906 504.390625 C 735.707031 502.675781 736.363281 500.945312 736.976562 499.199219 C 737.59375 497.453125 738.160156 495.691406 738.6875 493.917969 C 739.214844 492.140625 739.695312 490.355469 740.128906 488.554688 C 740.566406 486.753906 740.957031 484.945312 741.300781 483.128906 C 741.648438 481.308594 741.945312 479.480469 742.199219 477.648438 C 742.453125 475.8125 742.660156 473.976562 742.820312 472.128906 C 742.984375 470.285156 743.097656 468.4375 743.164062 466.589844 C 743.234375 464.738281 743.253906 462.886719 743.230469 461.035156 C 743.207031 459.183594 743.132812 457.335938 743.015625 455.488281 C 742.898438 453.640625 742.734375 451.796875 742.523438 449.957031 C 742.3125 448.117188 742.058594 446.285156 741.753906 444.457031 C 741.453125 442.632812 741.105469 440.8125 740.710938 439.003906 C 740.316406 437.195312 739.878906 435.398438 739.394531 433.609375 C 738.910156 431.824219 738.382812 430.050781 737.808594 428.289062 C 737.234375 426.53125 736.617188 424.785156 735.957031 423.054688 C 735.296875 421.324219 734.589844 419.613281 733.84375 417.921875 C 733.097656 416.226562 732.308594 414.550781 731.476562 412.898438 C 730.644531 411.242188 729.773438 409.609375 728.859375 408 C 727.949219 406.390625 726.996094 404.804688 726.003906 403.238281 C 725.007812 401.675781 723.976562 400.140625 722.90625 398.628906 C 721.835938 397.117188 720.730469 395.636719 719.585938 394.179688 C 718.441406 392.726562 717.261719 391.300781 716.042969 389.902344 C 714.828125 388.507812 713.578125 387.144531 712.292969 385.808594 C 711.007812 384.476562 709.691406 383.175781 708.339844 381.910156 C 706.992188 380.644531 705.609375 379.410156 704.199219 378.214844 C 702.785156 377.015625 701.34375 375.855469 699.875 374.730469 C 698.402344 373.605469 696.90625 372.515625 695.382812 371.46875 C 693.855469 370.417969 692.304688 369.40625 690.730469 368.433594 C 689.152344 367.464844 687.554688 366.53125 685.933594 365.640625 C 684.308594 364.75 682.664062 363.898438 681 363.089844 C 679.335938 362.28125 677.652344 361.511719 675.945312 360.789062 C 674.242188 360.066406 672.523438 359.382812 670.785156 358.746094 C 669.046875 358.109375 667.292969 357.515625 665.523438 356.964844 C 663.757812 356.414062 661.976562 355.910156 660.183594 355.449219 C 658.390625 354.988281 656.585938 354.574219 654.773438 354.203125 C 652.957031 353.835938 651.136719 353.511719 649.304688 353.234375 C 647.476562 352.953125 645.636719 352.722656 643.796875 352.535156 C 641.953125 352.351562 640.109375 352.210938 638.257812 352.117188 C 636.410156 352.023438 634.558594 351.976562 632.707031 351.976562 Z M 599.546875 263.546875 L 621.65625 263.546875 L 621.65625 307.761719 L 599.546875 307.761719 C 598.824219 307.761719 598.101562 307.726562 597.378906 307.65625 C 596.660156 307.585938 595.945312 307.476562 595.234375 307.335938 C 594.523438 307.195312 593.820312 307.019531 593.128906 306.808594 C 592.4375 306.601562 591.753906 306.355469 591.085938 306.078125 C 590.417969 305.800781 589.761719 305.492188 589.125 305.152344 C 588.488281 304.808594 587.867188 304.4375 587.265625 304.035156 C 586.660156 303.632812 586.082031 303.203125 585.523438 302.742188 C 584.960938 302.285156 584.425781 301.796875 583.914062 301.285156 C 583.402344 300.773438 582.917969 300.238281 582.457031 299.679688 C 581.996094 299.121094 581.566406 298.539062 581.164062 297.9375 C 580.761719 297.335938 580.390625 296.714844 580.050781 296.074219 C 579.707031 295.4375 579.398438 294.785156 579.121094 294.113281 C 578.84375 293.445312 578.601562 292.765625 578.390625 292.070312 C 578.179688 291.378906 578.003906 290.675781 577.863281 289.96875 C 577.722656 289.257812 577.617188 288.542969 577.546875 287.820312 C 577.472656 287.101562 577.4375 286.378906 577.4375 285.652344 C 577.4375 284.929688 577.472656 284.207031 577.546875 283.488281 C 577.617188 282.765625 577.722656 282.050781 577.863281 281.339844 C 578.003906 280.628906 578.179688 279.929688 578.390625 279.234375 C 578.601562 278.542969 578.84375 277.863281 579.121094 277.195312 C 579.398438 276.523438 579.707031 275.871094 580.050781 275.230469 C 580.390625 274.59375 580.761719 273.972656 581.164062 273.371094 C 581.566406 272.769531 581.996094 272.1875 582.457031 271.628906 C 582.917969 271.070312 583.402344 270.53125 583.914062 270.019531 C 584.425781 269.507812 584.960938 269.023438 585.519531 268.5625 C 586.082031 268.105469 586.660156 267.675781 587.265625 267.273438 C 587.867188 266.871094 588.488281 266.496094 589.125 266.15625 C 589.761719 265.816406 590.417969 265.503906 591.085938 265.230469 C 591.753906 264.953125 592.4375 264.707031 593.128906 264.496094 C 593.820312 264.289062 594.523438 264.113281 595.234375 263.96875 C 595.945312 263.828125 596.660156 263.722656 597.378906 263.652344 C 598.101562 263.582031 598.824219 263.546875 599.546875 263.546875 Z M 445.5625 175.113281 L 378.464844 175.113281 C 377.738281 175.113281 377.019531 175.042969 376.308594 174.902344 C 375.597656 174.757812 374.90625 174.550781 374.234375 174.273438 C 373.566406 173.992188 372.925781 173.652344 372.324219 173.25 C 371.71875 172.847656 371.164062 172.390625 370.648438 171.875 C 370.136719 171.363281 369.675781 170.804688 369.273438 170.199219 C 368.871094 169.597656 368.53125 168.960938 368.253906 168.289062 C 367.976562 167.617188 367.765625 166.925781 367.625 166.214844 C 367.480469 165.503906 367.410156 164.785156 367.410156 164.058594 C 367.410156 163.332031 367.480469 162.613281 367.625 161.902344 C 367.765625 161.191406 367.976562 160.5 368.253906 159.828125 C 368.53125 159.160156 368.871094 158.519531 369.273438 157.917969 C 369.675781 157.3125 370.136719 156.757812 370.648438 156.242188 C 371.164062 155.730469 371.71875 155.269531 372.324219 154.867188 C 372.925781 154.464844 373.566406 154.125 374.234375 153.847656 C 374.90625 153.570312 375.597656 153.359375 376.308594 153.21875 C 377.019531 153.074219 377.738281 153.003906 378.464844 153.003906 L 460.675781 153.003906 L 640.855469 450.070312 C 641.027344 450.394531 641.175781 450.726562 641.304688 451.066406 C 641.429688 451.410156 641.535156 451.757812 641.621094 452.113281 C 641.703125 452.464844 641.761719 452.824219 641.796875 453.1875 C 641.835938 453.550781 641.847656 453.914062 641.839844 454.277344 C 641.828125 454.644531 641.792969 455.003906 641.738281 455.363281 C 641.679688 455.726562 641.601562 456.082031 641.5 456.429688 C 641.394531 456.78125 641.269531 457.121094 641.125 457.453125 C 640.976562 457.789062 640.808594 458.113281 640.621094 458.421875 C 640.433594 458.734375 640.226562 459.035156 639.996094 459.320312 C 639.769531 459.605469 639.527344 459.875 639.265625 460.128906 C 639.003906 460.382812 638.726562 460.617188 638.433594 460.835938 C 638.140625 461.054688 637.835938 461.25 637.519531 461.429688 C 637.203125 461.609375 636.875 461.765625 636.535156 461.902344 C 636.199219 462.039062 635.851562 462.152344 635.5 462.246094 C 635.148438 462.335938 634.789062 462.40625 634.429688 462.453125 C 634.066406 462.496094 633.703125 462.519531 633.339844 462.519531 C 632.523438 462.5 631.726562 462.371094 630.945312 462.128906 C 630.167969 461.886719 629.4375 461.542969 628.753906 461.097656 C 628.070312 460.652344 627.460938 460.125 626.925781 459.507812 C 626.390625 458.894531 625.949219 458.214844 625.601562 457.476562 L 454.96875 180.375 C 454.476562 179.570312 453.890625 178.84375 453.207031 178.191406 C 452.527344 177.539062 451.773438 176.980469 450.953125 176.519531 C 450.128906 176.058594 449.261719 175.710938 448.347656 175.472656 C 447.433594 175.234375 446.507812 175.113281 445.5625 175.113281 Z M 592.085938 445.253906 L 606.398438 468.464844 C 606.875 469.355469 607.390625 470.21875 607.949219 471.058594 C 608.511719 471.898438 609.109375 472.707031 609.75 473.488281 C 610.390625 474.265625 611.066406 475.011719 611.78125 475.722656 C 612.492188 476.4375 613.242188 477.113281 614.019531 477.75 C 614.800781 478.390625 615.613281 478.988281 616.453125 479.546875 C 617.289062 480.105469 618.15625 480.621094 619.046875 481.09375 C 619.9375 481.566406 620.847656 481.992188 621.78125 482.375 C 622.714844 482.757812 623.664062 483.09375 624.632812 483.382812 C 625.597656 483.671875 626.574219 483.910156 627.566406 484.101562 C 628.554688 484.292969 629.554688 484.4375 630.558594 484.53125 C 631.5625 484.621094 632.566406 484.664062 633.574219 484.660156 C 634.585938 484.652344 635.589844 484.597656 636.59375 484.492188 C 637.59375 484.382812 638.589844 484.230469 639.578125 484.023438 C 640.566406 483.820312 641.539062 483.566406 642.503906 483.265625 C 643.464844 482.964844 644.410156 482.617188 645.339844 482.222656 C 646.265625 481.828125 647.171875 481.386719 648.054688 480.902344 C 648.941406 480.417969 649.800781 479.890625 650.632812 479.324219 C 651.464844 478.753906 652.265625 478.144531 653.039062 477.496094 C 653.808594 476.847656 654.546875 476.160156 655.253906 475.441406 C 655.957031 474.71875 656.625 473.964844 657.253906 473.175781 C 657.882812 472.386719 658.472656 471.570312 659.019531 470.726562 C 659.570312 469.878906 660.074219 469.007812 660.535156 468.113281 C 661 467.214844 661.417969 466.300781 661.789062 465.363281 C 662.160156 464.425781 662.484375 463.46875 662.761719 462.5 C 663.039062 461.53125 663.269531 460.550781 663.449219 459.558594 C 663.628906 458.566406 663.757812 457.566406 663.839844 456.5625 C 663.921875 455.558594 663.953125 454.550781 663.933594 453.542969 C 663.917969 452.535156 663.847656 451.53125 663.730469 450.527344 C 663.613281 449.527344 663.445312 448.535156 663.230469 447.546875 C 663.015625 446.5625 662.75 445.589844 662.4375 444.632812 C 662.125 443.675781 661.769531 442.734375 661.363281 441.808594 C 660.957031 440.886719 660.507812 439.984375 660.011719 439.105469 L 649.402344 421.617188 C 650.753906 422.164062 652.078125 422.773438 653.371094 423.449219 C 654.664062 424.125 655.917969 424.863281 657.140625 425.664062 C 658.359375 426.464844 659.539062 427.324219 660.671875 428.238281 C 661.808594 429.15625 662.894531 430.125 663.933594 431.148438 C 664.976562 432.171875 665.960938 433.246094 666.894531 434.367188 C 667.828125 435.488281 668.707031 436.652344 669.523438 437.859375 C 670.34375 439.066406 671.101562 440.3125 671.796875 441.59375 C 672.492188 442.878906 673.125 444.191406 673.691406 445.535156 C 674.257812 446.878906 674.753906 448.25 675.1875 449.644531 C 675.617188 451.035156 675.980469 452.449219 676.269531 453.878906 C 676.5625 455.308594 676.78125 456.75 676.933594 458.199219 C 677.082031 459.652344 677.160156 461.105469 677.164062 462.566406 C 677.171875 464.023438 677.105469 465.480469 676.96875 466.933594 C 676.828125 468.386719 676.621094 469.828125 676.339844 471.257812 C 676.058594 472.691406 675.710938 474.105469 675.289062 475.503906 C 674.871094 476.898438 674.382812 478.273438 673.828125 479.621094 C 673.269531 480.972656 672.652344 482.289062 671.964844 483.578125 C 671.277344 484.867188 670.53125 486.117188 669.722656 487.332031 C 668.914062 488.546875 668.046875 489.714844 667.121094 490.84375 C 666.195312 491.972656 665.21875 493.054688 664.1875 494.085938 C 663.15625 495.117188 662.078125 496.097656 660.949219 497.023438 C 659.820312 497.949219 658.648438 498.816406 657.4375 499.625 C 656.222656 500.433594 654.972656 501.183594 653.683594 501.867188 C 652.398438 502.554688 651.078125 503.175781 649.730469 503.734375 C 648.378906 504.289062 647.007812 504.777344 645.609375 505.199219 C 644.214844 505.617188 642.800781 505.96875 641.367188 506.25 C 639.933594 506.53125 638.492188 506.742188 637.042969 506.878906 C 635.589844 507.019531 634.132812 507.085938 632.675781 507.082031 C 631.214844 507.074219 629.757812 507 628.308594 506.851562 C 626.855469 506.699219 625.417969 506.480469 623.988281 506.191406 C 622.554688 505.898438 621.144531 505.539062 619.75 505.109375 C 618.355469 504.679688 616.988281 504.179688 615.640625 503.613281 C 614.296875 503.050781 612.984375 502.417969 611.699219 501.722656 C 610.417969 501.027344 609.171875 500.273438 607.964844 499.453125 C 606.757812 498.636719 605.589844 497.757812 604.46875 496.828125 C 603.347656 495.894531 602.273438 494.90625 601.25 493.867188 C 600.226562 492.828125 599.257812 491.742188 598.339844 490.605469 C 597.421875 489.472656 596.5625 488.292969 595.761719 487.074219 C 594.960938 485.855469 594.222656 484.597656 593.546875 483.304688 C 592.871094 482.015625 592.257812 480.691406 591.710938 479.339844 C 591.167969 477.984375 590.6875 476.609375 590.277344 475.207031 C 589.867188 473.808594 589.527344 472.390625 589.257812 470.957031 C 588.988281 469.523438 588.789062 468.078125 588.660156 466.625 C 588.53125 465.171875 588.476562 463.71875 588.492188 462.257812 C 588.507812 460.800781 588.597656 459.34375 588.753906 457.894531 C 588.914062 456.445312 589.144531 455.003906 589.449219 453.578125 C 589.75 452.148438 590.121094 450.742188 590.5625 449.351562 C 591 447.960938 591.507812 446.59375 592.085938 445.253906 Z M 394.21875 332.65625 L 412.613281 320.398438 C 418.367188 316.550781 424.375 313.148438 430.632812 310.1875 C 436.890625 307.230469 443.335938 304.746094 449.960938 302.738281 C 456.585938 300.734375 463.324219 299.226562 470.171875 298.214844 C 477.019531 297.203125 483.90625 296.699219 490.828125 296.707031 C 491.4375 296.707031 492.035156 296.769531 492.628906 296.886719 C 493.222656 297.003906 493.800781 297.179688 494.359375 297.414062 C 494.921875 297.644531 495.453125 297.929688 495.957031 298.265625 C 496.460938 298.605469 496.925781 298.984375 497.351562 299.414062 C 497.78125 299.84375 498.164062 300.308594 498.5 300.8125 C 498.839844 301.316406 499.121094 301.847656 499.355469 302.40625 C 499.585938 302.96875 499.761719 303.542969 499.882812 304.136719 C 500 304.730469 500.058594 305.332031 500.058594 305.9375 L 500.058594 329.871094 C 500.058594 330.59375 500.023438 331.316406 499.953125 332.039062 C 499.882812 332.757812 499.777344 333.472656 499.636719 334.183594 C 499.492188 334.894531 499.316406 335.59375 499.109375 336.289062 C 498.898438 336.980469 498.65625 337.660156 498.378906 338.332031 C 498.101562 339 497.789062 339.652344 497.449219 340.292969 C 497.109375 340.929688 496.738281 341.550781 496.335938 342.152344 C 495.933594 342.753906 495.5 343.335938 495.042969 343.894531 C 494.582031 344.457031 494.097656 344.992188 493.585938 345.503906 C 493.074219 346.015625 492.535156 346.5 491.976562 346.960938 C 491.417969 347.417969 490.835938 347.851562 490.234375 348.253906 C 489.632812 348.65625 489.011719 349.027344 488.375 349.367188 C 487.734375 349.710938 487.082031 350.019531 486.414062 350.296875 C 485.742188 350.574219 485.0625 350.816406 484.371094 351.027344 C 483.675781 351.238281 482.976562 351.414062 482.265625 351.554688 C 481.554688 351.695312 480.839844 351.800781 480.117188 351.871094 C 479.398438 351.941406 478.675781 351.976562 477.953125 351.976562 L 400.066406 351.976562 C 399.503906 351.976562 398.945312 351.933594 398.390625 351.84375 C 397.832031 351.753906 397.289062 351.621094 396.753906 351.445312 C 396.222656 351.269531 395.703125 351.050781 395.207031 350.792969 C 394.707031 350.535156 394.230469 350.238281 393.78125 349.902344 C 393.328125 349.566406 392.90625 349.199219 392.511719 348.792969 C 392.121094 348.390625 391.761719 347.960938 391.4375 347.5 C 391.113281 347.042969 390.832031 346.558594 390.582031 346.054688 C 390.335938 345.546875 390.132812 345.027344 389.96875 344.488281 C 389.808594 343.949219 389.6875 343.402344 389.613281 342.84375 C 389.539062 342.285156 389.507812 341.726562 389.519531 341.164062 C 389.535156 340.601562 389.59375 340.046875 389.699219 339.492188 C 389.800781 338.941406 389.949219 338.398438 390.136719 337.871094 C 390.328125 337.339844 390.558594 336.828125 390.832031 336.335938 C 391.101562 335.84375 391.410156 335.378906 391.757812 334.933594 C 392.105469 334.492188 392.484375 334.078125 392.898438 333.695312 C 393.308594 333.316406 393.75 332.96875 394.21875 332.65625 Z M 400.574219 484.628906 C 400.574219 483.902344 400.609375 483.179688 400.679688 482.460938 C 400.75 481.738281 400.855469 481.023438 401 480.3125 C 401.140625 479.605469 401.316406 478.902344 401.527344 478.210938 C 401.734375 477.515625 401.980469 476.835938 402.257812 476.167969 C 402.535156 475.496094 402.84375 474.84375 403.183594 474.207031 C 403.523438 473.566406 403.898438 472.945312 404.300781 472.34375 C 404.703125 471.742188 405.132812 471.160156 405.59375 470.601562 C 406.050781 470.042969 406.535156 469.507812 407.050781 468.996094 C 407.5625 468.480469 408.097656 467.996094 408.65625 467.539062 C 409.214844 467.078125 409.796875 466.648438 410.398438 466.246094 C 411 465.84375 411.621094 465.472656 412.261719 465.128906 C 412.898438 464.789062 413.550781 464.480469 414.222656 464.203125 C 414.890625 463.925781 415.570312 463.679688 416.265625 463.472656 C 416.957031 463.261719 417.660156 463.085938 418.367188 462.945312 C 419.078125 462.800781 419.792969 462.695312 420.515625 462.625 C 421.234375 462.554688 421.957031 462.519531 422.683594 462.519531 C 423.40625 462.519531 424.128906 462.554688 424.847656 462.625 C 425.570312 462.695312 426.285156 462.800781 426.996094 462.945312 C 427.703125 463.085938 428.40625 463.261719 429.097656 463.472656 C 429.792969 463.679688 430.472656 463.925781 431.140625 464.203125 C 431.8125 464.480469 432.464844 464.789062 433.101562 465.128906 C 433.742188 465.472656 434.363281 465.84375 434.964844 466.246094 C 435.566406 466.648438 436.148438 467.078125 436.707031 467.539062 C 437.265625 467.996094 437.800781 468.480469 438.316406 468.996094 C 438.828125 469.507812 439.3125 470.042969 439.769531 470.601562 C 440.230469 471.160156 440.660156 471.742188 441.0625 472.34375 C 441.464844 472.945312 441.839844 473.566406 442.179688 474.207031 C 442.519531 474.84375 442.828125 475.496094 443.105469 476.167969 C 443.382812 476.835938 443.628906 477.515625 443.835938 478.210938 C 444.046875 478.902344 444.222656 479.605469 444.363281 480.3125 C 444.507812 481.023438 444.613281 481.738281 444.683594 482.460938 C 444.753906 483.179688 444.789062 483.902344 444.789062 484.628906 C 444.789062 485.351562 444.753906 486.074219 444.683594 486.792969 C 444.613281 487.515625 444.507812 488.230469 444.363281 488.941406 C 444.222656 489.648438 444.046875 490.351562 443.835938 491.042969 C 443.628906 491.738281 443.382812 492.417969 443.105469 493.085938 C 442.828125 493.757812 442.519531 494.410156 442.179688 495.046875 C 441.839844 495.6875 441.464844 496.308594 441.0625 496.910156 C 440.660156 497.511719 440.230469 498.09375 439.769531 498.652344 C 439.3125 499.210938 438.828125 499.746094 438.316406 500.261719 C 437.800781 500.773438 437.265625 501.257812 436.707031 501.71875 C 436.148438 502.175781 435.566406 502.605469 434.964844 503.007812 C 434.363281 503.410156 433.742188 503.785156 433.101562 504.125 C 432.464844 504.464844 431.8125 504.773438 431.140625 505.050781 C 430.472656 505.328125 429.792969 505.574219 429.097656 505.78125 C 428.40625 505.992188 427.703125 506.167969 426.996094 506.308594 C 426.285156 506.453125 425.570312 506.558594 424.847656 506.628906 C 424.128906 506.699219 423.40625 506.734375 422.683594 506.734375 C 421.957031 506.734375 421.234375 506.699219 420.515625 506.628906 C 419.792969 506.558594 419.078125 506.453125 418.367188 506.308594 C 417.660156 506.167969 416.957031 505.992188 416.265625 505.78125 C 415.570312 505.574219 414.890625 505.328125 414.222656 505.050781 C 413.550781 504.773438 412.898438 504.464844 412.261719 504.125 C 411.621094 503.785156 411 503.410156 410.398438 503.007812 C 409.796875 502.605469 409.214844 502.175781 408.65625 501.71875 C 408.097656 501.257812 407.5625 500.773438 407.050781 500.261719 C 406.535156 499.746094 406.050781 499.210938 405.59375 498.652344 C 405.132812 498.09375 404.703125 497.511719 404.300781 496.910156 C 403.898438 496.308594 403.523438 495.6875 403.183594 495.046875 C 402.84375 494.410156 402.535156 493.757812 402.257812 493.085938 C 401.980469 492.417969 401.734375 491.738281 401.527344 491.042969 C 401.316406 490.351562 401.140625 489.648438 401 488.941406 C 400.855469 488.230469 400.75 487.515625 400.679688 486.792969 C 400.609375 486.074219 400.574219 485.351562 400.574219 484.628906 Z M 433.734375 385.140625 C 433.28125 390.890625 432.117188 396.496094 430.246094 401.949219 C 428.375 407.40625 425.851562 412.542969 422.683594 417.363281 C 419.511719 412.542969 416.988281 407.40625 415.117188 401.949219 C 413.246094 396.496094 412.082031 390.890625 411.628906 385.140625 C 411.628906 384.414062 411.699219 383.695312 411.839844 382.984375 C 411.980469 382.273438 412.191406 381.582031 412.46875 380.910156 C 412.746094 380.238281 413.085938 379.601562 413.492188 379 C 413.894531 378.394531 414.351562 377.835938 414.867188 377.324219 C 415.378906 376.8125 415.9375 376.351562 416.539062 375.949219 C 417.144531 375.546875 417.78125 375.207031 418.453125 374.929688 C 419.121094 374.648438 419.8125 374.441406 420.523438 374.296875 C 421.238281 374.15625 421.957031 374.085938 422.683594 374.085938 C 423.40625 374.085938 424.125 374.15625 424.839844 374.296875 C 425.550781 374.441406 426.242188 374.648438 426.910156 374.929688 C 427.582031 375.207031 428.21875 375.546875 428.824219 375.949219 C 429.425781 376.351562 429.984375 376.8125 430.5 377.324219 C 431.011719 377.835938 431.46875 378.394531 431.871094 379 C 432.277344 379.601562 432.617188 380.238281 432.894531 380.910156 C 433.171875 381.582031 433.382812 382.273438 433.523438 382.984375 C 433.664062 383.695312 433.734375 384.414062 433.734375 385.140625 Z M 411.628906 436.707031 L 411.628906 441.980469 C 405.824219 443.480469 400.546875 446.058594 395.796875 449.71875 L 365.132812 397.1875 C 366.75 396.394531 368.449219 395.71875 369.976562 394.824219 L 389.675781 383.570312 C 389.675781 384.101562 389.519531 384.597656 389.519531 385.140625 C 389.519531 395.707031 396.503906 426.128906 411.628906 436.707031 Z M 449.566406 449.773438 C 444.816406 446.113281 439.542969 443.53125 433.734375 442.035156 L 433.734375 436.761719 C 448.859375 426.183594 455.84375 395.761719 455.84375 385.195312 C 455.808594 381.394531 455.128906 377.707031 453.808594 374.140625 L 458.441406 374.140625 L 484.894531 389.253906 Z M 228.925781 307.761719 L 251.652344 307.761719 C 253.1875 307.757812 254.710938 307.859375 256.230469 308.066406 C 257.75 308.273438 259.246094 308.585938 260.722656 309.003906 C 262.195312 309.421875 263.636719 309.9375 265.039062 310.554688 C 266.441406 311.171875 267.796875 311.882812 269.101562 312.6875 C 270.40625 313.496094 271.644531 314.386719 272.824219 315.367188 C 274.003906 316.34375 275.113281 317.402344 276.144531 318.535156 C 277.175781 319.667969 278.125 320.867188 278.992188 322.132812 C 279.855469 323.398438 280.628906 324.714844 281.3125 326.089844 C 282.273438 328.03125 283.363281 329.894531 284.585938 331.683594 C 285.804688 333.46875 287.144531 335.164062 288.605469 336.765625 C 290.0625 338.367188 291.625 339.859375 293.289062 341.242188 C 294.957031 342.625 296.710938 343.886719 298.550781 345.023438 C 300.394531 346.164062 302.304688 347.167969 304.285156 348.039062 C 306.269531 348.910156 308.300781 349.640625 310.386719 350.226562 C 312.46875 350.816406 314.582031 351.257812 316.730469 351.550781 C 318.875 351.84375 321.03125 351.984375 323.195312 351.976562 L 369.3125 351.976562 C 371.015625 356.996094 373.773438 361.339844 377.59375 365.011719 L 359.011719 375.632812 C 353.554688 378.746094 347.792969 381.105469 341.722656 382.71875 C 335.652344 384.328125 329.476562 385.136719 323.195312 385.140625 L 280.285156 385.140625 C 276.429688 381.234375 272.3125 377.636719 267.925781 374.339844 L 267.925781 340.925781 C 267.925781 340.199219 267.855469 339.480469 267.710938 338.769531 C 267.570312 338.054688 267.359375 337.363281 267.082031 336.695312 C 266.804688 336.023438 266.464844 335.386719 266.0625 334.78125 C 265.660156 334.179688 265.199219 333.621094 264.6875 333.109375 C 264.175781 332.59375 263.617188 332.136719 263.011719 331.734375 C 262.410156 331.328125 261.769531 330.988281 261.101562 330.710938 C 260.429688 330.433594 259.738281 330.222656 259.027344 330.082031 C 258.316406 329.941406 257.597656 329.871094 256.871094 329.871094 L 178.308594 329.871094 C 179.914062 328.125 181.609375 326.46875 183.386719 324.902344 C 185.164062 323.332031 187.019531 321.859375 188.949219 320.484375 C 190.878906 319.109375 192.875 317.835938 194.9375 316.667969 C 197 315.5 199.121094 314.441406 201.292969 313.492188 C 203.464844 312.542969 205.679688 311.707031 207.941406 310.988281 C 210.199219 310.269531 212.488281 309.671875 214.8125 309.1875 C 217.132812 308.707031 219.472656 308.347656 221.832031 308.109375 C 224.191406 307.871094 226.554688 307.753906 228.925781 307.761719 Z M 267.925781 462.519531 C 267.886719 454.105469 266.289062 446 263.136719 438.199219 C 263.863281 437.710938 264.519531 437.140625 265.109375 436.492188 C 265.695312 435.84375 266.199219 435.136719 266.617188 434.367188 C 267.03125 433.59375 267.351562 432.785156 267.574219 431.941406 C 267.792969 431.09375 267.910156 430.230469 267.925781 429.355469 L 267.925781 404.085938 C 271.457031 408.085938 274.597656 412.371094 277.355469 416.941406 C 280.109375 421.511719 282.429688 426.292969 284.316406 431.28125 C 286.207031 436.273438 287.628906 441.394531 288.589844 446.640625 C 289.550781 451.890625 290.03125 457.183594 290.03125 462.519531 Z M 234.761719 462.519531 C 234.035156 462.519531 233.316406 462.589844 232.605469 462.730469 C 231.894531 462.871094 231.203125 463.082031 230.53125 463.359375 C 229.863281 463.636719 229.226562 463.980469 228.621094 464.382812 C 228.019531 464.785156 227.460938 465.242188 226.945312 465.757812 C 226.433594 466.269531 225.976562 466.828125 225.570312 467.433594 C 225.167969 468.035156 224.828125 468.671875 224.550781 469.34375 C 224.273438 470.011719 224.0625 470.703125 223.921875 471.417969 C 223.78125 472.128906 223.707031 472.847656 223.707031 473.574219 L 223.707031 500.6875 C 220.359375 502.660156 216.808594 504.160156 213.058594 505.1875 C 209.308594 506.214844 205.488281 506.730469 201.601562 506.734375 C 200.152344 506.734375 198.707031 506.664062 197.265625 506.523438 C 195.824219 506.378906 194.394531 506.167969 192.972656 505.886719 C 191.554688 505.601562 190.152344 505.25 188.765625 504.832031 C 187.378906 504.410156 186.015625 503.921875 184.679688 503.371094 C 183.339844 502.816406 182.035156 502.195312 180.757812 501.515625 C 179.480469 500.832031 178.238281 500.089844 177.035156 499.285156 C 175.832031 498.480469 174.667969 497.617188 173.550781 496.699219 C 172.429688 495.78125 171.359375 494.808594 170.335938 493.785156 C 169.3125 492.761719 168.339844 491.6875 167.421875 490.570312 C 166.503906 489.449219 165.640625 488.289062 164.835938 487.085938 C 164.03125 485.878906 163.289062 484.640625 162.605469 483.363281 C 161.921875 482.085938 161.304688 480.777344 160.75 479.441406 C 160.195312 478.101562 159.707031 476.738281 159.289062 475.355469 C 158.867188 473.96875 158.515625 472.566406 158.234375 471.144531 C 157.953125 469.726562 157.738281 468.292969 157.597656 466.851562 C 157.457031 465.410156 157.382812 463.96875 157.382812 462.519531 C 157.386719 458.632812 157.902344 454.8125 158.925781 451.0625 C 159.949219 447.3125 161.449219 443.761719 163.417969 440.410156 L 239.78125 440.410156 C 241.753906 443.761719 243.25 447.3125 244.273438 451.0625 C 245.296875 454.8125 245.8125 458.632812 245.816406 462.519531 Z M 135.277344 394.160156 C 138.84375 395.480469 142.527344 396.15625 146.328125 396.195312 L 234.761719 396.195312 C 238.566406 396.15625 242.25 395.480469 245.816406 394.160156 L 245.816406 418.300781 L 135.277344 418.300781 Z M 135.277344 351.976562 L 245.816406 351.976562 L 245.816406 363.03125 C 245.816406 363.757812 245.746094 364.476562 245.605469 365.1875 C 245.460938 365.902344 245.253906 366.59375 244.976562 367.261719 C 244.699219 367.933594 244.355469 368.570312 243.953125 369.171875 C 243.550781 369.777344 243.09375 370.335938 242.578125 370.847656 C 242.066406 371.363281 241.507812 371.820312 240.902344 372.222656 C 240.300781 372.625 239.664062 372.96875 238.992188 373.246094 C 238.320312 373.523438 237.632812 373.730469 236.917969 373.875 C 236.207031 374.015625 235.488281 374.085938 234.761719 374.085938 L 146.328125 374.085938 C 145.605469 374.085938 144.886719 374.015625 144.171875 373.875 C 143.460938 373.730469 142.769531 373.523438 142.101562 373.246094 C 141.429688 372.96875 140.792969 372.625 140.1875 372.222656 C 139.585938 371.820312 139.027344 371.363281 138.511719 370.847656 C 138 370.335938 137.542969 369.777344 137.140625 369.171875 C 136.734375 368.570312 136.394531 367.933594 136.117188 367.261719 C 135.839844 366.59375 135.628906 365.902344 135.488281 365.1875 C 135.347656 364.476562 135.277344 363.757812 135.277344 363.03125 Z M 80.003906 429.355469 L 80.003906 418.300781 C 80.011719 417.089844 80.0625 415.882812 80.167969 414.675781 C 80.273438 413.46875 80.425781 412.265625 80.628906 411.074219 C 80.832031 409.878906 81.082031 408.695312 81.382812 407.519531 C 81.683594 406.347656 82.03125 405.1875 82.425781 404.042969 C 82.820312 402.898438 83.261719 401.769531 83.75 400.660156 C 84.238281 399.550781 84.769531 398.464844 85.347656 397.402344 C 85.925781 396.335938 86.542969 395.296875 87.207031 394.28125 C 87.871094 393.265625 88.574219 392.28125 89.316406 391.324219 C 90.058594 390.371094 90.839844 389.445312 91.660156 388.554688 C 92.480469 387.660156 93.335938 386.804688 94.226562 385.984375 C 95.117188 385.160156 96.039062 384.375 96.992188 383.628906 C 97.945312 382.882812 98.929688 382.179688 99.941406 381.515625 C 100.957031 380.847656 101.992188 380.226562 103.058594 379.644531 C 104.121094 379.066406 105.207031 378.53125 106.3125 378.039062 C 107.421875 377.550781 108.546875 377.105469 109.691406 376.707031 C 110.835938 376.308594 111.996094 375.957031 113.167969 375.65625 L 113.167969 396.359375 C 105.660156 406.398438 100.027344 417.398438 96.265625 429.355469 Z M 201.601562 550.953125 C 199.886719 550.957031 198.175781 550.910156 196.464844 550.816406 C 194.753906 550.722656 193.046875 550.578125 191.347656 550.382812 C 189.644531 550.1875 187.949219 549.945312 186.261719 549.652344 C 184.574219 549.359375 182.894531 549.015625 181.226562 548.625 C 179.558594 548.234375 177.902344 547.796875 176.261719 547.308594 C 174.617188 546.820312 172.992188 546.285156 171.378906 545.703125 C 169.769531 545.121094 168.175781 544.496094 166.601562 543.820312 C 165.027344 543.144531 163.472656 542.425781 161.941406 541.660156 C 160.410156 540.894531 158.898438 540.082031 157.414062 539.230469 C 155.929688 538.375 154.46875 537.480469 153.035156 536.542969 C 151.601562 535.601562 150.199219 534.625 148.820312 533.601562 C 147.445312 532.582031 146.101562 531.523438 144.785156 530.425781 C 143.472656 529.324219 142.191406 528.1875 140.941406 527.015625 C 139.695312 525.84375 138.480469 524.632812 137.304688 523.390625 C 136.125 522.144531 134.984375 520.867188 133.882812 519.558594 C 132.78125 518.246094 131.714844 516.90625 130.691406 515.53125 C 129.664062 514.160156 128.679688 512.757812 127.738281 511.328125 C 126.792969 509.898438 125.894531 508.441406 125.035156 506.957031 C 124.175781 505.476562 123.363281 503.96875 122.589844 502.441406 C 121.820312 500.910156 121.09375 499.359375 120.414062 497.785156 C 119.734375 496.214844 119.101562 494.621094 118.511719 493.011719 C 117.925781 491.40625 117.386719 489.78125 116.894531 488.136719 C 116.398438 486.496094 115.957031 484.84375 115.558594 483.175781 C 115.164062 481.511719 114.816406 479.832031 114.515625 478.148438 C 114.21875 476.460938 113.96875 474.765625 113.769531 473.0625 C 113.570312 471.363281 113.417969 469.65625 113.316406 467.945312 C 113.21875 466.238281 113.167969 464.523438 113.164062 462.8125 C 113.164062 461.097656 113.214844 459.386719 113.3125 457.675781 C 113.414062 455.964844 113.5625 454.261719 113.757812 452.558594 C 113.957031 450.855469 114.207031 449.164062 114.503906 447.476562 C 114.800781 445.789062 115.144531 444.109375 115.542969 442.445312 C 115.9375 440.777344 116.378906 439.121094 116.871094 437.480469 C 117.867188 438.414062 119.003906 439.132812 120.269531 439.636719 C 121.539062 440.144531 122.855469 440.402344 124.222656 440.410156 L 139.121094 440.410156 C 138.585938 441.898438 138.101562 443.40625 137.671875 444.929688 C 137.242188 446.453125 136.871094 447.988281 136.550781 449.539062 C 136.234375 451.089844 135.96875 452.648438 135.761719 454.21875 C 135.558594 455.785156 135.40625 457.363281 135.3125 458.941406 C 135.21875 460.519531 135.183594 462.101562 135.203125 463.683594 C 135.226562 465.269531 135.300781 466.847656 135.4375 468.425781 C 135.570312 470 135.761719 471.570312 136.007812 473.132812 C 136.253906 474.699219 136.558594 476.25 136.917969 477.792969 C 137.277344 479.332031 137.6875 480.859375 138.15625 482.371094 C 138.625 483.882812 139.148438 485.375 139.722656 486.851562 C 140.300781 488.324219 140.929688 489.777344 141.609375 491.203125 C 142.289062 492.632812 143.019531 494.035156 143.800781 495.414062 C 144.582031 496.789062 145.410156 498.136719 146.289062 499.453125 C 147.167969 500.769531 148.089844 502.054688 149.0625 503.304688 C 150.03125 504.554688 151.046875 505.765625 152.105469 506.945312 C 153.160156 508.121094 154.257812 509.261719 155.398438 510.359375 C 156.539062 511.457031 157.714844 512.511719 158.929688 513.527344 C 160.148438 514.539062 161.398438 515.507812 162.683594 516.433594 C 163.96875 517.355469 165.285156 518.234375 166.632812 519.0625 C 167.980469 519.890625 169.355469 520.671875 170.761719 521.402344 C 172.164062 522.132812 173.59375 522.808594 175.046875 523.4375 C 176.5 524.0625 177.972656 524.640625 179.46875 525.160156 C 180.960938 525.679688 182.472656 526.148438 184 526.5625 C 185.527344 526.972656 187.070312 527.332031 188.621094 527.632812 C 190.175781 527.933594 191.738281 528.179688 193.308594 528.371094 C 194.882812 528.558594 196.457031 528.691406 198.039062 528.769531 C 199.617188 528.84375 201.199219 528.863281 202.78125 528.828125 C 204.363281 528.789062 205.941406 528.695312 207.519531 528.542969 C 209.09375 528.390625 210.660156 528.183594 212.222656 527.921875 C 213.78125 527.65625 215.332031 527.335938 216.871094 526.960938 C 218.40625 526.585938 219.929688 526.15625 221.4375 525.671875 C 222.941406 525.1875 224.429688 524.648438 225.898438 524.058594 C 226.386719 524.785156 226.957031 525.441406 227.609375 526.03125 C 228.257812 526.621094 228.96875 527.125 229.742188 527.539062 C 230.511719 527.957031 231.324219 528.277344 232.171875 528.496094 C 233.023438 528.71875 233.886719 528.832031 234.761719 528.84375 L 260.011719 528.84375 C 256.011719 532.375 251.730469 535.519531 247.160156 538.273438 C 242.59375 541.027344 237.816406 543.351562 232.828125 545.238281 C 227.839844 547.128906 222.71875 548.550781 217.472656 549.511719 C 212.226562 550.472656 206.933594 550.953125 201.601562 550.953125 Z M 323.195312 506.734375 L 245.816406 506.734375 L 245.816406 484.628906 L 323.195312 484.628906 C 323.921875 484.628906 324.640625 484.699219 325.351562 484.839844 C 326.0625 484.980469 326.753906 485.191406 327.425781 485.46875 C 328.097656 485.746094 328.734375 486.085938 329.335938 486.488281 C 329.941406 486.894531 330.5 487.351562 331.011719 487.863281 C 331.523438 488.378906 331.984375 488.9375 332.386719 489.539062 C 332.789062 490.144531 333.128906 490.78125 333.40625 491.449219 C 333.683594 492.121094 333.894531 492.8125 334.035156 493.523438 C 334.179688 494.238281 334.25 494.957031 334.25 495.679688 C 334.25 496.40625 334.179688 497.125 334.035156 497.835938 C 333.894531 498.550781 333.683594 499.242188 333.40625 499.910156 C 333.128906 500.582031 332.789062 501.21875 332.386719 501.824219 C 331.984375 502.425781 331.523438 502.984375 331.011719 503.496094 C 330.5 504.011719 329.941406 504.46875 329.335938 504.871094 C 328.734375 505.277344 328.097656 505.617188 327.425781 505.894531 C 326.753906 506.171875 326.0625 506.382812 325.351562 506.523438 C 324.640625 506.664062 323.921875 506.734375 323.195312 506.734375 Z M 323.195312 462.519531 L 312.140625 462.519531 C 312.128906 457.683594 311.800781 452.871094 311.160156 448.082031 C 310.515625 443.289062 309.558594 438.558594 308.292969 433.894531 C 307.03125 429.226562 305.464844 424.664062 303.597656 420.207031 C 301.734375 415.746094 299.585938 411.425781 297.152344 407.25 L 323.195312 407.25 C 330.207031 407.191406 337.128906 406.363281 343.953125 404.761719 L 381.449219 469.03125 C 380.847656 470.550781 380.335938 472.101562 379.914062 473.679688 C 379.492188 475.261719 379.160156 476.859375 378.921875 478.476562 C 378.683594 480.09375 378.539062 481.722656 378.484375 483.355469 C 378.433594 484.992188 378.476562 486.625 378.613281 488.253906 C 378.75 489.882812 378.980469 491.5 379.304688 493.101562 C 379.625 494.707031 380.039062 496.285156 380.542969 497.839844 C 381.050781 499.394531 381.640625 500.917969 382.320312 502.40625 C 383.003906 503.890625 383.765625 505.335938 384.613281 506.734375 L 354.46875 506.734375 C 354.6875 506.113281 354.886719 505.484375 355.070312 504.847656 C 355.253906 504.214844 355.417969 503.574219 355.5625 502.929688 C 355.707031 502.285156 355.832031 501.640625 355.9375 500.988281 C 356.042969 500.335938 356.128906 499.679688 356.195312 499.023438 C 356.261719 498.367188 356.308594 497.710938 356.335938 497.050781 C 356.363281 496.390625 356.371094 495.730469 356.359375 495.070312 C 356.347656 494.410156 356.3125 493.75 356.261719 493.09375 C 356.210938 492.433594 356.140625 491.777344 356.050781 491.125 C 355.957031 490.46875 355.847656 489.820312 355.71875 489.171875 C 355.589844 488.523438 355.441406 487.882812 355.273438 487.242188 C 355.105469 486.605469 354.917969 485.972656 354.710938 485.34375 C 354.503906 484.714844 354.28125 484.09375 354.039062 483.480469 C 353.796875 482.867188 353.535156 482.261719 353.253906 481.664062 C 352.976562 481.066406 352.679688 480.476562 352.363281 479.894531 C 352.050781 479.3125 351.71875 478.742188 351.371094 478.183594 C 351.023438 477.621094 350.65625 477.070312 350.277344 476.53125 C 349.894531 475.992188 349.5 475.464844 349.085938 474.949219 C 348.671875 474.433594 348.246094 473.933594 347.800781 473.441406 C 347.359375 472.953125 346.902344 472.476562 346.429688 472.015625 C 345.960938 471.550781 345.476562 471.105469 344.976562 470.671875 C 344.480469 470.238281 343.96875 469.820312 343.445312 469.414062 C 342.921875 469.011719 342.386719 468.625 341.84375 468.253906 C 341.296875 467.882812 340.738281 467.527344 340.171875 467.191406 C 339.605469 466.851562 339.027344 466.53125 338.441406 466.226562 C 337.855469 465.925781 337.261719 465.640625 336.65625 465.371094 C 336.054688 465.101562 335.441406 464.855469 334.824219 464.621094 C 334.207031 464.390625 333.582031 464.179688 332.949219 463.984375 C 332.320312 463.789062 331.683594 463.613281 331.042969 463.457031 C 330.398438 463.304688 329.753906 463.164062 329.105469 463.046875 C 328.453125 462.929688 327.800781 462.832031 327.144531 462.753906 C 326.492188 462.675781 325.832031 462.617188 325.175781 462.578125 C 324.515625 462.539062 323.855469 462.519531 323.195312 462.519531 Z M 492.324219 472.335938 C 491.742188 474.09375 491.0625 475.816406 490.292969 477.5 C 489.519531 479.183594 488.652344 480.820312 487.699219 482.40625 C 486.742188 483.996094 485.703125 485.523438 484.574219 486.996094 C 483.449219 488.46875 482.246094 489.871094 480.960938 491.210938 C 479.679688 492.546875 478.328125 493.808594 476.902344 494.992188 C 475.480469 496.179688 473.996094 497.285156 472.449219 498.304688 C 470.902344 499.324219 469.304688 500.257812 467.652344 501.097656 C 466.003906 501.941406 464.308594 502.6875 462.574219 503.339844 C 463.871094 500.6875 464.878906 497.929688 465.597656 495.066406 C 466.316406 492.203125 466.734375 489.296875 466.847656 486.347656 C 466.960938 483.398438 466.769531 480.46875 466.273438 477.558594 C 465.777344 474.648438 464.988281 471.820312 463.902344 469.074219 L 509.609375 390.667969 C 509.976562 390.035156 510.28125 389.375 510.515625 388.6875 C 510.753906 387.996094 510.921875 387.289062 511.019531 386.566406 C 511.113281 385.839844 511.140625 385.117188 511.09375 384.386719 C 511.046875 383.660156 510.925781 382.941406 510.738281 382.238281 C 510.546875 381.53125 510.292969 380.851562 509.96875 380.199219 C 509.644531 379.542969 509.261719 378.925781 508.8125 378.347656 C 508.367188 377.769531 507.871094 377.242188 507.320312 376.761719 C 506.769531 376.285156 506.175781 375.863281 505.542969 375.5 L 496.046875 370.074219 C 497.914062 369.230469 499.710938 368.261719 501.445312 367.167969 C 503.175781 366.074219 504.824219 364.863281 506.386719 363.542969 C 507.949219 362.21875 509.414062 360.792969 510.78125 359.265625 C 512.144531 357.742188 513.398438 356.128906 514.539062 354.425781 C 515.679688 352.726562 516.699219 350.953125 517.59375 349.113281 C 518.492188 347.269531 519.253906 345.375 519.886719 343.425781 C 520.515625 341.480469 521.011719 339.496094 521.367188 337.480469 C 521.722656 335.464844 521.941406 333.429688 522.011719 331.382812 L 532.890625 349.070312 Z M 548.046875 373.734375 L 554.621094 384.421875 C 547.707031 391.332031 541.8125 399.027344 536.9375 407.503906 Z M 632.707031 550.953125 C 630.59375 550.953125 628.480469 550.882812 626.367188 550.734375 C 624.257812 550.582031 622.15625 550.359375 620.058594 550.058594 C 617.964844 549.757812 615.882812 549.382812 613.816406 548.933594 C 611.75 548.484375 609.699219 547.960938 607.667969 547.363281 C 605.640625 546.765625 603.632812 546.097656 601.652344 545.355469 C 599.667969 544.613281 597.714844 543.804688 595.792969 542.921875 C 593.867188 542.039062 591.980469 541.089844 590.125 540.070312 C 588.269531 539.054688 586.453125 537.972656 584.675781 536.824219 C 582.898438 535.675781 581.164062 534.464844 579.472656 533.191406 C 577.78125 531.917969 576.140625 530.585938 574.542969 529.195312 C 572.949219 527.804688 571.40625 526.359375 569.914062 524.855469 C 568.425781 523.355469 566.992188 521.800781 565.609375 520.195312 C 564.230469 518.589844 562.914062 516.9375 561.652344 515.238281 C 560.390625 513.539062 559.195312 511.796875 558.058594 510.007812 C 556.925781 508.222656 555.855469 506.398438 554.851562 504.535156 C 553.847656 502.671875 552.910156 500.777344 552.042969 498.847656 C 551.175781 496.917969 550.378906 494.957031 549.652344 492.96875 C 548.925781 490.984375 548.273438 488.972656 547.691406 486.9375 C 547.109375 484.902344 546.601562 482.847656 546.164062 480.777344 C 545.730469 478.707031 545.371094 476.625 545.085938 474.527344 C 544.800781 472.429688 544.59375 470.324219 544.460938 468.214844 C 544.328125 466.101562 544.269531 463.988281 544.289062 461.871094 C 544.308594 459.753906 544.402344 457.640625 544.574219 455.535156 C 544.742188 453.425781 544.988281 451.324219 545.3125 449.230469 C 545.632812 447.140625 546.027344 445.0625 546.5 443 C 546.972656 440.9375 547.515625 438.894531 548.132812 436.871094 C 548.75 434.84375 549.441406 432.847656 550.203125 430.871094 C 550.964844 428.898438 551.796875 426.953125 552.695312 425.039062 C 553.597656 423.125 554.566406 421.246094 555.605469 419.398438 C 556.640625 417.554688 557.742188 415.75 558.90625 413.984375 C 560.074219 412.21875 561.300781 410.496094 562.59375 408.820312 C 563.882812 407.140625 565.230469 405.511719 566.640625 403.933594 L 579.007812 424.027344 C 578.300781 425.023438 577.621094 426.035156 576.96875 427.066406 C 576.316406 428.101562 575.691406 429.148438 575.097656 430.214844 C 574.503906 431.28125 573.9375 432.363281 573.40625 433.460938 C 572.871094 434.558594 572.367188 435.671875 571.894531 436.796875 C 571.421875 437.921875 570.980469 439.0625 570.570312 440.210938 C 570.160156 441.363281 569.785156 442.523438 569.4375 443.691406 C 569.09375 444.863281 568.78125 446.042969 568.5 447.230469 C 568.21875 448.421875 567.972656 449.617188 567.757812 450.816406 C 567.542969 452.019531 567.363281 453.226562 567.214844 454.4375 C 567.070312 455.652344 566.957031 456.867188 566.875 458.085938 C 566.796875 459.300781 566.75 460.523438 566.738281 461.742188 C 566.726562 462.964844 566.746094 464.183594 566.800781 465.402344 C 566.859375 466.621094 566.945312 467.839844 567.070312 469.054688 C 567.191406 470.269531 567.347656 471.480469 567.539062 472.6875 C 567.726562 473.890625 567.949219 475.09375 568.207031 476.285156 C 568.460938 477.480469 568.75 478.664062 569.074219 479.84375 C 569.394531 481.019531 569.75 482.1875 570.136719 483.347656 C 570.523438 484.503906 570.941406 485.652344 571.390625 486.785156 C 571.839844 487.921875 572.320312 489.042969 572.832031 490.152344 C 573.34375 491.257812 573.886719 492.351562 574.460938 493.429688 C 575.03125 494.507812 575.632812 495.570312 576.265625 496.617188 C 576.898438 497.660156 577.558594 498.6875 578.246094 499.695312 C 578.933594 500.703125 579.648438 501.695312 580.390625 502.664062 C 581.132812 503.632812 581.902344 504.578125 582.699219 505.503906 C 583.496094 506.429688 584.316406 507.335938 585.160156 508.214844 C 586.007812 509.097656 586.875 509.953125 587.769531 510.785156 C 588.660156 511.617188 589.578125 512.425781 590.515625 513.207031 C 591.453125 513.988281 592.410156 514.746094 593.390625 515.472656 C 594.367188 516.203125 595.367188 516.902344 596.386719 517.578125 C 597.402344 518.25 598.441406 518.894531 599.492188 519.511719 C 600.546875 520.128906 601.617188 520.714844 602.703125 521.273438 C 603.792969 521.828125 604.890625 522.355469 606.007812 522.851562 C 607.125 523.347656 608.25 523.8125 609.394531 524.246094 C 610.535156 524.679688 611.6875 525.082031 612.851562 525.453125 C 614.015625 525.820312 615.1875 526.160156 616.371094 526.464844 C 617.550781 526.769531 618.742188 527.039062 619.9375 527.277344 C 621.136719 527.515625 622.339844 527.722656 623.546875 527.894531 C 624.757812 528.066406 625.96875 528.207031 627.183594 528.3125 C 628.402344 528.417969 629.621094 528.488281 630.839844 528.527344 C 632.058594 528.5625 633.28125 528.566406 634.5 528.539062 C 635.722656 528.507812 636.941406 528.445312 638.15625 528.347656 C 639.375 528.25 640.589844 528.117188 641.796875 527.953125 C 643.007812 527.789062 644.210938 527.589844 645.410156 527.359375 C 646.609375 527.128906 647.800781 526.863281 648.984375 526.566406 C 650.167969 526.269531 651.34375 525.941406 652.511719 525.578125 C 653.675781 525.214844 654.832031 524.820312 655.976562 524.394531 C 657.117188 523.96875 658.25 523.511719 659.371094 523.023438 C 660.488281 522.535156 661.59375 522.015625 662.683594 521.464844 C 663.773438 520.914062 664.847656 520.335938 665.902344 519.726562 C 666.960938 519.117188 668.003906 518.476562 669.023438 517.808594 C 670.046875 517.144531 671.050781 516.449219 672.035156 515.726562 C 673.019531 515.003906 673.980469 514.253906 674.925781 513.476562 C 675.867188 512.703125 676.789062 511.898438 677.6875 511.074219 C 678.582031 510.246094 679.457031 509.394531 680.308594 508.519531 C 681.160156 507.644531 681.988281 506.746094 682.789062 505.824219 C 683.589844 504.902344 684.363281 503.960938 685.113281 502.996094 C 685.863281 502.035156 686.585938 501.050781 687.28125 500.046875 C 687.972656 499.042969 688.640625 498.019531 689.277344 496.976562 C 689.917969 495.9375 690.523438 494.878906 691.105469 493.804688 C 691.683594 492.730469 692.234375 491.640625 692.753906 490.535156 C 693.273438 489.429688 693.761719 488.3125 694.21875 487.179688 C 694.675781 486.046875 695.101562 484.902344 695.492188 483.746094 C 695.886719 482.59375 696.25 481.425781 696.578125 480.25 C 696.90625 479.074219 697.203125 477.890625 697.46875 476.699219 C 697.730469 475.507812 697.960938 474.308594 698.160156 473.105469 C 698.355469 471.898438 698.519531 470.691406 698.652344 469.476562 C 698.78125 468.261719 698.878906 467.046875 698.941406 465.824219 C 699.003906 464.605469 699.035156 463.386719 699.027344 462.164062 C 699.023438 460.945312 698.988281 459.726562 698.914062 458.507812 C 698.84375 457.289062 698.738281 456.070312 698.597656 454.859375 C 698.457031 453.644531 698.285156 452.4375 698.078125 451.234375 C 697.871094 450.03125 697.632812 448.835938 697.359375 447.644531 C 697.089844 446.453125 696.78125 445.273438 696.445312 444.097656 C 696.105469 442.925781 695.738281 441.761719 695.335938 440.609375 C 694.933594 439.457031 694.5 438.316406 694.03125 437.1875 C 693.566406 436.058594 693.070312 434.945312 692.542969 433.84375 C 692.015625 432.742188 691.457031 431.65625 690.871094 430.585938 C 690.285156 429.515625 689.667969 428.464844 689.023438 427.425781 C 688.375 426.390625 687.703125 425.371094 687 424.375 C 686.296875 423.375 685.570312 422.398438 684.8125 421.4375 C 684.058594 420.480469 683.273438 419.542969 682.464844 418.628906 C 681.660156 417.710938 680.824219 416.820312 679.96875 415.949219 C 679.109375 415.082031 678.230469 414.238281 677.324219 413.417969 C 676.421875 412.597656 675.496094 411.800781 674.546875 411.03125 C 673.597656 410.265625 672.628906 409.523438 671.640625 408.804688 C 670.652344 408.089844 669.640625 407.402344 668.613281 406.746094 C 667.585938 406.085938 666.542969 405.453125 665.480469 404.851562 C 664.417969 404.25 663.339844 403.679688 662.246094 403.136719 C 661.152344 402.59375 660.042969 402.082031 658.921875 401.601562 C 657.800781 401.121094 656.664062 400.671875 655.515625 400.253906 C 654.371094 399.835938 653.210938 399.453125 652.042969 399.097656 C 650.875 398.746094 649.699219 398.421875 648.511719 398.136719 C 647.324219 397.847656 646.132812 397.589844 644.929688 397.367188 C 643.730469 397.148438 642.523438 396.957031 641.3125 396.800781 C 640.101562 396.644531 638.886719 396.523438 637.671875 396.4375 C 636.453125 396.347656 635.234375 396.292969 634.011719 396.273438 L 621.089844 374.949219 C 624.945312 374.410156 628.816406 374.125 632.707031 374.085938 C 634.15625 374.085938 635.601562 374.121094 637.046875 374.191406 C 638.492188 374.265625 639.9375 374.371094 641.375 374.511719 C 642.816406 374.652344 644.253906 374.832031 645.683594 375.042969 C 647.117188 375.257812 648.542969 375.503906 649.960938 375.785156 C 651.378906 376.066406 652.792969 376.386719 654.195312 376.738281 C 655.601562 377.089844 656.996094 377.472656 658.378906 377.894531 C 659.765625 378.3125 661.136719 378.769531 662.5 379.253906 C 663.863281 379.742188 665.214844 380.265625 666.550781 380.816406 C 667.886719 381.371094 669.210938 381.957031 670.519531 382.578125 C 671.828125 383.195312 673.121094 383.847656 674.394531 384.527344 C 675.671875 385.210938 676.929688 385.921875 678.171875 386.667969 C 679.414062 387.410156 680.636719 388.1875 681.839844 388.988281 C 683.042969 389.792969 684.226562 390.628906 685.386719 391.488281 C 686.550781 392.351562 687.691406 393.242188 688.808594 394.160156 C 689.929688 395.078125 691.023438 396.023438 692.097656 396.996094 C 693.167969 397.964844 694.214844 398.964844 695.238281 399.988281 C 696.261719 401.011719 697.261719 402.058594 698.234375 403.132812 C 699.203125 404.203125 700.148438 405.300781 701.066406 406.417969 C 701.984375 407.535156 702.875 408.675781 703.738281 409.839844 C 704.601562 411.003906 705.433594 412.183594 706.238281 413.386719 C 707.042969 414.589844 707.816406 415.8125 708.558594 417.054688 C 709.304688 418.296875 710.015625 419.554688 710.699219 420.832031 C 711.382812 422.109375 712.03125 423.402344 712.652344 424.710938 C 713.269531 426.015625 713.855469 427.339844 714.410156 428.675781 C 714.964844 430.015625 715.484375 431.363281 715.972656 432.726562 C 716.460938 434.089844 716.914062 435.464844 717.332031 436.847656 C 717.753906 438.234375 718.140625 439.628906 718.492188 441.03125 C 718.84375 442.433594 719.160156 443.847656 719.441406 445.265625 C 719.722656 446.6875 719.972656 448.113281 720.183594 449.542969 C 720.398438 450.976562 720.574219 452.410156 720.714844 453.851562 C 720.859375 455.292969 720.964844 456.734375 721.035156 458.179688 C 721.105469 459.625 721.140625 461.070312 721.140625 462.519531 C 721.140625 463.964844 721.105469 465.414062 721.035156 466.859375 C 720.964844 468.304688 720.859375 469.746094 720.714844 471.1875 C 720.574219 472.628906 720.398438 474.0625 720.183594 475.496094 C 719.972656 476.925781 719.722656 478.351562 719.441406 479.769531 C 719.160156 481.191406 718.84375 482.601562 718.492188 484.007812 C 718.140625 485.410156 717.753906 486.804688 717.332031 488.191406 C 716.914062 489.574219 716.460938 490.949219 715.972656 492.3125 C 715.484375 493.671875 714.964844 495.023438 714.410156 496.359375 C 713.855469 497.699219 713.269531 499.019531 712.652344 500.328125 C 712.03125 501.636719 711.382812 502.929688 710.699219 504.207031 C 710.015625 505.480469 709.304688 506.742188 708.558594 507.980469 C 707.816406 509.222656 707.042969 510.445312 706.238281 511.648438 C 705.433594 512.851562 704.601562 514.035156 703.738281 515.199219 C 702.875 516.359375 701.984375 517.5 701.066406 518.621094 C 700.148438 519.738281 699.203125 520.835938 698.234375 521.90625 C 697.261719 522.980469 696.261719 524.027344 695.238281 525.050781 C 694.214844 526.074219 693.167969 527.070312 692.097656 528.042969 C 691.023438 529.015625 689.929688 529.960938 688.808594 530.878906 C 687.691406 531.796875 686.550781 532.6875 685.386719 533.546875 C 684.226562 534.410156 683.042969 535.242188 681.839844 536.046875 C 680.636719 536.851562 679.414062 537.625 678.171875 538.371094 C 676.929688 539.113281 675.671875 539.828125 674.394531 540.507812 C 673.121094 541.191406 671.828125 541.84375 670.519531 542.460938 C 669.210938 543.078125 667.886719 543.664062 666.550781 544.21875 C 665.214844 544.773438 663.863281 545.292969 662.5 545.78125 C 661.136719 546.269531 659.765625 546.722656 658.378906 547.144531 C 656.996094 547.5625 655.601562 547.949219 654.195312 548.300781 C 652.792969 548.652344 651.378906 548.96875 649.960938 549.253906 C 648.542969 549.535156 647.117188 549.78125 645.683594 549.996094 C 644.253906 550.207031 642.816406 550.382812 641.375 550.527344 C 639.9375 550.667969 638.492188 550.773438 637.046875 550.84375 C 635.601562 550.914062 634.15625 550.953125 632.707031 550.953125 Z M 632.707031 550.953125 " fill-opacity="1" fill-rule="nonzero"/></g></svg>