<svg xmlns="http://www.w3.org/2000/svg" xmlns:xlink="http://www.w3.org/1999/xlink" width="1080" zoomAndPan="magnify" viewBox="0 0 810 809.999993" height="1080" preserveAspectRatio="xMidYMid meet" version="1.0"><defs><clipPath id="4c7115c6fc"><path d="M 53.167969 234 L 84 234 L 84 293 L 53.167969 293 Z M 53.167969 234 " clip-rule="nonzero"/></clipPath><clipPath id="d7480f7032"><path d="M 356 234 L 386.917969 234 L 386.917969 293 L 356 293 Z M 356 234 " clip-rule="nonzero"/></clipPath><clipPath id="b8f17bb50d"><path d="M 308 488 L 357 488 L 357 527.902344 L 308 527.902344 Z M 308 488 " clip-rule="nonzero"/></clipPath><clipPath id="d22c7d5cd8"><path d="M 83 488 L 132 488 L 132 527.902344 L 83 527.902344 Z M 83 488 " clip-rule="nonzero"/></clipPath><clipPath id="f7bf3e4d0c"><path d="M 405 135.828125 L 767.25 135.828125 L 767.25 439 L 405 439 Z M 405 135.828125 " clip-rule="nonzero"/></clipPath></defs><path fill="#02468f" d="M 88.480469 376.476562 C 88.480469 372.59375 91.941406 369.660156 95.785156 370.222656 C 107.535156 371.949219 116.964844 377.613281 127.8125 385.558594 C 129.886719 387.078125 131.40625 389.234375 132.136719 391.699219 L 136.4375 406.214844 C 136.710938 407.136719 135.921875 408.023438 134.976562 407.863281 L 93.03125 400.742188 C 90.402344 400.296875 88.480469 398.019531 88.480469 395.355469 Z M 158.03125 418.1875 L 157.65625 417.308594 C 145.015625 387.808594 139.855469 375.765625 134.914062 364.242188 C 133.34375 360.570312 130.953125 357.308594 127.925781 354.703125 L 96.488281 327.632812 C 96.488281 327.632812 79.265625 354.558594 79.402344 406.90625 L 80.195312 407.019531 C 129.34375 414.070312 149.648438 416.984375 158.03125 418.1875 " fill-opacity="1" fill-rule="nonzero"/><path fill="#02468f" d="M 97.304688 302.054688 L 97.277344 302.984375 C 97.292969 302.480469 97.304688 302.09375 97.316406 301.730469 L 97.304688 302.054688 " fill-opacity="1" fill-rule="nonzero"/><path fill="#02468f" d="M 351.742188 376.476562 L 351.742188 395.355469 C 351.742188 398.019531 349.820312 400.296875 347.195312 400.742188 L 305.25 407.863281 C 304.304688 408.023438 303.511719 407.136719 303.789062 406.214844 L 308.089844 391.699219 C 308.820312 389.234375 310.339844 387.078125 312.414062 385.558594 C 323.261719 377.613281 332.691406 371.949219 344.441406 370.222656 C 348.285156 369.660156 351.742188 372.59375 351.742188 376.476562 Z M 312.296875 354.703125 C 309.269531 357.308594 306.882812 360.570312 305.308594 364.242188 C 300.371094 375.765625 295.210938 387.808594 282.570312 417.308594 L 282.195312 418.1875 C 290.574219 416.984375 310.871094 414.070312 360.03125 407.019531 L 360.820312 406.90625 C 360.960938 354.5625 343.734375 327.632812 343.734375 327.632812 L 312.296875 354.703125 " fill-opacity="1" fill-rule="nonzero"/><g clip-path="url(#4c7115c6fc)"><path fill="#02468f" d="M 83.929688 285.84375 L 83.929688 238.230469 C 83.929688 236.003906 81.75 234.207031 79.050781 234.207031 L 60.949219 234.207031 C 58.128906 234.207031 55.824219 236.039062 55.714844 238.367188 L 53.453125 286.5625 C 53.34375 288.839844 54.902344 290.839844 57.210938 291.773438 C 58.109375 292.140625 59.113281 292.347656 60.179688 292.347656 C 78.832031 292.347656 72.371094 292.347656 76.0625 292.347656 C 80.40625 292.347656 83.929688 289.433594 83.929688 285.84375 " fill-opacity="1" fill-rule="nonzero"/></g><path fill="#02468f" d="M 220.113281 424.066406 L 163.222656 424.066406 C 163.195312 424.058594 161.476562 423.816406 79.472656 412.050781 C 80.320312 447.480469 84.542969 470.769531 87.503906 483.03125 C 88.984375 489.148438 94.445312 493.460938 100.738281 493.460938 L 339.488281 493.460938 C 345.78125 493.460938 351.242188 489.148438 352.71875 483.03125 C 355.683594 470.769531 359.902344 447.480469 360.753906 412.050781 C 278.75 423.816406 277.03125 424.058594 277.003906 424.066406 L 220.113281 424.066406 " fill-opacity="1" fill-rule="nonzero"/><path fill="#02468f" d="M 111.171875 236.039062 C 111.171875 226.734375 118.714844 219.1875 128.019531 219.1875 L 312.203125 219.1875 C 321.511719 219.1875 329.054688 226.734375 329.054688 236.039062 L 329.054688 288.59375 C 294.386719 283.261719 145.839844 283.261719 111.171875 288.59375 Z M 286.71875 355.21875 L 286.730469 355.160156 L 153.496094 355.160156 C 153.117188 352.457031 152.714844 349.632812 152.296875 346.652344 L 172.316406 343.648438 L 267.914062 343.648438 L 287.929688 346.652344 C 287.507812 349.65625 287.105469 352.5 286.71875 355.21875 Z M 283.804688 375.875 L 156.421875 375.875 C 155.835938 371.738281 155.183594 367.105469 154.449219 361.914062 L 285.777344 361.914062 C 285.042969 367.105469 284.390625 371.738281 283.804688 375.875 Z M 280.882812 396.589844 L 159.34375 396.589844 C 158.734375 392.257812 157.375 382.632812 157.375 382.632812 L 282.851562 382.632812 C 282.851562 382.632812 281.492188 392.257812 280.882812 396.589844 Z M 277.960938 417.304688 L 162.265625 417.304688 C 161.648438 412.929688 160.300781 403.347656 160.300781 403.347656 L 279.925781 403.347656 C 279.925781 403.347656 278.578125 412.929688 277.960938 417.304688 Z M 137.027344 332.339844 L 141.25 336.230469 C 142.953125 337.796875 144.113281 339.871094 144.554688 342.144531 C 150.777344 374.023438 154.835938 394.769531 159.234375 417.304688 L 159.445312 418.386719 C 162.007812 418.753906 163.113281 418.914062 163.582031 418.980469 L 276.644531 418.980469 C 277.105469 418.914062 278.203125 418.757812 280.78125 418.386719 L 280.996094 417.304688 C 285.386719 394.769531 289.449219 374.023438 295.671875 342.144531 C 296.113281 339.871094 297.273438 337.796875 298.976562 336.230469 L 303.203125 332.339844 L 342.414062 296.230469 L 342.730469 296.21875 L 340.234375 218.023438 L 330.238281 148.433594 C 328.199219 134.230469 316.320312 123.496094 301.984375 122.90625 C 247.429688 120.644531 192.800781 120.644531 138.242188 122.90625 C 123.90625 123.496094 112.027344 134.230469 109.988281 148.433594 L 99.992188 218.023438 L 97.496094 296.21875 L 97.8125 296.230469 L 137.027344 332.339844 " fill-opacity="1" fill-rule="nonzero"/><g clip-path="url(#d7480f7032)"><path fill="#02468f" d="M 386.773438 286.5625 L 384.511719 238.367188 C 384.402344 236.042969 382.097656 234.207031 379.277344 234.207031 L 361.175781 234.207031 C 358.476562 234.207031 356.296875 236.007812 356.296875 238.230469 L 356.296875 285.839844 C 356.296875 289.433594 359.820312 292.347656 364.164062 292.347656 C 367.851562 292.347656 361.394531 292.347656 380.046875 292.347656 C 381.113281 292.347656 382.117188 292.140625 383.015625 291.777344 C 385.320312 290.84375 386.878906 288.839844 386.773438 286.5625 " fill-opacity="1" fill-rule="nonzero"/></g><g clip-path="url(#b8f17bb50d)"><path fill="#02468f" d="M 339.488281 498.546875 L 308.699219 498.546875 L 308.699219 521.605469 C 308.699219 525.042969 311.488281 527.832031 314.925781 527.832031 L 350.070312 527.832031 C 353.507812 527.832031 356.296875 525.042969 356.296875 521.605469 L 356.296875 488.035156 C 353.222656 494.375 346.777344 498.546875 339.488281 498.546875 " fill-opacity="1" fill-rule="nonzero"/></g><g clip-path="url(#d22c7d5cd8)"><path fill="#02468f" d="M 83.929688 488.035156 L 83.929688 521.605469 C 83.929688 525.042969 86.714844 527.832031 90.15625 527.832031 L 125.296875 527.832031 C 128.738281 527.832031 131.523438 525.042969 131.523438 521.605469 L 131.523438 498.546875 L 100.738281 498.546875 C 93.449219 498.546875 87.003906 494.375 83.929688 488.035156 " fill-opacity="1" fill-rule="nonzero"/></g><path fill="#02468f" d="M 358.152344 296.101562 L 347.9375 300.089844 L 348.101562 305.101562 L 348.316406 311.78125 L 373.476562 297.429688 L 364.164062 297.429688 C 361.996094 297.429688 359.949219 296.949219 358.152344 296.101562 " fill-opacity="1" fill-rule="nonzero"/><path fill="#02468f" d="M 92.285156 300.089844 L 82.074219 296.101562 C 80.273438 296.949219 78.230469 297.429688 76.0625 297.429688 L 66.75 297.429688 L 91.910156 311.78125 L 92.285156 300.089844 " fill-opacity="1" fill-rule="nonzero"/><path fill="#02468f" d="M 646.957031 401.03125 L 646.957031 411.777344 C 646.957031 412.726562 647.730469 413.5 648.679688 413.5 L 674.605469 413.5 C 675.558594 413.5 676.332031 412.726562 676.332031 411.777344 L 676.332031 401.03125 C 676.332031 400.078125 675.558594 399.308594 674.605469 399.308594 L 648.679688 399.308594 C 647.730469 399.308594 646.957031 400.078125 646.957031 401.03125 " fill-opacity="1" fill-rule="nonzero"/><path fill="#02468f" d="M 649.765625 142.726562 L 644.148438 142.726562 C 643.03125 142.726562 642.128906 143.632812 642.128906 144.746094 L 642.128906 167.714844 C 642.128906 168.832031 643.03125 169.734375 644.148438 169.734375 L 649.765625 169.734375 C 650.882812 169.734375 651.785156 168.832031 651.785156 167.714844 L 651.785156 144.746094 C 651.785156 143.632812 650.882812 142.726562 649.765625 142.726562 " fill-opacity="1" fill-rule="nonzero"/><path fill="#02468f" d="M 420.738281 144.746094 C 420.738281 143.632812 419.835938 142.726562 418.71875 142.726562 L 413.097656 142.726562 C 411.984375 142.726562 411.078125 143.632812 411.078125 144.746094 L 411.078125 152.054688 L 420.738281 152.054688 L 420.738281 144.746094 " fill-opacity="1" fill-rule="nonzero"/><path fill="#02468f" d="M 532.023438 463.769531 C 536.054688 463.769531 539.316406 467.039062 539.316406 471.066406 C 539.316406 475.09375 536.054688 478.359375 532.023438 478.359375 C 527.996094 478.359375 524.730469 475.09375 524.730469 471.066406 C 524.730469 467.039062 527.996094 463.769531 532.023438 463.769531 Z M 548.78125 463.769531 C 552.808594 463.769531 556.074219 467.039062 556.074219 471.066406 C 556.074219 475.09375 552.808594 478.359375 548.78125 478.359375 C 544.75 478.359375 541.488281 475.09375 541.488281 471.066406 C 541.488281 467.039062 544.75 463.769531 548.78125 463.769531 Z M 563.074219 461.125 C 563.074219 460.242188 563.785156 459.53125 564.664062 459.53125 L 572.128906 459.53125 C 573.007812 459.53125 573.71875 460.242188 573.71875 461.125 L 573.71875 481.007812 C 573.71875 481.886719 573.007812 482.597656 572.128906 482.597656 L 564.664062 482.597656 C 563.785156 482.597656 563.074219 481.886719 563.074219 481.007812 Z M 605.554688 467.464844 C 605.554688 466.515625 606.328125 465.742188 607.28125 465.742188 L 658.242188 465.742188 C 659.195312 465.742188 659.96875 466.515625 659.96875 467.464844 L 659.96875 474.664062 C 659.96875 475.613281 659.195312 476.386719 658.242188 476.386719 L 607.28125 476.386719 C 606.328125 476.386719 605.554688 475.613281 605.554688 474.664062 Z M 691.804688 461.125 C 691.804688 460.242188 692.519531 459.53125 693.394531 459.53125 L 700.863281 459.53125 C 701.742188 459.53125 702.453125 460.242188 702.453125 461.125 L 702.453125 481.007812 C 702.453125 481.886719 701.742188 482.597656 700.863281 482.597656 L 693.394531 482.597656 C 692.519531 482.597656 691.804688 481.886719 691.804688 481.007812 Z M 716.746094 463.769531 C 720.773438 463.769531 724.039062 467.039062 724.039062 471.066406 C 724.039062 475.09375 720.773438 478.359375 716.746094 478.359375 C 712.714844 478.359375 709.453125 475.09375 709.453125 471.066406 C 709.453125 467.039062 712.714844 463.769531 716.746094 463.769531 Z M 733.503906 463.769531 C 737.53125 463.769531 740.796875 467.039062 740.796875 471.066406 C 740.796875 475.09375 737.53125 478.359375 733.503906 478.359375 C 729.472656 478.359375 726.207031 475.09375 726.207031 471.066406 C 726.207031 467.039062 729.472656 463.769531 733.503906 463.769531 Z M 514.871094 493.144531 L 750.652344 493.144531 L 750.652344 448.984375 L 514.871094 448.984375 L 514.871094 493.144531 " fill-opacity="1" fill-rule="nonzero"/><path fill="#02468f" d="M 636.3125 156.527344 L 636.3125 421.878906 C 636.3125 423.277344 637.355469 424.429688 638.703125 424.609375 L 638.703125 410.691406 C 638.703125 409.152344 639.347656 407.761719 640.378906 406.769531 L 640.378906 171.632812 C 639.347656 170.644531 638.703125 169.253906 638.703125 167.714844 L 638.703125 153.792969 C 637.355469 153.976562 636.3125 155.128906 636.3125 156.527344 " fill-opacity="1" fill-rule="nonzero"/><g clip-path="url(#f7bf3e4d0c)"><path fill="#02468f" d="M 498.90625 135.828125 L 498.90625 153.765625 L 408.023438 153.765625 C 406.496094 153.765625 405.261719 155.003906 405.261719 156.527344 L 405.261719 421.878906 C 405.261719 423.402344 406.496094 424.640625 408.023438 424.640625 L 498.90625 424.640625 L 498.90625 438.636719 L 641.949219 438.636719 C 640.039062 437.789062 638.703125 435.878906 638.703125 433.65625 L 638.703125 430.554688 L 504.226562 430.554688 L 504.226562 424.640625 L 507.382812 424.640625 C 508.90625 424.640625 510.140625 423.402344 510.140625 421.878906 L 510.140625 156.527344 C 510.140625 155.003906 508.90625 153.765625 507.382812 153.765625 L 504.226562 153.765625 L 504.226562 147.851562 L 638.703125 147.851562 L 638.703125 144.746094 C 638.703125 141.746094 641.144531 139.300781 644.148438 139.300781 L 649.765625 139.300781 C 652.769531 139.300781 655.210938 141.746094 655.210938 144.746094 L 655.210938 147.851562 L 762.085938 147.851562 L 762.085938 169.242188 L 748.5 169.242188 C 747.839844 169.242188 747.300781 169.777344 747.300781 170.441406 L 747.300781 186.082031 C 747.300781 186.742188 747.839844 187.28125 748.5 187.28125 L 762.085938 187.28125 L 762.085938 278.210938 L 748.5 278.210938 C 747.839844 278.210938 747.300781 278.75 747.300781 279.410156 L 747.300781 295.050781 C 747.300781 295.714844 747.839844 296.25 748.5 296.25 L 762.085938 296.25 L 762.085938 387.183594 L 748.5 387.183594 C 747.839844 387.183594 747.300781 387.71875 747.300781 388.378906 L 747.300781 404.023438 C 747.300781 404.683594 747.839844 405.222656 748.5 405.222656 L 762.085938 405.222656 L 762.085938 430.554688 L 655.210938 430.554688 L 655.210938 433.65625 C 655.210938 435.878906 653.875 437.789062 651.96875 438.636719 L 767.410156 438.636719 L 767.410156 135.828125 L 498.90625 135.828125 " fill-opacity="1" fill-rule="nonzero"/></g><path fill="#02468f" d="M 519.113281 445.5625 L 746.417969 445.5625 L 746.417969 442.136719 L 519.113281 442.136719 L 519.113281 445.5625 " fill-opacity="1" fill-rule="nonzero"/><path fill="#02468f" d="M 642.128906 433.65625 C 642.128906 434.773438 643.03125 435.679688 644.148438 435.679688 L 649.765625 435.679688 C 650.882812 435.679688 651.785156 434.773438 651.785156 433.65625 L 651.785156 416.925781 L 648.679688 416.925781 C 645.84375 416.925781 643.53125 414.617188 643.53125 411.777344 L 643.53125 408.765625 C 642.71875 409.027344 642.128906 409.789062 642.128906 410.691406 L 642.128906 433.65625 " fill-opacity="1" fill-rule="nonzero"/><path fill="#02468f" d="M 650.109375 395.878906 L 650.109375 173.140625 C 649.996094 173.148438 649.882812 173.160156 649.765625 173.160156 L 644.148438 173.160156 C 644.03125 173.160156 643.917969 173.148438 643.800781 173.140625 L 643.800781 399.394531 C 644.488281 397.355469 646.414062 395.878906 648.679688 395.878906 L 650.109375 395.878906 " fill-opacity="1" fill-rule="nonzero"/><path fill="#02468f" d="M 748.5 165.816406 L 756.171875 165.816406 L 756.171875 153.765625 L 655.210938 153.765625 L 655.210938 167.714844 C 655.210938 169.253906 654.566406 170.644531 653.539062 171.632812 L 653.539062 395.878906 L 674.605469 395.878906 C 677.445312 395.878906 679.753906 398.191406 679.753906 401.03125 L 679.753906 411.777344 C 679.753906 414.617188 677.445312 416.925781 674.605469 416.925781 L 655.210938 416.925781 L 655.210938 424.640625 L 756.171875 424.640625 L 756.171875 408.644531 L 748.5 408.644531 C 745.949219 408.644531 743.875 406.570312 743.875 404.023438 L 743.875 388.378906 C 743.875 385.828125 745.949219 383.757812 748.5 383.757812 L 756.171875 383.757812 L 756.171875 299.675781 L 748.5 299.675781 C 745.949219 299.675781 743.875 297.601562 743.875 295.050781 L 743.875 279.410156 C 743.875 276.859375 745.949219 274.785156 748.5 274.785156 L 756.171875 274.785156 L 756.171875 190.707031 L 748.5 190.707031 C 745.949219 190.707031 743.875 188.632812 743.875 186.082031 L 743.875 170.441406 C 743.875 167.890625 745.949219 165.816406 748.5 165.816406 " fill-opacity="1" fill-rule="nonzero"/><path fill="#02468f" d="M 514.871094 520.867188 C 514.871094 521.238281 515.167969 521.535156 515.539062 521.535156 L 548.117188 521.535156 C 548.484375 521.535156 548.78125 521.238281 548.78125 520.867188 L 548.78125 496.570312 L 514.871094 496.570312 L 514.871094 520.867188 " fill-opacity="1" fill-rule="nonzero"/><path fill="#02468f" d="M 716.546875 520.867188 C 716.546875 521.238281 716.847656 521.535156 717.214844 521.535156 L 749.789062 521.535156 C 750.160156 521.535156 750.457031 521.238281 750.457031 520.867188 L 750.457031 496.570312 L 716.546875 496.570312 L 716.546875 520.867188 " fill-opacity="1" fill-rule="nonzero"/><path fill="#02468f" d="M 718.324219 527.109375 C 718.324219 527.515625 718.652344 527.84375 719.054688 527.84375 L 748.34375 527.84375 C 748.75 527.84375 749.074219 527.515625 749.074219 527.109375 L 749.074219 524.957031 L 718.324219 524.957031 L 718.324219 527.109375 " fill-opacity="1" fill-rule="nonzero"/><path fill="#02468f" d="M 516.449219 527.109375 C 516.449219 527.515625 516.777344 527.84375 517.179688 527.84375 L 546.472656 527.84375 C 546.875 527.84375 547.203125 527.515625 547.203125 527.109375 L 547.203125 524.957031 L 516.449219 524.957031 L 516.449219 527.109375 " fill-opacity="1" fill-rule="nonzero"/></svg>