<svg xmlns="http://www.w3.org/2000/svg" xmlns:xlink="http://www.w3.org/1999/xlink" width="1080" zoomAndPan="magnify" viewBox="0 0 810 809.999993" height="1080" preserveAspectRatio="xMidYMid meet" version="1.0"><defs><clipPath id="4c2aff3b89"><path d="M 438 449 L 740.964844 449 L 740.964844 753 L 438 753 Z M 438 449 " clip-rule="nonzero"/></clipPath></defs><path fill="#02468f" d="M 339.296875 752.527344 C 337.902344 752.527344 336.464844 752.234375 335.109375 751.683594 C 329.574219 749.359375 327.035156 742.976562 329.363281 737.480469 C 336.929688 719.597656 340.605469 699.726562 340.605469 676.773438 C 340.605469 644.390625 336.675781 616.148438 333.503906 593.492188 C 331.433594 578.609375 329.785156 566.859375 329.785156 557.726562 C 329.785156 540.902344 347.203125 537.644531 361.195312 535.023438 C 386.6875 530.246094 403.851562 524.878906 405.414062 497.144531 L 387.066406 478.800781 C 383.136719 474.867188 380.050781 469.328125 376.117188 462.269531 C 366.984375 445.910156 354.472656 423.546875 327.164062 416.695312 C 321.371094 415.257812 317.863281 409.382812 319.300781 403.589844 C 323.019531 388.667969 324.585938 371.800781 323.359375 363.769531 C 311.4375 366.136719 285.097656 375.480469 263.285156 411.792969 C 262.441406 413.230469 261.214844 414.5 259.777344 415.386719 C 214.203125 443.835938 211.625 474.742188 209.722656 497.316406 C 208.242188 514.605469 206.425781 536.082031 178.269531 536.082031 C 147.789062 536.082031 114.648438 542.84375 85.011719 555.191406 C 79.515625 557.472656 73.175781 554.851562 70.890625 549.355469 C 68.566406 543.816406 71.1875 537.476562 76.726562 535.195312 C 109.363281 521.625 144.492188 514.4375 178.269531 514.4375 C 185.753906 514.4375 186.554688 514.4375 188.121094 495.496094 C 190.148438 471.78125 193.449219 432.339844 246.121094 398.433594 C 281.167969 341.914062 327.796875 341.277344 329.785156 341.277344 C 332.660156 341.277344 335.40625 342.417969 337.4375 344.449219 C 348.640625 355.652344 345.890625 381.691406 342.507812 398.941406 C 371.972656 410.441406 386.179688 435.890625 395.015625 451.699219 C 397.761719 456.648438 400.59375 461.675781 402.371094 463.496094 L 424.015625 485.140625 C 426.042969 487.167969 427.1875 489.917969 427.1875 492.792969 C 427.1875 544.664062 386.855469 552.230469 365.210938 556.289062 C 360.476562 557.175781 354.304688 558.316406 351.472656 559.542969 C 351.683594 567.152344 353.203125 578.019531 354.9375 590.488281 C 358.191406 613.824219 362.25 642.867188 362.25 676.773438 C 362.25 702.304688 357.898438 725.601562 349.273438 745.933594 C 347.539062 750.035156 343.523438 752.527344 339.296875 752.527344 " fill-opacity="1" fill-rule="nonzero"/><g clip-path="url(#4c2aff3b89)"><path fill="#02468f" d="M 459.652344 568.546875 L 459.652344 633.484375 L 546.230469 633.484375 C 552.191406 633.484375 557.054688 638.34375 557.054688 644.304688 L 557.054688 730.882812 L 621.988281 730.882812 L 621.988281 644.304688 C 621.988281 638.34375 626.851562 633.484375 632.8125 633.484375 L 719.390625 633.484375 L 719.390625 568.546875 L 632.8125 568.546875 C 626.851562 568.546875 621.988281 563.6875 621.988281 557.726562 L 621.988281 471.148438 L 557.054688 471.148438 L 557.054688 557.726562 C 557.054688 563.6875 552.191406 568.546875 546.230469 568.546875 Z M 621.988281 752.527344 L 557.054688 752.527344 C 545.132812 752.527344 535.410156 742.804688 535.410156 730.882812 L 535.410156 655.128906 L 459.652344 655.128906 C 447.730469 655.128906 438.007812 645.40625 438.007812 633.484375 L 438.007812 568.546875 C 438.007812 556.628906 447.730469 546.902344 459.652344 546.902344 L 535.410156 546.902344 L 535.410156 471.148438 C 535.410156 459.226562 545.132812 449.503906 557.054688 449.503906 L 621.988281 449.503906 C 633.910156 449.503906 643.632812 459.226562 643.632812 471.148438 L 643.632812 546.902344 L 719.390625 546.902344 C 731.3125 546.902344 741.035156 556.628906 741.035156 568.546875 L 741.035156 633.484375 C 741.035156 645.40625 731.3125 655.128906 719.390625 655.128906 L 643.632812 655.128906 L 643.632812 730.882812 C 643.632812 742.804688 633.910156 752.527344 621.988281 752.527344 " fill-opacity="1" fill-rule="nonzero"/></g><path fill="#02468f" d="M 481.296875 438.679688 C 479.648438 438.679688 478 438.300781 476.4375 437.539062 C 471.109375 434.832031 468.953125 428.363281 471.617188 422.996094 C 472.546875 421.136719 494.953125 376.875 529.40625 353.917969 C 551.136719 339.417969 576.417969 341.488281 598.695312 343.308594 C 614 344.574219 628.457031 345.757812 640.210938 341.828125 C 668.871094 332.273438 708.566406 292.914062 708.566406 243.875 C 708.566406 234.535156 679.863281 228.066406 658.9375 223.375 C 633.359375 217.625 606.9375 211.707031 592.691406 197.417969 C 585.167969 189.890625 579.503906 180.761719 573.5 171.121094 C 556.039062 143.050781 537.988281 114.007812 470.476562 114.007812 C 467.601562 114.007812 464.851562 112.867188 462.824219 110.835938 C 462.613281 110.625 454.453125 103.1875 438.007812 103.1875 C 417.335938 103.1875 318.960938 135.609375 318.960938 168.121094 C 318.960938 207.648438 391.503906 297.988281 416.363281 297.988281 C 431.960938 297.988281 438.007812 291.902344 438.007812 276.34375 C 438.007812 252.375 434.964844 233.054688 432.300781 216.019531 C 427.691406 186.976562 424.097656 164.0625 439.824219 140.472656 C 443.125 135.484375 449.84375 134.132812 454.832031 137.472656 C 459.820312 140.769531 461.175781 147.488281 457.835938 152.476562 C 446.800781 169.007812 449.550781 186.382812 453.691406 212.636719 C 456.355469 229.589844 459.652344 250.683594 459.652344 276.34375 C 459.652344 303.863281 443.882812 319.632812 416.363281 319.632812 C 374.171875 319.632812 297.316406 213.398438 297.316406 168.121094 C 297.316406 113.839844 416.742188 81.542969 438.007812 81.542969 C 456.523438 81.542969 468.613281 88.21875 474.363281 92.40625 C 550.839844 93.632812 574.515625 131.722656 591.890625 159.664062 C 597.214844 168.246094 602.246094 176.363281 607.996094 182.113281 C 617.847656 191.964844 642.195312 197.417969 663.671875 202.234375 C 696.390625 209.59375 730.210938 217.203125 730.210938 243.875 C 730.210938 305.808594 680.582031 351.171875 647.058594 362.375 C 631.078125 367.699219 613.703125 366.261719 596.960938 364.867188 C 576.332031 363.175781 556.886719 361.613281 541.414062 371.929688 C 511.820312 391.671875 491.191406 432.296875 490.980469 432.71875 C 489.078125 436.480469 485.230469 438.679688 481.296875 438.679688 " fill-opacity="1" fill-rule="nonzero"/><path fill="#02468f" d="M 80.871094 395.390625 C 74.910156 395.390625 70.046875 390.527344 70.046875 384.566406 C 70.046875 378.605469 74.910156 373.746094 80.871094 373.746094 C 81.589844 373.746094 153.582031 373.324219 193.40625 343.433594 C 226.042969 318.914062 285.945312 234.492188 310.167969 199.320312 C 313.550781 194.371094 320.316406 193.148438 325.21875 196.527344 C 330.121094 199.953125 331.390625 206.675781 327.964844 211.578125 C 297.148438 256.347656 240.289062 335.277344 206.425781 360.726562 C 160.769531 395.011719 84.125 395.390625 80.871094 395.390625 " fill-opacity="1" fill-rule="nonzero"/></svg>