<svg xmlns="http://www.w3.org/2000/svg" xmlns:xlink="http://www.w3.org/1999/xlink" width="1080" zoomAndPan="magnify" viewBox="0 0 810 809.999993" height="1080" preserveAspectRatio="xMidYMid meet" version="1.0"><defs><clipPath id="cb744305ea"><path d="M 64 62.292969 L 532 62.292969 L 532 326 L 64 326 Z M 64 62.292969 " clip-rule="nonzero"/></clipPath><clipPath id="d0ec140c7b"><path d="M 354 453 L 750.769531 453 L 750.769531 747.792969 L 354 747.792969 Z M 354 453 " clip-rule="nonzero"/></clipPath></defs><path fill="#1b458f" d="M 353.339844 653.070312 L 353.339844 639.105469 C 335.1875 626.347656 318.421875 607.160156 303.972656 582.179688 C 297.410156 570.835938 291.523438 558.625 286.335938 545.707031 C 320.25 537.4375 356.894531 532.546875 395.175781 531.667969 C 400.015625 523.992188 407.25 517.96875 415.847656 514.703125 L 416.183594 402.953125 L 556.105469 402.953125 C 555.328125 446.046875 548.679688 487.324219 536.8125 524.011719 C 543.835938 530.894531 548.46875 540.207031 549.3125 550.578125 L 567.78125 550.578125 L 567.78125 539.03125 C 562.410156 537.265625 556.96875 535.589844 551.460938 534.007812 C 564.859375 494.433594 572.359375 449.660156 573.175781 402.953125 L 670.539062 402.953125 C 669.535156 434.34375 663.003906 464.359375 651.890625 492.066406 L 670.1875 492.066406 C 681.539062 461.648438 687.757812 428.75 687.757812 394.421875 C 687.757812 239.972656 562.101562 114.316406 407.652344 114.316406 C 384.886719 114.316406 362.757812 117.066406 341.554688 122.214844 L 343.609375 147.667969 L 356.378906 147.667969 C 370.011719 138.703125 384.382812 133.332031 399.121094 131.832031 L 399.121094 148.585938 C 406.03125 150.480469 411.957031 155.21875 415.253906 161.816406 L 416.183594 163.679688 L 416.183594 131.832031 C 447.277344 134.996094 476.761719 155.394531 501.054688 190.433594 C 508.535156 189.097656 516.066406 189.96875 522.863281 192.675781 C 509.839844 171.351562 495.070312 154.085938 479.074219 141.242188 C 527.273438 154.855469 569.894531 181.894531 602.632812 218.050781 C 585.347656 225.847656 566.800781 232.632812 547.214844 238.273438 C 545.714844 247.4375 539.570312 255.253906 535.007812 259.398438 C 548.003906 297.421875 555.292969 340.65625 556.105469 385.890625 L 416.183594 385.890625 L 416.183594 337.351562 C 409.898438 335.09375 404.132812 331.742188 399.121094 327.515625 L 399.121094 385.890625 L 259.199219 385.890625 C 259.472656 370.753906 260.464844 355.84375 262.160156 341.277344 C 256.402344 340.394531 250.824219 338.863281 245.53125 336.71875 C 243.570312 352.761719 242.421875 369.203125 242.132812 385.890625 L 144.765625 385.890625 C 145.273438 370.089844 147.179688 354.636719 150.363281 339.652344 C 144.601562 338.570312 139.144531 336.609375 134.15625 333.890625 C 129.84375 353.390625 127.546875 373.644531 127.546875 394.421875 C 127.546875 532.699219 228.269531 647.878906 360.195312 670.488281 C 355.859375 665.820312 353.339844 659.628906 353.339844 653.070312 Z M 551.460938 254.835938 C 573.453125 248.515625 594.425781 240.730469 614.050781 231.542969 C 647.855469 274.289062 668.675781 327.734375 670.539062 385.890625 L 573.175781 385.890625 C 572.359375 339.183594 564.859375 294.410156 551.460938 254.835938 Z M 399.121094 402.953125 L 399.121094 514.507812 C 357.859375 515.132812 317.789062 520.292969 280.347656 529.59375 C 267.320312 491.535156 260.015625 448.246094 259.199219 402.953125 Z M 201.253906 557.300781 C 167.453125 514.558594 146.628906 461.109375 144.765625 402.953125 L 242.132812 402.953125 C 242.949219 449.660156 250.449219 494.433594 263.84375 534.011719 C 241.851562 540.328125 220.878906 548.113281 201.253906 557.300781 Z M 212.675781 570.792969 C 230.441406 562.78125 249.535156 555.828125 269.726562 550.097656 C 275.40625 564.503906 281.90625 578.113281 289.199219 590.726562 C 302.992188 614.574219 318.894531 633.683594 336.230469 647.605469 C 288.03125 633.988281 245.410156 606.949219 212.675781 570.792969 Z M 212.675781 570.792969 " fill-opacity="1" fill-rule="nonzero"/><g clip-path="url(#cb744305ea)"><path fill="#1b458f" d="M 160.660156 323.558594 C 181.542969 323.558594 198.589844 306.859375 199.179688 286.117188 L 218.855469 286.117188 C 226.628906 308.769531 248.128906 325.105469 273.386719 325.105469 L 322.1875 325.105469 C 347.445312 325.105469 368.945312 308.769531 376.71875 286.117188 L 396.394531 286.117188 C 396.980469 306.859375 414.027344 323.558594 434.914062 323.558594 C 456.167969 323.558594 473.460938 306.265625 473.460938 285.011719 C 473.460938 279.5625 472.320312 274.375 470.269531 269.671875 L 516.65625 251.089844 C 522.539062 248.730469 536.660156 237.953125 528.773438 219.789062 C 524.070312 210.074219 513.054688 204.910156 502.582031 207.519531 L 419.773438 228.125 L 377.667969 228.125 C 376.710938 224.023438 375.445312 220.039062 373.898438 216.199219 L 409.5625 216.199219 C 418.960938 214.886719 418.515625 206.496094 417.191406 203.847656 L 399.992188 169.449219 C 398.546875 166.558594 395.59375 164.734375 392.359375 164.734375 L 327.863281 164.734375 L 321.347656 84.007812 C 320.367188 71.816406 310.015625 62.269531 297.785156 62.269531 C 285.558594 62.269531 275.207031 71.816406 274.222656 84.007812 L 267.707031 164.734375 L 203.210938 164.734375 C 199.980469 164.734375 197.027344 166.558594 195.578125 169.449219 L 178.382812 203.851562 C 177.058594 206.496094 176.671875 215.320312 186.011719 216.199219 L 221.675781 216.199219 C 220.128906 220.039062 218.863281 224.023438 217.90625 228.125 L 175.800781 228.125 L 92.992188 207.519531 C 82.519531 204.917969 71.503906 210.074219 66.800781 219.789062 C 59.40625 238.601562 73.03125 248.730469 78.917969 251.089844 L 125.304688 269.671875 C 123.253906 274.375 122.113281 279.5625 122.113281 285.011719 C 122.113281 306.265625 139.402344 323.558594 160.660156 323.558594 Z M 434.914062 306.492188 C 423.070312 306.492188 413.429688 296.855469 413.429688 285.011719 C 413.429688 273.164062 423.066406 263.527344 434.914062 263.527344 C 446.761719 263.527344 456.398438 273.164062 456.398438 285.011719 C 456.398438 296.855469 446.761719 306.492188 434.914062 306.492188 Z M 379.792969 245.1875 L 420.820312 245.1875 C 421.515625 245.1875 506.703125 224.078125 506.703125 224.078125 C 509.402344 223.410156 512.15625 224.898438 513.414062 227.222656 C 515.105469 230.839844 511.839844 234.632812 510.308594 235.246094 L 459.703125 255.519531 C 452.996094 249.875 444.347656 246.460938 434.914062 246.460938 C 419.351562 246.460938 405.921875 255.742188 399.839844 269.050781 L 379.792969 269.050781 C 379.808594 268.519531 379.804688 245.71875 379.792969 245.1875 Z M 322.1875 308.039062 L 273.386719 308.039062 C 251.007812 308.039062 232.804688 289.835938 232.804688 267.460938 C 232.804688 267.460938 232.808594 245.789062 232.820312 245.292969 L 268.84375 266.207031 C 286.695312 276.570312 308.875 276.574219 326.734375 266.207031 L 362.75 245.292969 C 362.761719 245.789062 362.769531 267.460938 362.769531 267.460938 C 362.769531 289.835938 344.566406 308.039062 322.1875 308.039062 Z M 387.085938 181.800781 L 395.753906 199.132812 L 364.515625 199.132812 C 359.816406 192.570312 354.179688 186.726562 347.792969 181.800781 Z M 291.230469 85.382812 C 291.507812 81.992188 294.386719 79.335938 297.785156 79.335938 C 301.1875 79.335938 304.066406 81.992188 304.339844 85.382812 L 310.828125 165.78125 C 306.578125 165.101562 302.226562 164.734375 297.785156 164.734375 C 293.347656 164.734375 288.992188 165.101562 284.742188 165.78125 Z M 297.785156 181.800781 C 326.828125 181.800781 351.476562 200.949219 359.777344 227.285156 L 318.164062 251.449219 C 305.597656 258.746094 289.976562 258.746094 277.410156 251.449219 L 235.796875 227.285156 C 244.097656 200.949219 268.746094 181.800781 297.785156 181.800781 Z M 199.820312 199.132812 L 208.484375 181.800781 L 247.78125 181.800781 C 241.394531 186.726562 235.757812 192.570312 231.058594 199.132812 Z M 160.660156 306.492188 C 148.8125 306.492188 139.175781 296.855469 139.175781 285.011719 C 139.175781 273.164062 148.8125 263.527344 160.660156 263.527344 C 172.503906 263.527344 182.140625 273.164062 182.140625 285.011719 C 182.140625 296.855469 172.503906 306.492188 160.660156 306.492188 Z M 85.265625 235.246094 C 83.734375 234.632812 80.316406 231.703125 82.160156 227.226562 C 83.367188 224.734375 86.183594 223.417969 88.871094 224.082031 C 88.871094 224.082031 174.058594 245.191406 174.753906 245.191406 L 215.78125 245.191406 C 215.78125 245.199219 215.765625 268.519531 215.78125 269.050781 L 195.734375 269.050781 C 189.652344 255.742188 176.222656 246.460938 160.660156 246.460938 C 151.226562 246.460938 142.578125 249.875 135.871094 255.519531 Z M 85.265625 235.246094 " fill-opacity="1" fill-rule="nonzero"/></g><path fill="#1b458f" d="M 265.21875 207.539062 L 330.355469 207.539062 L 330.355469 224.605469 L 265.21875 224.605469 Z M 265.21875 207.539062 " fill-opacity="1" fill-rule="nonzero"/><path fill="#1b458f" d="M 562.472656 594.019531 L 579.539062 594.019531 L 579.539062 616.84375 L 562.472656 616.84375 Z M 562.472656 594.019531 " fill-opacity="1" fill-rule="nonzero"/><path fill="#1b458f" d="M 584.847656 594.019531 L 601.914062 594.019531 L 601.914062 616.84375 L 584.847656 616.84375 Z M 584.847656 594.019531 " fill-opacity="1" fill-rule="nonzero"/><path fill="#1b458f" d="M 607.222656 594.019531 L 624.289062 594.019531 L 624.289062 616.84375 L 607.222656 616.84375 Z M 607.222656 594.019531 " fill-opacity="1" fill-rule="nonzero"/><path fill="#1b458f" d="M 650.863281 594.019531 L 667.929688 594.019531 L 667.929688 616.84375 L 650.863281 616.84375 Z M 650.863281 594.019531 " fill-opacity="1" fill-rule="nonzero"/><path fill="#1b458f" d="M 673.238281 594.019531 L 690.304688 594.019531 L 690.304688 616.84375 L 673.238281 616.84375 Z M 673.238281 594.019531 " fill-opacity="1" fill-rule="nonzero"/><path fill="#1b458f" d="M 695.613281 594.019531 L 712.679688 594.019531 L 712.679688 616.84375 L 695.613281 616.84375 Z M 695.613281 594.019531 " fill-opacity="1" fill-rule="nonzero"/><path fill="#1b458f" d="M 606.667969 535.507812 L 623.734375 535.507812 L 623.734375 558.332031 L 606.667969 558.332031 Z M 606.667969 535.507812 " fill-opacity="1" fill-rule="nonzero"/><path fill="#1b458f" d="M 629.042969 535.507812 L 646.109375 535.507812 L 646.109375 558.332031 L 629.042969 558.332031 Z M 629.042969 535.507812 " fill-opacity="1" fill-rule="nonzero"/><path fill="#1b458f" d="M 651.417969 535.507812 L 668.484375 535.507812 L 668.484375 558.332031 L 651.417969 558.332031 Z M 651.417969 535.507812 " fill-opacity="1" fill-rule="nonzero"/><g clip-path="url(#d0ec140c7b)"><path fill="#1b458f" d="M 750.804688 680.753906 L 750.804688 634.6875 C 750.804688 629.976562 746.988281 626.15625 742.273438 626.15625 L 734.5 626.15625 L 734.5 576.175781 C 734.5 571.464844 730.679688 567.644531 725.96875 567.644531 L 690.304688 567.644531 L 690.304688 517.664062 C 690.304688 512.953125 686.484375 509.132812 681.773438 509.132812 L 593.378906 509.132812 C 588.667969 509.132812 584.847656 512.953125 584.847656 517.664062 L 584.847656 567.644531 L 549.1875 567.644531 C 544.472656 567.644531 540.652344 571.464844 540.652344 576.175781 L 540.652344 626.15625 L 532.386719 626.15625 L 532.386719 554.648438 C 532.386719 540.535156 520.902344 529.050781 506.789062 529.050781 L 482.832031 529.050781 L 482.832031 461.640625 C 482.832031 456.929688 479.011719 453.109375 474.296875 453.109375 L 441.445312 453.109375 C 436.734375 453.109375 432.914062 456.929688 432.914062 461.640625 L 432.914062 529.050781 L 431.363281 529.050781 C 417.246094 529.050781 405.765625 540.535156 405.765625 554.648438 L 405.765625 596.277344 L 378.9375 596.277344 C 374.226562 596.277344 370.40625 600.097656 370.40625 604.808594 L 370.40625 653.070312 C 370.40625 656.152344 372.070312 658.996094 374.757812 660.507812 L 393.378906 670.96875 C 409.605469 680.082031 419.683594 697.308594 419.683594 715.917969 L 419.683594 719.148438 C 417.585938 720.765625 415.804688 722.472656 414.210938 723.996094 C 410.339844 728.789062 399.992188 736.550781 388.113281 723.996094 C 383.070312 719.171875 376.164062 712.5625 363.261719 712.5625 L 354.730469 712.5625 L 354.730469 729.628906 L 363.261719 729.628906 C 363.265625 729.628906 363.265625 729.628906 363.265625 729.628906 C 369.3125 729.628906 371.949219 732.148438 376.3125 736.328125 C 381.355469 741.152344 388.261719 747.761719 401.164062 747.761719 C 414.0625 747.761719 420.96875 741.152344 426.007812 736.324219 C 430.375 732.148438 433.007812 729.628906 439.054688 729.628906 C 445.105469 729.628906 447.738281 732.148438 452.101562 736.324219 C 457.144531 741.152344 464.050781 747.761719 476.953125 747.761719 C 489.851562 747.761719 496.757812 741.152344 501.800781 736.324219 C 506.164062 732.148438 508.800781 729.628906 514.847656 729.628906 C 520.898438 729.628906 523.535156 732.148438 527.898438 736.328125 C 532.941406 741.152344 539.847656 747.761719 552.75 747.761719 C 565.648438 747.761719 572.558594 741.152344 577.601562 736.328125 C 581.964844 732.148438 584.601562 729.628906 590.652344 729.628906 C 596.703125 729.628906 599.335938 732.148438 603.703125 736.328125 C 608.746094 741.152344 615.652344 747.761719 628.554688 747.761719 C 641.453125 747.761719 648.363281 741.152344 653.40625 736.328125 C 657.769531 732.148438 660.40625 729.628906 666.457031 729.628906 C 672.507812 729.628906 675.144531 732.148438 679.511719 736.328125 C 684.554688 741.152344 691.464844 747.761719 704.367188 747.761719 C 717.265625 747.761719 724.175781 741.152344 729.21875 736.328125 C 733.585938 732.148438 736.222656 729.628906 742.273438 729.628906 L 750.808594 729.628906 L 750.808594 712.5625 L 742.273438 712.5625 C 729.371094 712.5625 722.464844 719.171875 717.417969 723.996094 C 716.300781 725.066406 715.296875 726.023438 714.316406 726.863281 L 748.777344 686.273438 C 750.089844 684.734375 750.804688 682.773438 750.804688 680.753906 Z M 717.433594 584.710938 L 717.433594 626.15625 L 646.109375 626.15625 L 646.109375 584.710938 Z M 601.914062 526.195312 L 673.238281 526.195312 L 673.238281 567.644531 L 601.914062 567.644531 Z M 557.71875 584.710938 L 629.042969 584.710938 L 629.042969 626.15625 L 557.71875 626.15625 Z M 449.976562 470.175781 L 465.765625 470.175781 L 465.765625 529.050781 L 449.976562 529.050781 Z M 422.828125 554.648438 C 422.828125 549.945312 426.65625 546.117188 431.363281 546.117188 L 506.789062 546.117188 C 511.492188 546.117188 515.320312 549.945312 515.320312 554.648438 L 515.320312 564.238281 L 422.828125 564.238281 Z M 422.828125 581.304688 L 515.320312 581.304688 L 515.320312 626.15625 L 504.261719 626.15625 L 472.171875 598.359375 C 470.621094 597.019531 468.636719 596.277344 466.585938 596.277344 L 422.828125 596.277344 Z M 733.742188 677.617188 L 693.003906 725.601562 C 685.828125 719.089844 679.355469 712.5625 666.457031 712.5625 C 653.554688 712.5625 646.648438 719.171875 641.605469 723.996094 C 638.289062 727.171875 635.964844 729.378906 632.390625 730.261719 L 624.714844 730.261719 C 621.144531 729.378906 618.816406 727.171875 615.503906 723.996094 C 610.460938 719.171875 603.550781 712.5625 590.652344 712.5625 C 577.75 712.5625 570.84375 719.171875 565.800781 723.996094 C 562.484375 727.171875 560.160156 729.378906 556.585938 730.261719 L 548.914062 730.261719 C 545.339844 729.378906 543.011719 727.171875 539.699219 723.996094 C 534.65625 719.171875 527.75 712.5625 514.847656 712.5625 C 501.949219 712.5625 495.042969 719.171875 490 723.996094 C 486.6875 727.171875 484.359375 729.378906 480.789062 730.261719 L 473.113281 730.261719 C 469.542969 729.378906 467.21875 727.171875 463.902344 723.996094 C 458.859375 719.171875 451.730469 711.757812 436.640625 712.644531 C 435.515625 689.140625 422.378906 667.683594 401.738281 656.089844 L 387.472656 648.074219 L 387.472656 646.195312 L 448.621094 646.195312 L 480.710938 673.992188 C 482.261719 675.335938 484.246094 676.074219 486.296875 676.074219 L 733.742188 676.074219 Z M 733.742188 659.007812 L 489.476562 659.007812 L 457.390625 631.214844 C 455.835938 629.871094 453.855469 629.128906 451.804688 629.128906 L 387.472656 629.128906 L 387.472656 613.34375 L 463.40625 613.34375 L 495.496094 641.140625 C 497.046875 642.480469 499.03125 643.222656 501.082031 643.222656 L 733.742188 643.222656 Z M 733.742188 659.007812 " fill-opacity="1" fill-rule="nonzero"/></g></svg>