<svg xmlns="http://www.w3.org/2000/svg" xmlns:xlink="http://www.w3.org/1999/xlink" width="1080" zoomAndPan="magnify" viewBox="0 0 810 809.999993" height="1080" preserveAspectRatio="xMidYMid meet" version="1.0"><defs><clipPath id="a6607ba793"><path d="M 263 40.574219 L 692 40.574219 L 692 469 L 263 469 Z M 263 40.574219 " clip-rule="nonzero"/></clipPath><clipPath id="18ee649db1"><path d="M 193 417.289062 L 734.152344 417.289062 L 734.152344 655 L 193 655 Z M 193 417.289062 " clip-rule="nonzero"/></clipPath></defs><g clip-path="url(#a6607ba793)"><path fill="#1b458f" d="M 656.40625 254.746094 C 656.40625 353.554688 576.019531 433.941406 477.203125 433.941406 C 378.394531 433.941406 298.003906 353.554688 298.003906 254.746094 C 298.003906 155.929688 378.394531 75.539062 477.203125 75.539062 C 576.019531 75.539062 656.40625 155.929688 656.40625 254.746094 Z M 263.039062 254.746094 C 263.039062 373.023438 358.921875 468.90625 477.203125 468.90625 C 595.488281 468.90625 691.371094 373.023438 691.371094 254.746094 C 691.371094 136.464844 595.488281 40.574219 477.203125 40.574219 C 358.921875 40.574219 263.039062 136.464844 263.039062 254.746094 " fill-opacity="1" fill-rule="nonzero"/></g><path fill="#1b458f" d="M 462.863281 118.675781 L 462.863281 151.816406 C 431.953125 158.515625 413.796875 180.816406 413.796875 213 C 413.796875 268.765625 496.003906 272.265625 496.003906 297.761719 C 496.003906 310.191406 489.632812 315.605469 473.699219 315.605469 C 460.316406 315.605469 446.9375 310.507812 429.726562 297.761719 L 406.148438 334.726562 C 422.078125 349.066406 444.703125 356.710938 462.863281 358.945312 L 462.863281 390.808594 L 498.554688 390.808594 L 498.554688 357.03125 C 532.011719 349.066406 548.269531 324.84375 548.269531 293.9375 C 548.269531 235.945312 466.050781 234.664062 466.050781 210.449219 C 466.050781 197.707031 472.742188 193.882812 486.445312 193.882812 C 498.238281 193.882812 508.117188 198.980469 519.589844 209.171875 L 546.671875 177.945312 C 533.929688 164.566406 518.632812 154.367188 498.554688 151.179688 L 498.554688 118.675781 L 462.863281 118.675781 " fill-opacity="1" fill-rule="nonzero"/><path fill="#1b458f" d="M 263.449219 763.261719 L 307.703125 718.609375 C 313.582031 712.671875 313.664062 703.125 307.875 697.097656 L 291.265625 679.792969 L 161.195312 554.914062 L 146.054688 541.445312 C 139.839844 535.910156 130.351562 536.320312 124.628906 542.359375 L 81.589844 587.789062 C 75.78125 593.925781 75.996094 603.601562 82.082031 609.472656 L 241.8125 763.503906 C 247.882812 769.359375 257.515625 769.25 263.449219 763.261719 " fill-opacity="1" fill-rule="nonzero"/><g clip-path="url(#18ee649db1)"><path fill="#1b458f" d="M 603.058594 576.25 L 602.933594 576.25 C 603.074219 576.210938 603.125 576.210938 603.058594 576.25 Z M 539.046875 651.589844 C 548.320312 648.203125 555.785156 641.265625 562.949219 634.476562 C 629.339844 571.574219 755.660156 438.335938 731.039062 420.1875 C 729.722656 419.671875 728.398438 419.25 727.058594 418.925781 C 711.375 415.078125 694.617188 423.875 680.347656 432.414062 C 647.675781 451.964844 615.003906 471.507812 582.335938 491.058594 C 578.082031 493.605469 576.371094 498.945312 578.402344 503.46875 C 583.414062 514.617188 584.238281 525.316406 582.308594 535.324219 C 577.320312 561.226562 554.148438 579.636719 527.773438 579.636719 L 394.535156 579.636719 C 389.824219 579.636719 386.011719 575.824219 386.011719 571.121094 L 386.011719 564.847656 C 386.011719 560.125 389.855469 556.300781 394.582031 556.332031 C 429.816406 556.519531 465.054688 556.710938 500.292969 556.898438 C 522.945312 557.023438 553.121094 550.484375 554.0625 527.847656 C 554.558594 515.898438 545.097656 505.355469 534.070312 500.726562 C 523.046875 496.101562 510.707031 496.121094 498.746094 496.214844 C 464.601562 496.476562 424.972656 499.195312 389.996094 490.078125 C 352.183594 480.21875 323.339844 466.625 283.652344 480.304688 C 248.433594 492.453125 218.957031 517.210938 193.253906 544.175781 C 223.980469 573.933594 254.703125 603.679688 285.429688 633.4375 C 292.789062 640.5625 300.441406 647.878906 310.054688 651.433594 C 318.265625 654.476562 327.242188 654.515625 336.003906 654.519531 C 395.25 654.527344 454.503906 654.539062 513.757812 654.542969 C 522.292969 654.550781 531.03125 654.515625 539.046875 651.589844 " fill-opacity="1" fill-rule="nonzero"/></g></svg>