<svg xmlns="http://www.w3.org/2000/svg" xmlns:xlink="http://www.w3.org/1999/xlink" width="1080" zoomAndPan="magnify" viewBox="0 0 810 809.999993" height="1080" preserveAspectRatio="xMidYMid meet" version="1.0"><defs><clipPath id="4f9dd5c3d6"><path d="M 53.183594 52.050781 L 756.804688 52.050781 L 756.804688 757.800781 L 53.183594 757.800781 Z M 53.183594 52.050781 " clip-rule="nonzero"/></clipPath></defs><path fill="#1b458f" d="M 370.949219 712.535156 L 393.644531 712.535156 L 393.644531 689.839844 L 370.949219 689.839844 L 370.949219 712.535156 " fill-opacity="1" fill-rule="nonzero"/><path fill="#1b458f" d="M 143.972656 712.535156 L 166.671875 712.535156 L 166.671875 689.839844 L 143.972656 689.839844 L 143.972656 712.535156 " fill-opacity="1" fill-rule="nonzero"/><path fill="#1b458f" d="M 243.628906 553.652344 L 280.160156 553.652344 L 280.160156 576.351562 L 237.957031 576.351562 Z M 345.058594 576.351562 L 302.855469 576.351562 L 302.855469 553.652344 L 339.386719 553.652344 Z M 221.597656 548.15625 L 208.875 599.050781 L 374.140625 599.050781 L 361.417969 548.15625 C 358.890625 538.050781 349.847656 530.957031 339.386719 530.957031 L 243.628906 530.957031 C 233.167969 530.957031 224.125 538.050781 221.597656 548.15625 " fill-opacity="1" fill-rule="nonzero"/><path fill="#1b458f" d="M 643.316406 328.808594 L 643.316406 303.980469 L 620.621094 303.980469 L 620.621094 326.679688 L 597.921875 326.679688 L 597.921875 360.726562 C 597.921875 379.523438 613.171875 394.773438 631.96875 394.773438 C 638.21875 394.773438 643.316406 399.871094 643.316406 406.121094 L 643.316406 417.46875 L 631.96875 417.46875 C 625.71875 417.46875 620.621094 412.414062 620.621094 406.121094 L 620.621094 394.773438 L 597.921875 394.773438 L 597.921875 406.121094 C 597.921875 420.925781 607.453125 433.382812 620.621094 438.082031 L 620.621094 462.863281 L 643.316406 462.863281 L 643.316406 440.167969 L 666.015625 440.167969 L 666.015625 406.121094 C 666.015625 387.367188 650.765625 372.074219 631.96875 372.074219 C 625.71875 372.074219 620.621094 367.019531 620.621094 360.726562 L 620.621094 349.378906 L 631.96875 349.378906 C 638.21875 349.378906 643.316406 354.476562 643.316406 360.726562 L 643.316406 372.074219 L 666.015625 372.074219 L 666.015625 360.726562 C 666.015625 345.964844 656.484375 333.460938 643.316406 328.808594 " fill-opacity="1" fill-rule="nonzero"/><g clip-path="url(#4f9dd5c3d6)"><path fill="#1b458f" d="M 636.625 485.5625 L 627.3125 485.5625 C 573.539062 485.5625 529.832031 441.851562 529.832031 388.078125 C 529.832031 359.574219 542.242188 332.621094 563.875 314.089844 L 602.132812 281.285156 L 661.804688 281.285156 L 700.0625 314.089844 C 721.695312 332.621094 734.109375 359.574219 734.109375 388.078125 C 734.109375 441.851562 690.398438 485.5625 636.625 485.5625 Z M 600.980469 214.832031 L 637.730469 227.066406 L 648.414062 205.746094 L 674.304688 218.6875 L 658.347656 258.585938 L 602.621094 258.585938 L 579.925781 235.890625 Z M 392.140625 532.953125 L 407.167969 585.527344 L 461.78125 601.132812 C 448.570312 605.832031 439.039062 618.332031 439.039062 633.09375 L 439.039062 644.445312 L 166.671875 644.445312 L 166.671875 621.746094 C 166.671875 609.246094 156.476562 599.050781 143.972656 599.050781 L 121.277344 599.050781 L 121.277344 592.84375 L 174.519531 586.902344 L 199.34375 528.917969 C 204.707031 516.371094 216.988281 508.257812 230.640625 508.257812 L 359.421875 508.257812 C 374.539062 508.257812 387.972656 518.410156 392.140625 532.953125 Z M 473.085938 621.746094 L 483.949219 621.746094 C 484.082031 622.765625 484.4375 623.695312 484.4375 624.761719 L 484.4375 644.445312 L 461.738281 644.445312 L 461.738281 633.09375 C 461.738281 626.84375 466.835938 621.746094 473.085938 621.746094 Z M 437.886719 689.839844 C 436.160156 681.414062 432.433594 673.789062 427.382812 667.140625 L 484.4375 667.140625 L 484.4375 689.839844 Z M 382.296875 735.234375 C 363.5 735.234375 348.25 719.984375 348.25 701.1875 C 348.25 682.433594 363.5 667.140625 382.296875 667.140625 C 401.09375 667.140625 416.34375 682.433594 416.34375 701.1875 C 416.34375 719.984375 401.09375 735.234375 382.296875 735.234375 Z M 155.324219 735.234375 C 136.527344 735.234375 121.277344 719.984375 121.277344 701.1875 C 121.277344 682.433594 136.527344 667.140625 155.324219 667.140625 C 174.117188 667.140625 189.367188 682.433594 189.367188 701.1875 C 189.367188 719.984375 174.117188 735.234375 155.324219 735.234375 Z M 75.882812 667.140625 L 110.195312 667.140625 C 105.183594 673.789062 101.460938 681.414062 99.730469 689.839844 L 75.882812 689.839844 Z M 96.097656 595.636719 L 98.578125 595.324219 L 98.578125 644.445312 L 75.882812 644.445312 L 75.882812 618.199219 C 75.882812 606.585938 84.570312 596.921875 96.097656 595.636719 Z M 143.972656 644.445312 L 121.277344 644.445312 L 121.277344 621.746094 L 143.972656 621.746094 Z M 200.40625 667.140625 L 337.210938 667.140625 C 332.160156 673.789062 328.433594 681.414062 326.707031 689.839844 L 210.914062 689.839844 C 209.183594 681.414062 205.460938 673.789062 200.40625 667.140625 Z M 339.960938 178.792969 L 223.414062 97.222656 L 106.824219 178.835938 C 102.082031 177.683594 98.578125 173.425781 98.578125 168.328125 C 98.578125 164.695312 100.398438 161.324219 103.410156 159.332031 L 223.414062 79.3125 L 343.417969 159.332031 C 346.433594 161.324219 348.25 164.695312 348.25 168.328125 C 348.25 173.339844 344.835938 177.550781 339.960938 178.792969 Z M 280.160156 349.378906 L 280.160156 224.542969 C 280.160156 193.289062 254.710938 167.796875 223.414062 167.796875 C 192.117188 167.796875 166.671875 193.289062 166.671875 224.542969 L 166.671875 349.378906 L 121.277344 349.378906 L 121.277344 196.390625 L 223.414062 124.929688 L 325.554688 196.390625 L 325.554688 349.378906 Z M 189.367188 326.679688 L 212.066406 326.679688 L 212.066406 349.378906 L 189.367188 349.378906 Z M 189.367188 281.285156 L 212.066406 281.285156 L 212.066406 303.980469 L 189.367188 303.980469 Z M 189.367188 235.890625 L 212.066406 235.890625 L 212.066406 258.585938 L 189.367188 258.585938 Z M 191.453125 213.191406 C 196.152344 200.027344 208.652344 190.496094 223.414062 190.496094 C 238.175781 190.496094 250.679688 200.027344 255.378906 213.191406 Z M 257.460938 326.679688 L 257.460938 349.378906 L 234.765625 349.378906 L 234.765625 326.679688 Z M 257.460938 281.285156 L 257.460938 303.980469 L 234.765625 303.980469 L 234.765625 281.285156 Z M 257.460938 235.890625 L 257.460938 258.585938 L 234.765625 258.585938 L 234.765625 235.890625 Z M 714.824219 296.84375 L 679.582031 266.609375 L 703.121094 207.738281 L 643.316406 177.816406 L 643.316406 167.796875 C 643.316406 155.296875 633.121094 145.101562 620.621094 145.101562 L 361.460938 145.101562 C 359.820312 143.414062 358.046875 141.773438 356.007812 140.445312 L 223.414062 52.003906 L 90.820312 140.445312 C 81.46875 146.652344 75.882812 157.113281 75.882812 168.328125 C 75.882812 182.914062 85.324219 195.195312 98.578125 199.847656 L 98.578125 349.378906 C 98.578125 361.878906 108.773438 372.074219 121.277344 372.074219 L 325.554688 372.074219 C 338.054688 372.074219 348.25 361.878906 348.25 349.378906 L 348.25 199.894531 C 361.417969 195.371094 370.949219 183.003906 370.949219 168.328125 C 370.949219 168.152344 370.902344 167.976562 370.859375 167.796875 L 620.621094 167.796875 L 620.621094 197.453125 L 594.863281 188.855469 L 547.828125 235.890625 L 581.253906 269.316406 L 549.113281 296.84375 C 522.425781 319.71875 507.132812 352.96875 507.132812 388.078125 C 507.132812 390.339844 507.355469 392.554688 507.488281 394.773438 L 302.855469 394.773438 C 290.355469 394.773438 280.160156 404.96875 280.160156 417.46875 L 280.160156 485.5625 L 230.640625 485.5625 C 207.898438 485.5625 187.460938 499.082031 178.507812 519.960938 L 158.871094 565.800781 L 93.570312 573.070312 C 70.5625 575.640625 53.183594 595.015625 53.183594 618.199219 L 53.183594 689.839844 C 53.183594 702.339844 63.378906 712.535156 75.882812 712.535156 L 99.730469 712.535156 C 105.007812 738.425781 127.925781 757.929688 155.324219 757.929688 C 182.71875 757.929688 205.636719 738.425781 210.914062 712.535156 L 326.707031 712.535156 C 331.980469 738.425781 354.902344 757.929688 382.296875 757.929688 C 409.695312 757.929688 432.613281 738.425781 437.886719 712.535156 L 484.4375 712.535156 C 496.9375 712.535156 507.132812 702.339844 507.132812 689.839844 L 507.132812 624.761719 C 507.132812 604.589844 493.613281 586.636719 474.195312 581.09375 L 425.519531 567.175781 L 413.949219 526.746094 C 407.035156 502.496094 384.601562 485.5625 359.421875 485.5625 L 302.855469 485.5625 L 302.855469 417.46875 L 510.902344 417.46875 C 524.066406 469.558594 571.191406 508.257812 627.3125 508.257812 L 636.625 508.257812 C 702.898438 508.257812 756.804688 454.351562 756.804688 388.078125 C 756.804688 352.96875 741.511719 319.71875 714.824219 296.84375 " fill-opacity="1" fill-rule="nonzero"/></g><path fill="#1b458f" d="M 552.527344 553.652344 L 575.226562 553.652344 L 575.226562 530.957031 L 552.527344 530.957031 L 552.527344 553.652344 " fill-opacity="1" fill-rule="nonzero"/><path fill="#1b458f" d="M 620.621094 553.652344 L 643.316406 553.652344 L 643.316406 530.957031 L 620.621094 530.957031 L 620.621094 553.652344 " fill-opacity="1" fill-rule="nonzero"/><path fill="#1b458f" d="M 688.710938 553.652344 L 711.410156 553.652344 L 711.410156 530.957031 L 688.710938 530.957031 L 688.710938 553.652344 " fill-opacity="1" fill-rule="nonzero"/></svg>