<svg xmlns="http://www.w3.org/2000/svg" xmlns:xlink="http://www.w3.org/1999/xlink" width="1080" zoomAndPan="magnify" viewBox="0 0 810 809.999993" height="1080" preserveAspectRatio="xMidYMid meet" version="1.0"><defs><clipPath id="79835eb733"><path d="M 81 56.359375 L 735 56.359375 L 735 753.859375 L 81 753.859375 Z M 81 56.359375 " clip-rule="nonzero"/></clipPath></defs><g clip-path="url(#79835eb733)"><path fill="#1b458f" d="M 329.1875 534.640625 L 329.1875 539.773438 C 329.1875 611.320312 277.347656 673.378906 207.113281 686.386719 C 205.761719 686.636719 204.371094 686.636719 203.019531 686.386719 C 132.828125 673.378906 80.984375 611.320312 80.984375 539.773438 L 80.984375 442.40625 C 80.984375 437.90625 83.664062 433.84375 87.800781 432.070312 L 200.636719 383.738281 C 203.46875 382.527344 206.667969 382.527344 209.492188 383.738281 L 224.6875 390.242188 C 250.121094 365.941406 281.527344 347.832031 316.46875 338.328125 C 289.464844 322.867188 269.324219 296.675781 261.933594 265.644531 C 247.617188 265.546875 235.972656 253.761719 235.972656 239.609375 C 235.972656 228.230469 243.339844 218.488281 253.539062 214.917969 C 254.101562 165.019531 285.152344 122.558594 328.890625 105.296875 C 330.363281 98.6875 334.289062 93.5625 339.644531 89.601562 C 348.226562 83.253906 361.640625 80.527344 372.042969 79.742188 C 372.601562 79.703125 373.164062 79.699219 373.722656 79.742188 C 384.195312 80.523438 397.632812 83.253906 406.21875 89.597656 C 408.300781 91.132812 410.164062 92.84375 411.75 94.746094 C 414.417969 93.792969 417.410156 93.859375 420.109375 95.0625 C 420.109375 95.0625 445.863281 106.511719 445.863281 106.511719 C 458.507812 99.308594 471.96875 93.730469 485.984375 89.886719 L 496.144531 63.554688 C 497.820312 59.21875 501.988281 56.359375 506.640625 56.359375 L 558.390625 56.359375 C 563.046875 56.359375 567.21875 59.226562 568.890625 63.570312 C 568.890625 63.570312 579 89.890625 579 89.890625 C 593.011719 93.734375 606.472656 99.3125 619.113281 106.511719 L 644.871094 95.0625 C 649.121094 93.171875 654.101562 94.09375 657.390625 97.382812 L 693.976562 133.96875 C 697.265625 137.257812 698.191406 142.226562 696.308594 146.476562 C 696.308594 146.476562 684.898438 172.238281 684.894531 172.238281 C 692.105469 184.890625 697.683594 198.363281 701.53125 212.417969 L 727.796875 222.527344 C 732.140625 224.199219 735.003906 228.371094 735.003906 233.023438 L 735.003906 284.777344 C 735.003906 289.429688 732.140625 293.601562 727.796875 295.273438 C 727.796875 295.273438 701.523438 305.382812 701.523438 305.382812 C 697.671875 319.394531 692.066406 332.855469 684.890625 345.496094 L 693.636719 365.238281 L 700.523438 365.238281 C 716.589844 365.238281 729.714844 378.367188 729.714844 394.433594 L 729.714844 724.464844 C 729.714844 740.535156 716.59375 753.636719 700.523438 753.636719 L 424.3125 753.636719 C 408.242188 753.636719 395.117188 740.535156 395.117188 724.464844 L 395.117188 534.640625 Z M 247.417969 399.976562 L 322.371094 432.070312 C 326.507812 433.839844 329.1875 437.90625 329.1875 442.40625 L 329.1875 512.148438 L 395.117188 512.148438 L 395.117188 394.433594 C 395.117188 378.367188 408.246094 365.238281 424.3125 365.238281 L 439.667969 365.238281 C 418.871094 357.535156 396.371094 353.324219 372.886719 353.324219 C 324.941406 353.324219 281.078125 370.90625 247.417969 399.976562 Z M 285.21875 265.644531 C 296.585938 303.285156 331.625 330.832031 372.886719 330.832031 C 414.144531 330.832031 449.183594 303.285156 460.550781 265.644531 Z M 330.328125 129.21875 C 298.957031 144.515625 277.125 176.351562 276.0625 213.464844 L 305.5625 213.464844 L 305.5625 163.316406 C 305.5625 157.105469 310.601562 152.070312 316.808594 152.070312 C 323.015625 152.070312 328.054688 157.105469 328.054688 163.316406 L 328.054688 213.464844 L 417.714844 213.464844 L 417.714844 163.316406 C 417.714844 157.105469 422.753906 152.070312 428.960938 152.070312 C 435.167969 152.070312 440.207031 157.105469 440.207031 163.316406 L 440.207031 213.464844 L 469.8125 213.464844 C 468.746094 176.386719 446.882812 144.582031 415.542969 129.265625 L 409.894531 172.433594 C 409.085938 178.589844 403.4375 182.933594 397.285156 182.128906 C 391.128906 181.320312 386.785156 175.671875 387.589844 169.519531 C 387.589844 169.519531 395.035156 112.617188 395.035156 112.605469 C 395.4375 109.359375 393.183594 107.632812 390.652344 106.359375 C 385.375 103.691406 378.539062 102.703125 372.882812 102.242188 C 367.285156 102.703125 360.480469 103.691406 355.21875 106.355469 C 352.691406 107.632812 350.433594 109.363281 350.839844 112.617188 L 358.285156 169.519531 C 359.09375 175.671875 354.746094 181.320312 348.59375 182.128906 C 342.4375 182.933594 336.789062 178.589844 335.984375 172.433594 Z M 483.761719 235.957031 L 262.117188 235.957031 C 260.109375 235.957031 258.464844 237.601562 258.464844 239.609375 C 258.464844 241.566406 260.128906 243.152344 262.117188 243.152344 L 483.761719 243.152344 C 485.699219 243.152344 487.304688 241.546875 487.304688 239.609375 C 487.304688 237.625 485.722656 235.957031 483.761719 235.957031 Z M 453.453125 128.140625 C 466.15625 139.730469 476.34375 154.039062 483.101562 170.152344 C 497.71875 162.003906 514.558594 157.359375 532.488281 157.359375 C 588.578125 157.359375 634.054688 202.785156 634.054688 258.875 C 634.054688 290.347656 619.734375 318.480469 597.25 337.113281 C 598.21875 338.574219 599.097656 340.101562 599.875 341.683594 L 631.476562 341.683594 C 637.6875 341.683594 642.722656 346.71875 642.722656 352.929688 L 642.722656 365.238281 L 669.035156 365.238281 L 661.984375 349.316406 C 660.488281 345.9375 660.746094 342.039062 662.675781 338.886719 C 671.125 325.097656 677.390625 310.101562 681.128906 294.371094 C 681.988281 290.761719 684.570312 287.808594 688.03125 286.476562 L 712.511719 277.054688 C 712.511719 277.054688 712.511719 240.746094 712.511719 240.746094 L 688.03125 231.324219 C 684.566406 229.992188 681.984375 227.035156 681.128906 223.421875 C 677.390625 207.652344 671.183594 192.664062 662.691406 178.882812 C 660.746094 175.730469 660.484375 171.820312 661.984375 168.429688 L 672.621094 144.421875 L 646.949219 118.75 L 622.945312 129.425781 C 619.554688 130.933594 615.636719 130.667969 612.476562 128.722656 C 598.699219 120.230469 583.707031 114.019531 567.984375 110.285156 C 564.375 109.425781 561.417969 106.839844 560.085938 103.378906 L 550.664062 78.851562 L 514.355469 78.851562 L 504.882812 103.390625 C 503.550781 106.851562 500.597656 109.429688 496.992188 110.285156 C 481.632812 113.933594 466.96875 119.945312 453.453125 128.140625 Z M 489.929688 192.269531 C 491.425781 199.601562 492.253906 207.183594 492.339844 214.945312 C 502.429688 218.53125 509.796875 228.242188 509.796875 239.609375 C 509.796875 253.820312 498.039062 265.605469 483.835938 265.644531 C 480.578125 279.320312 474.84375 292.058594 467.136719 303.351562 C 480.421875 322.855469 502.199219 336.105469 527.15625 337.769531 C 534.558594 326.109375 547.582031 318.363281 562.40625 318.363281 C 568.640625 318.363281 574.558594 319.730469 579.871094 322.179688 C 599.109375 307.753906 611.5625 284.765625 611.5625 258.875 C 611.5625 215.210938 576.152344 179.851562 532.488281 179.851562 C 516.8125 179.851562 502.210938 184.40625 489.929688 192.269531 Z M 482.113281 387.730469 L 424.3125 387.730469 C 420.625 387.730469 417.609375 390.746094 417.609375 394.433594 L 417.609375 724.464844 C 417.609375 728.148438 420.628906 731.140625 424.3125 731.140625 L 700.523438 731.140625 C 704.207031 731.140625 707.222656 728.148438 707.222656 724.464844 L 707.222656 394.433594 C 707.222656 390.746094 704.210938 387.730469 700.523438 387.730469 L 642.722656 387.730469 L 642.722656 399.570312 C 642.722656 405.78125 637.6875 410.816406 631.476562 410.816406 L 493.359375 410.816406 C 487.148438 410.816406 482.113281 405.78125 482.113281 399.570312 Z M 429.3125 338.324219 C 448.058594 343.414062 465.78125 350.984375 482.113281 360.65625 L 482.113281 352.929688 C 482.113281 351.074219 482.5625 349.320312 483.359375 347.777344 C 471.25 341.066406 460.65625 331.945312 452.222656 321.066406 C 445.359375 327.730469 437.664062 333.539062 429.3125 338.324219 Z M 205.066406 406.3125 L 103.476562 449.824219 L 103.476562 539.773438 C 103.476562 599.832031 146.503906 652.011719 205.070312 663.871094 C 263.667969 652.011719 306.695312 599.832031 306.695312 539.773438 L 306.695312 449.824219 Z M 130.476562 552.605469 L 130.453125 552.582031 C 119.550781 541.71875 119.554688 524.101562 130.464844 513.246094 C 141.3125 502.414062 158.851562 502.394531 169.753906 513.234375 C 169.765625 513.242188 169.773438 513.25 169.78125 513.257812 C 169.78125 513.257812 187.128906 530.609375 187.128906 530.609375 L 240.394531 476.832031 L 240.410156 476.816406 C 251.207031 465.953125 268.789062 465.890625 279.65625 476.691406 C 290.582031 487.550781 290.574219 505.121094 279.796875 515.964844 C 248.171875 547.902344 238.648438 557.855469 206.828125 589.636719 C 195.964844 600.539062 178.335938 600.53125 167.503906 589.632812 Z M 146.359375 536.679688 L 183.410156 573.730469 C 183.417969 573.738281 183.425781 573.746094 183.433594 573.753906 C 185.496094 575.828125 188.839844 575.828125 190.902344 573.753906 C 190.910156 573.742188 190.921875 573.734375 190.929688 573.726562 C 222.714844 541.980469 232.226562 532.039062 263.8125 500.136719 L 263.828125 500.121094 C 265.882812 498.054688 265.878906 494.710938 263.800781 492.644531 C 261.738281 490.597656 258.410156 490.617188 256.363281 492.671875 L 195.160156 554.464844 C 193.054688 556.589844 190.1875 557.789062 187.195312 557.796875 C 184.203125 557.800781 181.332031 556.617188 179.214844 554.5 C 179.214844 554.5 153.894531 529.179688 153.882812 529.171875 C 151.789062 527.105469 148.433594 527.085938 146.359375 529.164062 C 146.351562 529.167969 146.34375 529.179688 146.335938 529.1875 C 144.261719 531.246094 144.261719 534.59375 146.335938 536.652344 C 146.34375 536.664062 146.351562 536.671875 146.359375 536.679688 Z M 566.359375 475.574219 C 560.152344 475.574219 555.113281 470.535156 555.113281 464.328125 C 555.113281 458.117188 560.152344 453.082031 566.359375 453.082031 L 640.164062 453.082031 C 646.371094 453.082031 651.410156 458.117188 651.410156 464.328125 C 651.410156 470.535156 646.371094 475.574219 640.164062 475.574219 Z M 566.359375 679.285156 C 560.152344 679.285156 555.113281 674.242188 555.113281 668.039062 C 555.113281 661.832031 560.152344 656.789062 566.359375 656.789062 L 603.261719 656.789062 C 609.46875 656.789062 614.507812 661.832031 614.507812 668.039062 C 614.507812 674.242188 609.46875 679.285156 603.261719 679.285156 Z M 481.652344 616.757812 L 512.953125 616.757812 C 524.847656 616.757812 534.53125 626.46875 534.53125 638.316406 L 534.53125 669.613281 C 534.53125 681.503906 524.839844 691.195312 512.953125 691.195312 L 481.652344 691.195312 C 469.804688 691.195312 460.09375 681.511719 460.09375 669.613281 L 460.09375 638.316406 C 460.09375 626.460938 469.796875 616.757812 481.652344 616.757812 Z M 482.585938 639.25 L 482.585938 668.703125 L 512.039062 668.703125 L 512.039062 639.25 Z M 566.359375 554.453125 C 560.152344 554.453125 555.113281 549.410156 555.113281 543.203125 C 555.113281 536.996094 560.152344 531.957031 566.359375 531.957031 L 640.164062 531.957031 C 646.371094 531.957031 651.410156 536.996094 651.410156 543.203125 C 651.410156 549.410156 646.371094 554.453125 640.164062 554.453125 Z M 481.652344 528.960938 L 512.953125 528.960938 C 524.839844 528.960938 534.53125 538.652344 534.53125 550.542969 L 534.53125 581.84375 C 534.53125 593.691406 524.847656 603.402344 512.953125 603.402344 L 481.652344 603.402344 C 469.796875 603.402344 460.09375 593.695312 460.09375 581.84375 L 460.09375 550.542969 C 460.09375 538.648438 469.804688 528.960938 481.652344 528.960938 Z M 482.585938 551.457031 L 482.585938 580.910156 L 512.039062 580.910156 L 512.039062 551.457031 Z M 481.652344 441.167969 L 512.953125 441.167969 C 524.839844 441.167969 534.53125 450.859375 534.53125 462.75 L 534.53125 494.046875 C 534.53125 505.890625 524.839844 515.628906 512.953125 515.628906 L 481.652344 515.628906 C 469.804688 515.628906 460.09375 505.894531 460.09375 494.046875 L 460.09375 462.75 C 460.09375 450.855469 469.804688 441.167969 481.652344 441.167969 Z M 482.585938 463.660156 L 482.585938 493.136719 L 512.039062 493.136719 L 512.039062 463.660156 Z M 566.359375 582.574219 C 560.152344 582.574219 555.113281 577.53125 555.113281 571.328125 C 555.113281 565.117188 560.152344 560.082031 566.359375 560.082031 L 603.261719 560.082031 C 609.46875 560.082031 614.507812 565.117188 614.507812 571.328125 C 614.507812 577.53125 609.46875 582.574219 603.261719 582.574219 Z M 566.359375 651.160156 C 560.152344 651.160156 555.113281 646.121094 555.113281 639.914062 C 555.113281 633.707031 560.152344 628.667969 566.359375 628.667969 L 640.164062 628.667969 C 646.371094 628.667969 651.410156 633.707031 651.410156 639.914062 C 651.410156 646.121094 646.371094 651.160156 640.164062 651.160156 Z M 566.359375 503.695312 C 560.152344 503.695312 555.113281 498.65625 555.113281 492.449219 C 555.113281 486.242188 560.152344 481.203125 566.359375 481.203125 L 603.261719 481.203125 C 609.46875 481.203125 614.507812 486.242188 614.507812 492.449219 C 614.507812 498.65625 609.46875 503.695312 603.261719 503.695312 Z M 504.605469 364.175781 L 504.605469 388.324219 C 504.605469 388.324219 620.230469 388.324219 620.230469 388.324219 L 620.230469 364.175781 L 592.058594 364.175781 C 586.863281 364.175781 582.34375 360.617188 581.125 355.566406 C 579.089844 347.125 571.480469 340.855469 562.40625 340.855469 C 553.347656 340.855469 545.742188 347.125 543.707031 355.566406 C 542.492188 360.617188 537.972656 364.175781 532.773438 364.175781 Z M 562.40625 362.667969 C 557.96875 362.667969 554.359375 359.058594 554.359375 354.621094 C 554.359375 350.164062 557.96875 346.550781 562.40625 346.550781 C 566.863281 346.550781 570.476562 350.164062 570.476562 354.621094 C 570.476562 359.058594 566.863281 362.667969 562.40625 362.667969 Z M 562.40625 362.667969 " fill-opacity="1" fill-rule="evenodd"/></g></svg>