<svg xmlns="http://www.w3.org/2000/svg" xmlns:xlink="http://www.w3.org/1999/xlink" width="1080" zoomAndPan="magnify" viewBox="0 0 810 809.999993" height="1080" preserveAspectRatio="xMidYMid meet" version="1.0"><defs><clipPath id="26e918d8f3"><path d="M 40 58.511719 L 777 58.511719 L 777 417 L 40 417 Z M 40 58.511719 " clip-rule="nonzero"/></clipPath><clipPath id="8b371187ee"><path d="M 148 194 L 669 194 L 669 682.511719 L 148 682.511719 Z M 148 194 " clip-rule="nonzero"/></clipPath></defs><g clip-path="url(#26e918d8f3)"><path fill="#02468f" d="M 764.714844 354.8125 L 431.238281 66.933594 C 431.007812 66.746094 430.769531 66.59375 430.550781 66.402344 C 430.023438 65.976562 429.519531 65.566406 428.976562 65.179688 C 428.558594 64.875 428.140625 64.589844 427.726562 64.308594 C 427.191406 63.945312 426.660156 63.613281 426.117188 63.292969 C 425.644531 63.015625 425.171875 62.75 424.679688 62.5 C 424.175781 62.238281 423.664062 61.980469 423.140625 61.742188 C 422.605469 61.496094 422.058594 61.25 421.515625 61.023438 C 421.035156 60.839844 420.550781 60.652344 420.0625 60.480469 C 419.46875 60.269531 418.878906 60.082031 418.28125 59.910156 C 417.816406 59.761719 417.339844 59.644531 416.867188 59.523438 C 416.246094 59.371094 415.625 59.226562 415.007812 59.113281 C 414.523438 59.019531 414.054688 58.945312 413.5625 58.875 C 412.953125 58.773438 412.328125 58.699219 411.710938 58.648438 C 411.207031 58.601562 410.703125 58.5625 410.195312 58.542969 C 409.59375 58.515625 409.015625 58.496094 408.417969 58.496094 C 407.875 58.496094 407.34375 58.515625 406.796875 58.542969 C 406.246094 58.5625 405.683594 58.601562 405.117188 58.660156 C 404.5625 58.699219 403.984375 58.773438 403.4375 58.855469 C 402.894531 58.941406 402.371094 59.019531 401.824219 59.125 C 401.261719 59.238281 400.691406 59.371094 400.113281 59.511719 C 399.589844 59.636719 399.089844 59.769531 398.566406 59.921875 C 398.015625 60.089844 397.457031 60.261719 396.914062 60.460938 C 396.382812 60.640625 395.859375 60.839844 395.332031 61.058594 C 394.828125 61.261719 394.332031 61.476562 393.820312 61.722656 C 393.277344 61.972656 392.71875 62.246094 392.175781 62.523438 C 391.714844 62.769531 391.285156 63.015625 390.851562 63.269531 C 390.269531 63.601562 389.699219 63.957031 389.167969 64.332031 C 388.75 64.597656 388.371094 64.875 387.957031 65.160156 C 387.40625 65.558594 386.875 65.984375 386.347656 66.421875 C 386.121094 66.601562 385.902344 66.753906 385.667969 66.933594 L 276.363281 161.300781 L 276.363281 123.324219 C 276.363281 113.007812 267.921875 104.550781 257.589844 104.550781 L 192.996094 104.550781 C 182.667969 104.550781 174.230469 113.007812 174.230469 123.324219 L 174.230469 249.46875 L 52.207031 354.8125 C 37.621094 367.398438 36.007812 389.429688 48.585938 403.988281 C 55.476562 411.984375 65.210938 416.089844 75.007812 416.089844 C 83.066406 416.089844 91.179688 413.285156 97.761719 407.605469 L 408.449219 139.394531 L 719.144531 407.605469 C 725.730469 413.285156 733.84375 416.089844 741.921875 416.089844 C 751.707031 416.089844 761.429688 411.984375 768.328125 403.988281 C 780.90625 389.429688 779.289062 367.398438 764.714844 354.8125 " fill-opacity="1" fill-rule="nonzero"/></g><g clip-path="url(#8b371187ee)"><path fill="#02468f" d="M 540.3125 443.183594 C 535.882812 489.640625 433.378906 576.652344 408.449219 621.433594 C 383.53125 576.652344 281.039062 489.640625 276.601562 443.183594 C 272.183594 396.71875 302.757812 367.535156 340.570312 367.535156 C 369.476562 367.535156 397.742188 390.957031 407.792969 418.4375 C 408.058594 419.167969 408.285156 420.269531 408.449219 421.636719 C 408.644531 420.269531 408.871094 419.167969 409.128906 418.4375 C 419.179688 390.957031 447.429688 367.535156 476.339844 367.535156 C 514.15625 367.535156 544.734375 396.71875 540.3125 443.183594 M 648.316406 391.433594 L 428.769531 201.886719 C 417.59375 192.253906 399.316406 192.253906 388.15625 201.886719 L 168.59375 391.433594 C 157.433594 401.074219 148.292969 421.035156 148.292969 435.785156 L 148.292969 655.714844 C 148.292969 670.464844 160.363281 682.539062 175.113281 682.539062 L 641.796875 682.539062 C 656.539062 682.539062 668.621094 670.464844 668.621094 655.714844 L 668.621094 435.785156 C 668.621094 421.035156 659.480469 401.066406 648.316406 391.433594 " fill-opacity="1" fill-rule="nonzero"/></g></svg>