<svg xmlns="http://www.w3.org/2000/svg" xmlns:xlink="http://www.w3.org/1999/xlink" width="1080" zoomAndPan="magnify" viewBox="0 0 810 809.999993" height="1080" preserveAspectRatio="xMidYMid meet" version="1.0"><defs><clipPath id="388b35ec12"><path d="M 283 371 L 347 371 L 347 445.78125 L 283 445.78125 Z M 283 371 " clip-rule="nonzero"/></clipPath><clipPath id="dba5b054f9"><path d="M 394 262 L 440.300781 262 L 440.300781 326 L 394 326 Z M 394 262 " clip-rule="nonzero"/></clipPath><clipPath id="c04b0a5f6f"><path d="M 350.308594 232.15625 L 780.058594 232.15625 L 780.058594 445.90625 L 350.308594 445.90625 Z M 350.308594 232.15625 " clip-rule="nonzero"/></clipPath></defs><path fill="#02468f" d="M 243.386719 424.636719 L 245 416.253906 L 247.675781 402.371094 C 239.523438 412.910156 224.574219 415.792969 212.988281 408.640625 C 200.632812 400.960938 196.832031 384.757812 204.464844 372.382812 C 208.808594 365.402344 215.867188 361.160156 223.425781 360.160156 L 221.464844 387.378906 L 235.375 373.757812 L 236.007812 364.992188 L 219.664062 350.789062 L 213.019531 345.011719 C 203.722656 348.117188 195.414062 354.339844 189.84375 363.328125 C 177.179688 383.765625 183.484375 410.59375 203.921875 423.265625 C 222.480469 434.753906 246.300781 430.621094 260.007812 414.46875 L 250.667969 420.179688 Z M 243.386719 424.636719 " fill-opacity="1" fill-rule="nonzero"/><path fill="#02468f" d="M 238.34375 344.269531 C 238.070312 344.195312 237.792969 344.117188 237.519531 344.046875 L 239.082031 322.28125 L 238.835938 321.429688 L 236.230469 312.492188 L 239.644531 314.4375 L 241.046875 294.945312 L 243.511719 260.636719 L 218.726562 245.28125 L 211.933594 256.25 L 230.085938 267.496094 L 229.085938 281.417969 L 182.117188 252.316406 L 162.007812 266.414062 L 92.558594 223.382812 L 75.992188 230.234375 L 121.097656 260.238281 C 126.476562 271.40625 134.585938 293.703125 126.546875 313.992188 L 118.710938 309.136719 C 125.8125 290.097656 118.773438 268.085938 100.839844 256.960938 C 80.394531 244.300781 53.566406 250.601562 40.902344 271.042969 C 31.800781 285.726562 32.539062 303.679688 41.226562 317.34375 C 44.632812 322.695312 49.226562 327.414062 54.980469 330.980469 C 72.921875 342.089844 95.769531 338.589844 109.652344 323.757812 L 161.015625 355.582031 L 226.625 315.683594 L 224.671875 342.792969 C 221.730469 342.945312 218.820312 343.40625 215.976562 344.140625 L 222.164062 344.175781 Z M 103.566406 299.753906 L 81.523438 286.097656 L 72.464844 300.714844 L 94.507812 314.375 C 86.039062 321.25 73.84375 322.40625 64.039062 316.355469 C 51.6875 308.675781 47.882812 292.472656 55.515625 280.097656 C 63.203125 267.746094 79.402344 263.945312 91.78125 271.582031 C 101.5625 277.671875 105.964844 289.109375 103.566406 299.753906 Z M 103.566406 299.753906 " fill-opacity="1" fill-rule="nonzero"/><path fill="#02468f" d="M 249.644531 291.308594 C 248.960938 292.410156 248.523438 293.578125 248.195312 294.769531 C 246.691406 300.253906 248.820312 306.289062 253.902344 309.4375 L 267.773438 287.050781 C 261.589844 283.21875 253.476562 285.125 249.644531 291.308594 Z M 249.644531 291.308594 " fill-opacity="1" fill-rule="nonzero"/><g clip-path="url(#388b35ec12)"><path fill="#02468f" d="M 342.976562 388.078125 L 333.277344 389.511719 L 312.171875 392.636719 L 317.632812 413.472656 L 320.195312 423.25 L 311.855469 417.535156 L 294.113281 405.378906 L 286.019531 424.367188 L 283.210938 430.953125 L 322.371094 446.054688 L 346.78125 382.757812 L 318.6875 371.921875 L 334.8125 382.644531 Z M 342.976562 388.078125 " fill-opacity="1" fill-rule="nonzero"/></g><path fill="#02468f" d="M 316.664062 315.542969 L 315.527344 323.527344 L 312.746094 343.085938 L 314.085938 345.039062 L 332.214844 346.253906 L 340.074219 346.78125 L 334.734375 352.570312 L 325.867188 362.1875 L 332.304688 371.554688 L 368.804688 346.480469 L 330.390625 290.558594 L 293.886719 315.636719 L 300.648438 325.476562 L 309.8125 319.796875 Z M 316.664062 315.542969 " fill-opacity="1" fill-rule="nonzero"/><path fill="#02468f" d="M 331.964844 350.015625 L 308.183594 348.417969 L 311.796875 323 L 288.355469 337.539062 L 281.632812 309.972656 L 264.933594 333.1875 L 242.457031 320.375 L 250.535156 348.113281 L 222.136719 347.945312 L 245.96875 368.660156 L 223.675781 390.488281 L 254.34375 387.683594 L 248.703125 416.964844 L 276.117188 400.199219 L 282.550781 422.890625 L 292.449219 399.664062 L 313.988281 414.425781 L 307.457031 389.523438 L 332.726562 385.78125 L 311.808594 371.871094 Z M 306.203125 381.054688 L 296.753906 382.453125 L 299.175781 391.695312 L 299.878906 394.378906 L 297.289062 392.605469 L 288.671875 386.699219 L 284.574219 396.308594 L 284.175781 397.242188 L 281.273438 387.007812 L 271.648438 392.894531 L 260.777344 399.546875 L 262.75 389.304688 L 264.902344 378.125 L 253.5625 379.160156 L 246.859375 379.773438 L 251.960938 374.777344 L 258.589844 368.285156 L 251.585938 362.199219 L 245.195312 356.644531 L 250.484375 356.675781 L 261.96875 356.742188 L 258.753906 345.71875 L 256.589844 338.285156 L 260.695312 340.625 L 267.386719 344.441406 L 271.882812 338.183594 L 277.71875 330.070312 L 280.035156 339.570312 L 282.835938 351.039062 L 292.867188 344.816406 L 300.742188 339.929688 L 299.703125 347.210938 L 298.40625 356.34375 L 307.605469 356.960938 L 313.542969 357.359375 L 305.511719 366.070312 L 298.710938 373.445312 L 307.066406 379 L 309.433594 380.578125 Z M 306.203125 381.054688 " fill-opacity="1" fill-rule="nonzero"/><path fill="#02468f" d="M 393.929688 269.074219 C 394.347656 269.628906 394.734375 270.203125 395.09375 270.796875 C 395.457031 271.386719 395.789062 271.996094 396.089844 272.625 C 396.390625 273.25 396.660156 273.886719 396.894531 274.539062 C 397.132812 275.191406 397.339844 275.855469 397.511719 276.527344 C 397.6875 277.199219 397.824219 277.878906 397.933594 278.5625 C 398.039062 279.25 398.109375 279.9375 398.148438 280.632812 C 398.1875 281.324219 398.191406 282.019531 398.164062 282.710938 C 398.132812 283.40625 398.070312 284.097656 397.972656 284.785156 C 397.875 285.472656 397.742188 286.152344 397.578125 286.828125 C 397.414062 287.5 397.21875 288.164062 396.988281 288.820312 C 396.757812 289.476562 396.496094 290.117188 396.203125 290.746094 C 395.914062 291.375 395.589844 291.992188 395.234375 292.589844 C 394.882812 293.1875 394.5 293.765625 394.09375 294.324219 C 393.683594 294.886719 393.246094 295.425781 392.78125 295.941406 C 392.320312 296.457031 391.832031 296.953125 391.320312 297.421875 C 390.808594 297.890625 390.277344 298.335938 389.722656 298.75 C 389.167969 299.167969 388.59375 299.558594 388 299.917969 C 387.40625 300.277344 386.796875 300.609375 386.171875 300.910156 C 385.546875 301.210938 384.90625 301.480469 384.253906 301.71875 C 383.601562 301.957031 382.941406 302.164062 382.269531 302.335938 C 381.597656 302.507812 380.917969 302.648438 380.230469 302.753906 C 379.546875 302.859375 378.855469 302.933594 378.164062 302.972656 C 377.46875 303.011719 376.777344 303.015625 376.082031 302.984375 C 375.390625 302.957031 374.699219 302.890625 374.011719 302.792969 C 373.324219 302.695312 372.644531 302.566406 371.96875 302.402344 C 371.292969 302.238281 370.628906 302.039062 369.976562 301.8125 C 369.320312 301.582031 368.675781 301.320312 368.046875 301.027344 C 367.417969 300.734375 366.804688 300.410156 366.207031 300.058594 C 365.609375 299.707031 365.03125 299.324219 364.46875 298.914062 C 363.910156 298.503906 363.371094 298.066406 362.855469 297.605469 C 362.335938 297.140625 361.84375 296.65625 361.375 296.144531 C 360.90625 295.632812 360.460938 295.097656 360.042969 294.542969 C 359.625 293.988281 359.238281 293.414062 358.878906 292.824219 C 358.515625 292.230469 358.1875 291.621094 357.886719 290.996094 C 357.585938 290.367188 357.316406 289.730469 357.078125 289.078125 C 356.839844 288.425781 356.632812 287.765625 356.460938 287.089844 C 356.285156 286.417969 356.148438 285.738281 356.039062 285.054688 C 355.933594 284.367188 355.863281 283.679688 355.824219 282.984375 C 355.785156 282.292969 355.78125 281.597656 355.808594 280.90625 C 355.839844 280.210938 355.902344 279.523438 356 278.835938 C 356.097656 278.148438 356.230469 277.464844 356.394531 276.792969 C 356.558594 276.117188 356.753906 275.453125 356.984375 274.796875 C 357.214844 274.140625 357.476562 273.5 357.769531 272.871094 C 358.0625 272.242188 358.382812 271.628906 358.738281 271.03125 C 359.089844 270.433594 359.472656 269.851562 359.882812 269.292969 C 360.292969 268.734375 360.726562 268.195312 361.191406 267.675781 C 361.652344 267.160156 362.140625 266.664062 362.652344 266.195312 C 363.164062 265.726562 363.695312 265.285156 364.25 264.867188 C 364.804688 264.449219 365.378906 264.058594 365.972656 263.699219 C 366.566406 263.339844 367.175781 263.007812 367.800781 262.707031 C 368.425781 262.40625 369.066406 262.136719 369.71875 261.898438 C 370.371094 261.660156 371.03125 261.457031 371.703125 261.28125 C 372.375 261.109375 373.054688 260.96875 373.742188 260.863281 C 374.425781 260.757812 375.117188 260.683594 375.808594 260.644531 C 376.503906 260.609375 377.195312 260.601562 377.890625 260.632812 C 378.582031 260.664062 379.273438 260.726562 379.960938 260.824219 C 380.648438 260.921875 381.328125 261.050781 382.003906 261.214844 C 382.679688 261.378906 383.34375 261.578125 384 261.808594 C 384.652344 262.035156 385.296875 262.296875 385.925781 262.589844 C 386.554688 262.882812 387.167969 263.207031 387.765625 263.558594 C 388.363281 263.914062 388.941406 264.292969 389.503906 264.703125 C 390.0625 265.113281 390.601562 265.550781 391.117188 266.011719 C 391.636719 266.476562 392.128906 266.960938 392.597656 267.472656 C 393.070312 267.984375 393.511719 268.519531 393.929688 269.074219 Z M 393.929688 269.074219 " fill-opacity="1" fill-rule="nonzero"/><path fill="#02468f" d="M 355.097656 226.960938 C 359.125 229.101562 361.988281 231.179688 363.035156 231.972656 C 365.082031 233.5625 366.351562 235.785156 366.667969 238.285156 C 366.984375 240.78125 366.308594 243.253906 364.765625 245.242188 C 362.96875 247.558594 360.253906 248.890625 357.316406 248.890625 C 355.207031 248.890625 353.214844 248.207031 351.546875 246.914062 L 351.390625 246.800781 L 351.289062 246.726562 C 351.058594 246.554688 350.691406 246.296875 350.226562 245.984375 C 349.347656 245.394531 347.945312 244.5 346.277344 243.613281 C 345.074219 242.957031 343.796875 242.378906 342.550781 241.898438 C 343.101562 243.023438 343.648438 244.121094 344.171875 245.167969 C 347.769531 254.238281 357.433594 260.957031 365.023438 257.621094 C 372.613281 254.289062 379.164062 243.699219 374.480469 229.882812 C 367.921875 210.921875 361.445312 200.289062 346.710938 185.222656 C 335.097656 175.023438 325.921875 180.15625 319.15625 185.523438 C 318.972656 185.667969 318.792969 185.8125 318.617188 185.953125 C 318.460938 186.0625 318.304688 186.160156 318.152344 186.277344 L 318.152344 186.273438 L 289.230469 208.539062 L 248.316406 184.785156 C 242.691406 181.519531 235.484375 183.429688 232.21875 189.054688 C 228.949219 194.683594 230.863281 201.890625 236.492188 205.15625 L 284.242188 232.882812 C 286.085938 233.953125 288.128906 234.480469 290.160156 234.480469 C 292.703125 234.480469 295.230469 233.65625 297.339844 232.027344 L 324.730469 210.9375 C 327.429688 214.453125 329.894531 218.242188 332.167969 222.09375 C 333.605469 221.835938 335.085938 221.695312 336.617188 221.695312 C 344.148438 221.765625 350.449219 224.542969 355.097656 226.960938 Z M 355.097656 226.960938 " fill-opacity="1" fill-rule="nonzero"/><path fill="#02468f" d="M 336.632812 238.660156 C 339.480469 238.597656 343.828125 240.132812 347.160156 241.953125 C 348.839844 242.839844 350.285156 243.75 351.277344 244.421875 C 351.773438 244.753906 352.160156 245.027344 352.402344 245.207031 C 352.527344 245.296875 352.617188 245.359375 352.664062 245.398438 C 352.679688 245.410156 352.691406 245.417969 352.703125 245.425781 C 355.992188 247.976562 360.726562 247.375 363.277344 244.085938 C 365.828125 240.796875 365.226562 236.058594 361.9375 233.511719 L 361.9375 233.507812 C 361.710938 233.335938 358.734375 231.03125 354.230469 228.632812 C 349.699219 226.28125 343.703125 223.644531 336.632812 223.582031 C 333.625 223.578125 330.375 224.132812 327.257812 225.621094 C 322.539062 227.835938 318.613281 232.199219 316.296875 237.871094 C 313.933594 243.574219 312.796875 250.632812 312.785156 259.734375 C 312.785156 260.757812 312.800781 261.808594 312.832031 262.890625 C 312.953125 266.976562 316.300781 270.210938 320.367188 270.210938 C 320.4375 270.210938 320.511719 270.210938 320.585938 270.207031 C 324.746094 270.085938 328.023438 266.613281 327.902344 262.453125 C 327.875 261.515625 327.859375 260.609375 327.859375 259.734375 C 327.828125 249.300781 329.796875 243.605469 331.488281 241.285156 C 332.339844 240.085938 333.03125 239.589844 333.769531 239.222656 C 334.507812 238.867188 335.410156 238.660156 336.632812 238.660156 Z M 336.632812 238.660156 " fill-opacity="1" fill-rule="nonzero"/><g clip-path="url(#dba5b054f9)"><path fill="#02468f" d="M 439.1875 280.675781 L 419.839844 275.042969 L 425.960938 264.566406 C 426.253906 264.070312 426.214844 263.449219 425.863281 262.996094 C 425.511719 262.535156 424.921875 262.339844 424.367188 262.492188 L 411.097656 266.140625 C 410.34375 266.34375 409.898438 267.121094 410.105469 267.875 C 410.3125 268.628906 411.089844 269.070312 411.84375 268.867188 L 421.769531 266.140625 L 416.484375 275.183594 C 416.265625 275.554688 416.230469 276.015625 416.390625 276.421875 C 416.550781 276.824219 416.890625 277.128906 417.308594 277.253906 L 434.425781 282.234375 L 421.398438 287.367188 C 420.949219 287.542969 420.625 287.933594 420.53125 288.40625 C 420.4375 288.878906 420.585938 289.363281 420.933594 289.699219 L 432.519531 300.902344 L 417.765625 299.847656 C 417.304688 299.816406 416.855469 300.011719 416.566406 300.371094 C 416.273438 300.734375 416.179688 301.210938 416.308594 301.65625 L 420.855469 317.238281 L 407.558594 307.027344 C 407.179688 306.734375 406.675781 306.65625 406.226562 306.816406 C 405.777344 306.976562 405.433594 307.355469 405.324219 307.820312 L 402.355469 320.234375 L 397.269531 310.574219 C 396.902344 309.886719 396.050781 309.621094 395.359375 309.984375 C 394.667969 310.347656 394.402344 311.203125 394.769531 311.894531 L 394.765625 311.894531 L 401.605469 324.875 C 401.851562 325.339844 402.335938 325.628906 402.855469 325.628906 C 402.914062 325.628906 402.972656 325.625 403.03125 325.617188 C 403.617188 325.542969 404.09375 325.117188 404.230469 324.542969 L 407.566406 310.59375 L 422.5625 322.113281 C 423.046875 322.488281 423.71875 322.503906 424.222656 322.160156 C 424.726562 321.816406 424.953125 321.183594 424.78125 320.597656 L 419.59375 302.8125 L 436.199219 304 C 436.789062 304.042969 437.347656 303.707031 437.589844 303.164062 C 437.832031 302.625 437.707031 301.984375 437.28125 301.574219 L 424.476562 289.1875 L 439.3125 283.347656 C 439.878906 283.125 440.234375 282.574219 440.207031 281.964844 C 440.175781 281.363281 439.769531 280.84375 439.1875 280.675781 Z M 439.1875 280.675781 " fill-opacity="1" fill-rule="nonzero"/></g><g clip-path="url(#c04b0a5f6f)"><path fill="#02468f" d="M 356.71875 268.71875 C 356.824219 268.117188 356.960938 267.519531 357.125 266.929688 C 357.289062 266.339844 357.484375 265.761719 357.703125 265.191406 C 357.925781 264.617188 358.175781 264.058594 358.453125 263.515625 C 358.730469 262.96875 359.03125 262.4375 359.359375 261.917969 C 359.691406 261.402344 360.042969 260.902344 360.421875 260.421875 C 360.800781 259.941406 361.199219 259.476562 361.625 259.035156 C 362.046875 258.59375 362.492188 258.171875 362.957031 257.773438 C 363.421875 257.375 363.902344 257 364.40625 256.648438 C 364.90625 256.296875 365.425781 255.972656 365.957031 255.671875 C 366.492188 255.371094 367.039062 255.097656 367.601562 254.847656 C 368.160156 254.601562 368.730469 254.382812 369.3125 254.191406 C 369.894531 254.003906 370.484375 253.839844 371.082031 253.707031 C 371.679688 253.574219 372.285156 253.472656 372.890625 253.398438 C 373.5 253.324219 374.109375 253.28125 374.722656 253.269531 C 375.335938 253.253906 375.945312 253.273438 376.558594 253.320312 C 377.167969 253.363281 377.773438 253.441406 378.378906 253.546875 C 378.980469 253.652344 379.578125 253.789062 380.167969 253.953125 C 380.757812 254.121094 381.335938 254.3125 381.910156 254.535156 C 382.480469 254.757812 383.039062 255.003906 383.585938 255.28125 C 384.128906 255.558594 384.660156 255.863281 385.179688 256.191406 C 385.695312 256.519531 386.195312 256.875 386.675781 257.25 C 387.15625 257.628906 387.621094 258.03125 388.0625 258.453125 C 388.503906 258.878906 388.925781 259.320312 389.324219 259.785156 C 389.722656 260.25 390.097656 260.734375 390.449219 261.234375 C 390.800781 261.738281 391.128906 262.253906 391.425781 262.789062 C 391.726562 263.320312 392 263.867188 392.25 264.429688 C 392.496094 264.988281 392.714844 265.5625 392.90625 266.144531 C 393.09375 266.726562 393.257812 267.316406 393.390625 267.914062 C 393.523438 268.511719 393.625 269.113281 393.699219 269.722656 C 393.773438 270.328125 393.816406 270.941406 393.828125 271.550781 C 393.84375 272.164062 393.824219 272.777344 393.78125 273.386719 C 393.734375 273.996094 393.65625 274.605469 393.550781 275.207031 C 393.445312 275.8125 393.308594 276.40625 393.144531 276.996094 C 392.980469 277.585938 392.785156 278.167969 392.5625 278.738281 C 392.339844 279.308594 392.09375 279.867188 391.816406 280.414062 C 391.539062 280.960938 391.234375 281.492188 390.90625 282.007812 C 390.578125 282.523438 390.222656 283.023438 389.847656 283.503906 C 389.46875 283.988281 389.066406 284.449219 388.644531 284.890625 C 388.222656 285.335938 387.777344 285.753906 387.3125 286.152344 C 386.847656 286.554688 386.363281 286.929688 385.863281 287.28125 C 385.359375 287.632812 384.84375 287.957031 384.308594 288.257812 C 383.777344 288.558594 383.230469 288.832031 382.667969 289.078125 C 382.109375 289.324219 381.535156 289.542969 380.953125 289.734375 C 380.371094 289.925781 379.78125 290.085938 379.183594 290.21875 C 378.585938 290.351562 377.984375 290.453125 377.375 290.527344 C 376.769531 290.601562 376.15625 290.644531 375.546875 290.660156 C 374.933594 290.671875 374.320312 290.65625 373.710938 290.609375 C 373.101562 290.5625 372.492188 290.484375 371.890625 290.378906 C 371.289062 290.273438 370.691406 290.136719 370.101562 289.972656 C 369.511719 289.808594 368.929688 289.613281 368.359375 289.394531 C 367.789062 289.171875 367.230469 288.921875 366.683594 288.644531 C 366.136719 288.367188 365.605469 288.066406 365.089844 287.738281 C 364.574219 287.40625 364.074219 287.054688 363.59375 286.675781 C 363.109375 286.296875 362.648438 285.898438 362.207031 285.472656 C 361.761719 285.050781 361.34375 284.605469 360.945312 284.140625 C 360.542969 283.675781 360.167969 283.195312 359.820312 282.691406 C 359.46875 282.191406 359.140625 281.671875 358.839844 281.140625 C 358.539062 280.605469 358.265625 280.058594 358.019531 279.496094 C 357.773438 278.9375 357.554688 278.367188 357.363281 277.785156 C 357.171875 277.203125 357.011719 276.613281 356.878906 276.015625 C 356.746094 275.417969 356.644531 274.8125 356.570312 274.207031 C 356.496094 273.597656 356.453125 272.988281 356.4375 272.375 C 356.425781 271.761719 356.441406 271.152344 356.488281 270.539062 C 356.535156 269.929688 356.613281 269.324219 356.71875 268.71875 Z M 473.070312 283.9375 L 466.910156 288.992188 C 466.863281 291.808594 466.75 295.226562 466.5 298.855469 C 466.121094 304.410156 465.417969 310.425781 464.144531 315.484375 L 471.34375 309.585938 L 480.578125 302.011719 L 508.210938 313.664062 C 508.777344 313.898438 509.359375 314.074219 509.960938 314.195312 C 510.5625 314.316406 511.167969 314.378906 511.78125 314.378906 C 512.394531 314.382812 513.003906 314.324219 513.605469 314.207031 C 514.207031 314.085938 514.789062 313.914062 515.359375 313.679688 C 515.925781 313.449219 516.464844 313.160156 516.976562 312.824219 C 517.488281 312.484375 517.960938 312.101562 518.394531 311.667969 C 518.832031 311.238281 519.222656 310.769531 519.566406 310.261719 C 519.910156 309.753906 520.199219 309.214844 520.4375 308.652344 C 520.675781 308.085938 520.855469 307.503906 520.980469 306.902344 C 521.105469 306.300781 521.167969 305.695312 521.171875 305.082031 C 521.179688 304.46875 521.121094 303.859375 521.007812 303.257812 C 520.894531 302.65625 520.722656 302.070312 520.492188 301.503906 C 520.261719 300.933594 519.980469 300.394531 519.644531 299.878906 C 519.308594 299.367188 518.925781 298.890625 518.496094 298.453125 C 518.066406 298.015625 517.601562 297.625 517.09375 297.277344 C 516.585938 296.933594 516.050781 296.636719 515.488281 296.398438 L 482.648438 282.550781 C 481.863281 282.21875 481.046875 282 480.199219 281.890625 C 479.355469 281.78125 478.507812 281.789062 477.664062 281.910156 C 476.820312 282.035156 476.007812 282.265625 475.230469 282.613281 C 474.449219 282.957031 473.726562 283.398438 473.070312 283.9375 Z M 441.859375 327.507812 C 445.609375 326.925781 449.273438 325.988281 452.84375 324.695312 C 453.777344 324.359375 454.667969 323.925781 455.511719 323.402344 C 455.652344 323.050781 455.875 322.757812 456.175781 322.523438 C 456.726562 322.066406 457.175781 321.53125 457.527344 320.910156 C 459.277344 318.101562 460.5 312.8125 461.296875 306.691406 C 461.363281 306.195312 461.421875 305.691406 461.480469 305.1875 C 461.65625 303.699219 461.808594 302.183594 461.941406 300.644531 C 462.085938 298.917969 462.199219 297.179688 462.292969 295.453125 C 462.34375 294.515625 462.386719 293.589844 462.421875 292.667969 L 462.199219 292.847656 L 462.933594 270.933594 L 486.464844 249.027344 C 486.921875 248.609375 487.332031 248.148438 487.695312 247.652344 C 488.0625 247.152344 488.375 246.621094 488.632812 246.0625 C 488.894531 245.5 489.09375 244.921875 489.242188 244.320312 C 489.386719 243.71875 489.46875 243.109375 489.496094 242.492188 C 489.519531 241.875 489.484375 241.261719 489.386719 240.648438 C 489.289062 240.039062 489.132812 239.445312 488.917969 238.863281 C 488.703125 238.285156 488.433594 237.734375 488.109375 237.207031 C 487.785156 236.679688 487.410156 236.191406 486.988281 235.738281 C 486.570312 235.285156 486.109375 234.878906 485.605469 234.519531 C 485.105469 234.15625 484.570312 233.847656 484.007812 233.59375 C 483.445312 233.335938 482.863281 233.140625 482.261719 233 C 481.660156 232.859375 481.050781 232.777344 480.433594 232.757812 C 479.816406 232.738281 479.203125 232.78125 478.59375 232.882812 C 477.980469 232.984375 477.386719 233.144531 476.808594 233.363281 C 476.234375 233.582031 475.683594 233.855469 475.15625 234.183594 C 474.632812 234.511719 474.148438 234.886719 473.699219 235.3125 L 447.316406 259.871094 C 446.40625 260.71875 445.691406 261.710938 445.175781 262.847656 C 444.65625 263.980469 444.378906 265.171875 444.335938 266.414062 L 443.570312 289.390625 L 443.273438 298.269531 C 426.847656 304.136719 416.730469 292.949219 415.546875 291.542969 C 414.710938 290.515625 413.75 289.625 412.660156 288.867188 L 415.46875 282.84375 L 417.449219 278.59375 C 417.863281 277.707031 418.109375 276.773438 418.1875 275.796875 C 418.265625 274.820312 418.175781 273.863281 417.910156 272.917969 L 410.160156 245.296875 C 410.019531 244.773438 409.828125 244.269531 409.589844 243.785156 C 409.347656 243.296875 409.0625 242.839844 408.730469 242.410156 C 408.398438 241.980469 408.03125 241.585938 407.621094 241.230469 C 407.210938 240.875 406.769531 240.5625 406.300781 240.292969 C 405.828125 240.027344 405.335938 239.808594 404.820312 239.636719 C 404.304688 239.464844 403.777344 239.347656 403.242188 239.28125 C 402.703125 239.214844 402.164062 239.203125 401.621094 239.242188 C 401.082031 239.285156 400.550781 239.378906 400.027344 239.523438 C 399.503906 239.671875 399 239.867188 398.519531 240.113281 C 398.035156 240.359375 397.582031 240.652344 397.15625 240.988281 C 396.730469 241.324219 396.34375 241.699219 395.992188 242.113281 C 395.640625 242.527344 395.332031 242.972656 395.070312 243.445312 C 394.808594 243.921875 394.59375 244.414062 394.429688 244.933594 C 394.265625 245.449219 394.152344 245.976562 394.09375 246.515625 C 394.035156 247.054688 394.027344 247.59375 394.074219 248.136719 C 394.125 248.675781 394.222656 249.207031 394.375 249.726562 L 401.304688 274.425781 L 397.097656 283.449219 L 392.484375 293.351562 L 391.453125 295.570312 L 391.304688 295.886719 C 391.121094 296.296875 390.976562 296.71875 390.863281 297.152344 L 386.671875 305.039062 L 379.773438 318.035156 L 355.890625 327.382812 C 355.386719 327.578125 354.910156 327.820312 354.457031 328.109375 C 354.003906 328.402344 353.582031 328.734375 353.195312 329.105469 C 352.808594 329.480469 352.460938 329.886719 352.152344 330.328125 C 351.84375 330.769531 351.582031 331.238281 351.367188 331.730469 C 351.152344 332.222656 350.984375 332.730469 350.871094 333.257812 C 350.753906 333.785156 350.691406 334.316406 350.679688 334.851562 C 350.671875 335.390625 350.710938 335.925781 350.808594 336.457031 C 350.902344 336.984375 351.046875 337.5 351.242188 338 C 351.4375 338.503906 351.683594 338.980469 351.972656 339.433594 C 352.261719 339.886719 352.59375 340.308594 352.96875 340.695312 C 353.339844 341.082031 353.746094 341.429688 354.1875 341.738281 C 354.632812 342.046875 355.097656 342.308594 355.589844 342.523438 C 356.085938 342.738281 356.59375 342.90625 357.121094 343.019531 C 357.644531 343.136719 358.175781 343.199219 358.714844 343.210938 C 359.253906 343.21875 359.789062 343.179688 360.316406 343.082031 C 360.847656 342.988281 361.363281 342.84375 361.863281 342.648438 L 388.574219 332.195312 C 389.488281 331.835938 390.308594 331.332031 391.039062 330.683594 C 391.773438 330.03125 392.367188 329.273438 392.828125 328.40625 L 398.421875 317.875 L 399.742188 315.386719 C 399.789062 315.425781 399.828125 315.464844 399.871094 315.5 L 401.433594 312.207031 L 402.429688 310.097656 C 402.539062 309.882812 402.679688 309.695312 402.851562 309.53125 C 403.03125 309.34375 403.238281 309.191406 403.46875 309.078125 C 403.699219 308.964844 403.945312 308.894531 404.203125 308.867188 C 404.457031 308.839844 404.710938 308.859375 404.960938 308.925781 C 405.210938 308.988281 405.445312 309.09375 405.65625 309.242188 C 405.867188 309.386719 406.050781 309.566406 406.199219 309.777344 C 406.347656 309.988281 406.453125 310.21875 406.519531 310.46875 C 406.585938 310.71875 406.605469 310.972656 406.582031 311.230469 C 406.558594 311.488281 406.488281 311.730469 406.375 311.964844 L 403.410156 318.238281 C 403.738281 318.472656 404.066406 318.707031 404.40625 318.9375 C 408.730469 321.917969 413.398438 324.191406 418.40625 325.757812 C 423.417969 327.328125 428.550781 328.125 433.800781 328.144531 C 436.503906 328.136719 439.1875 327.925781 441.859375 327.507812 Z M 464.765625 388.070312 C 465.089844 385.148438 465.5625 382.25 466.183594 379.378906 L 462.03125 381.351562 L 456.519531 383.972656 L 459.136719 378.460938 L 462.582031 371.21875 L 455.023438 368.535156 L 449.277344 366.488281 L 455.023438 364.445312 L 462.582031 361.761719 L 459.136719 354.519531 L 456.519531 349.003906 L 462.03125 351.625 L 469.273438 355.066406 L 471.957031 347.511719 L 474 341.761719 L 476.046875 347.511719 L 478.734375 355.066406 L 485.976562 351.625 L 491.484375 349.003906 L 489.742188 352.675781 C 492.855469 351.332031 496.171875 350.039062 499.597656 348.804688 L 506.765625 333.726562 L 482.867188 345.085938 L 474 320.152344 L 465.136719 345.085938 L 441.238281 333.726562 L 452.597656 357.621094 L 427.667969 366.488281 L 452.597656 375.355469 L 441.238281 399.253906 Z M 561.863281 418.023438 C 561.863281 418.9375 561.816406 419.851562 561.726562 420.761719 C 561.636719 421.671875 561.503906 422.578125 561.324219 423.476562 C 561.144531 424.371094 560.921875 425.257812 560.65625 426.136719 C 560.386719 427.011719 560.078125 427.871094 559.730469 428.71875 C 559.378906 429.5625 558.988281 430.386719 558.554688 431.195312 C 558.121094 432.003906 557.652344 432.785156 557.144531 433.546875 C 556.632812 434.308594 556.089844 435.042969 555.507812 435.75 C 554.925781 436.457031 554.3125 437.132812 553.664062 437.78125 C 553.015625 438.425781 552.339844 439.039062 551.632812 439.621094 C 550.921875 440.203125 550.1875 440.746094 549.425781 441.253906 C 548.664062 441.761719 547.882812 442.230469 547.074219 442.664062 C 546.265625 443.09375 545.4375 443.484375 544.59375 443.832031 C 543.746094 444.183594 542.886719 444.492188 542.011719 444.753906 C 541.132812 445.019531 540.246094 445.242188 539.347656 445.421875 C 538.453125 445.597656 537.546875 445.734375 536.636719 445.820312 C 535.726562 445.910156 534.8125 445.957031 533.898438 445.953125 C 532.980469 445.953125 532.066406 445.910156 531.15625 445.820312 C 530.246094 445.730469 529.34375 445.59375 528.445312 445.414062 C 527.546875 445.234375 526.660156 445.011719 525.785156 444.746094 C 524.910156 444.480469 524.046875 444.171875 523.203125 443.820312 C 522.355469 443.472656 521.53125 443.078125 520.722656 442.648438 C 519.917969 442.214844 519.132812 441.746094 518.371094 441.238281 C 517.609375 440.726562 516.875 440.183594 516.167969 439.601562 C 515.460938 439.019531 514.785156 438.40625 514.136719 437.757812 C 513.492188 437.109375 512.878906 436.433594 512.296875 435.726562 C 511.714844 435.019531 511.171875 434.285156 510.664062 433.523438 C 510.15625 432.761719 509.6875 431.976562 509.253906 431.167969 C 508.824219 430.363281 508.433594 429.535156 508.082031 428.6875 C 507.734375 427.84375 507.425781 426.980469 507.160156 426.105469 C 506.894531 425.230469 506.671875 424.34375 506.496094 423.445312 C 506.316406 422.546875 506.183594 421.644531 506.09375 420.730469 C 506.003906 419.820312 505.960938 418.90625 505.960938 417.992188 C 505.960938 417.078125 506.003906 416.164062 506.09375 415.253906 C 506.183594 414.34375 506.320312 413.4375 506.5 412.539062 C 506.675781 411.640625 506.898438 410.753906 507.164062 409.878906 C 507.433594 409.003906 507.738281 408.144531 508.089844 407.296875 C 508.441406 406.453125 508.832031 405.625 509.265625 404.820312 C 509.695312 404.011719 510.167969 403.226562 510.675781 402.464844 C 511.183594 401.707031 511.726562 400.972656 512.308594 400.265625 C 512.890625 399.554688 513.503906 398.878906 514.152344 398.230469 C 514.800781 397.585938 515.476562 396.972656 516.183594 396.390625 C 516.890625 395.808594 517.625 395.265625 518.386719 394.757812 C 519.148438 394.25 519.933594 393.777344 520.742188 393.347656 C 521.546875 392.917969 522.375 392.527344 523.21875 392.175781 C 524.066406 391.824219 524.925781 391.519531 525.804688 391.253906 C 526.679688 390.988281 527.566406 390.765625 528.464844 390.585938 C 529.363281 390.40625 530.265625 390.273438 531.175781 390.183594 C 532.089844 390.09375 533 390.050781 533.917969 390.050781 C 534.832031 390.050781 535.746094 390.09375 536.65625 390.183594 C 537.570312 390.273438 538.472656 390.410156 539.371094 390.589844 C 540.269531 390.765625 541.15625 390.988281 542.035156 391.253906 C 542.910156 391.519531 543.773438 391.828125 544.617188 392.179688 C 545.464844 392.53125 546.289062 392.921875 547.097656 393.355469 C 547.90625 393.785156 548.691406 394.257812 549.453125 394.765625 C 550.214844 395.273438 550.949219 395.820312 551.65625 396.402344 C 552.363281 396.984375 553.039062 397.597656 553.6875 398.246094 C 554.335938 398.894531 554.949219 399.570312 555.53125 400.28125 C 556.109375 400.988281 556.65625 401.722656 557.164062 402.484375 C 557.671875 403.246094 558.140625 404.03125 558.574219 404.839844 C 559.003906 405.648438 559.394531 406.472656 559.746094 407.320312 C 560.09375 408.167969 560.402344 409.027344 560.667969 409.90625 C 560.933594 410.78125 561.152344 411.667969 561.332031 412.566406 C 561.507812 413.464844 561.644531 414.371094 561.730469 415.28125 C 561.820312 416.195312 561.863281 417.109375 561.863281 418.023438 Z M 545.9375 418.023438 C 545.9375 417.234375 545.859375 416.449219 545.707031 415.675781 C 545.550781 414.902344 545.324219 414.148438 545.023438 413.417969 C 544.71875 412.6875 544.351562 411.996094 543.910156 411.339844 C 543.472656 410.683594 542.972656 410.074219 542.414062 409.515625 C 541.859375 408.957031 541.25 408.457031 540.59375 408.019531 C 539.9375 407.582031 539.242188 407.210938 538.515625 406.90625 C 537.785156 406.605469 537.03125 406.375 536.257812 406.222656 C 535.484375 406.070312 534.699219 405.992188 533.910156 405.992188 C 533.121094 405.992188 532.339844 406.070312 531.5625 406.222656 C 530.789062 406.375 530.035156 406.605469 529.308594 406.90625 C 528.578125 407.210938 527.882812 407.582031 527.226562 408.019531 C 526.570312 408.457031 525.964844 408.957031 525.40625 409.515625 C 524.847656 410.074219 524.347656 410.683594 523.910156 411.339844 C 523.472656 411.996094 523.101562 412.6875 522.800781 413.417969 C 522.496094 414.148438 522.269531 414.902344 522.117188 415.675781 C 521.960938 416.449219 521.886719 417.234375 521.886719 418.023438 C 521.886719 418.8125 521.964844 419.59375 522.117188 420.371094 C 522.273438 421.144531 522.5 421.894531 522.804688 422.625 C 523.105469 423.355469 523.476562 424.046875 523.917969 424.703125 C 524.355469 425.359375 524.855469 425.96875 525.414062 426.527344 C 525.972656 427.085938 526.582031 427.582031 527.238281 428.019531 C 527.894531 428.460938 528.589844 428.828125 529.320312 429.128906 C 530.050781 429.433594 530.800781 429.660156 531.578125 429.8125 C 532.351562 429.964844 533.132812 430.042969 533.921875 430.042969 C 534.710938 430.042969 535.492188 429.964844 536.265625 429.808594 C 537.042969 429.65625 537.792969 429.429688 538.519531 429.125 C 539.25 428.824219 539.941406 428.453125 540.597656 428.015625 C 541.253906 427.578125 541.859375 427.078125 542.417969 426.519531 C 542.976562 425.960938 543.472656 425.355469 543.910156 424.699219 C 544.351562 424.042969 544.71875 423.351562 545.023438 422.621094 C 545.324219 421.894531 545.550781 421.140625 545.703125 420.367188 C 545.859375 419.59375 545.933594 418.8125 545.933594 418.023438 Z M 733.324219 418.023438 C 733.324219 418.9375 733.277344 419.851562 733.1875 420.761719 C 733.097656 421.675781 732.964844 422.578125 732.785156 423.476562 C 732.605469 424.375 732.382812 425.261719 732.117188 426.136719 C 731.851562 427.015625 731.542969 427.875 731.191406 428.71875 C 730.839844 429.566406 730.449219 430.394531 730.015625 431.199219 C 729.585938 432.007812 729.113281 432.792969 728.605469 433.550781 C 728.097656 434.3125 727.550781 435.046875 726.972656 435.753906 C 726.390625 436.464844 725.773438 437.140625 725.128906 437.789062 C 724.480469 438.433594 723.800781 439.046875 723.09375 439.628906 C 722.386719 440.210938 721.652344 440.753906 720.890625 441.261719 C 720.128906 441.769531 719.34375 442.242188 718.535156 442.671875 C 717.730469 443.101562 716.902344 443.492188 716.054688 443.84375 C 715.210938 444.195312 714.347656 444.503906 713.472656 444.765625 C 712.597656 445.03125 711.707031 445.253906 710.8125 445.433594 C 709.914062 445.613281 709.007812 445.746094 708.097656 445.835938 C 707.1875 445.925781 706.273438 445.96875 705.355469 445.96875 C 704.441406 445.96875 703.527344 445.921875 702.617188 445.832031 C 701.707031 445.742188 700.800781 445.609375 699.902344 445.429688 C 699.003906 445.25 698.117188 445.027344 697.242188 444.761719 C 696.367188 444.496094 695.503906 444.1875 694.660156 443.835938 C 693.8125 443.488281 692.988281 443.09375 692.179688 442.664062 C 691.371094 442.230469 690.585938 441.761719 689.828125 441.253906 C 689.066406 440.742188 688.332031 440.199219 687.625 439.617188 C 686.914062 439.035156 686.238281 438.421875 685.589844 437.773438 C 684.945312 437.128906 684.328125 436.449219 683.75 435.742188 C 683.167969 435.035156 682.625 434.300781 682.113281 433.539062 C 681.605469 432.777344 681.136719 431.992188 680.703125 431.183594 C 680.273438 430.375 679.882812 429.550781 679.53125 428.703125 C 679.183594 427.859375 678.875 426.996094 678.609375 426.121094 C 678.34375 425.246094 678.121094 424.355469 677.941406 423.460938 C 677.765625 422.5625 677.628906 421.65625 677.539062 420.746094 C 677.449219 419.835938 677.40625 418.921875 677.40625 418.003906 C 677.40625 417.089844 677.453125 416.175781 677.542969 415.265625 C 677.632812 414.355469 677.765625 413.449219 677.945312 412.550781 C 678.121094 411.652344 678.34375 410.765625 678.609375 409.890625 C 678.878906 409.015625 679.183594 408.152344 679.535156 407.308594 C 679.886719 406.460938 680.277344 405.632812 680.710938 404.828125 C 681.140625 404.019531 681.609375 403.234375 682.121094 402.472656 C 682.628906 401.710938 683.171875 400.976562 683.753906 400.269531 C 684.335938 399.5625 684.949219 398.886719 685.597656 398.238281 C 686.246094 397.589844 686.921875 396.976562 687.628906 396.394531 C 688.335938 395.816406 689.070312 395.269531 689.832031 394.761719 C 690.59375 394.253906 691.378906 393.78125 692.1875 393.351562 C 692.992188 392.917969 693.820312 392.527344 694.667969 392.179688 C 695.511719 391.828125 696.375 391.519531 697.25 391.253906 C 698.125 390.988281 699.011719 390.765625 699.910156 390.585938 C 700.808594 390.410156 701.714844 390.273438 702.625 390.183594 C 703.535156 390.09375 704.449219 390.050781 705.363281 390.050781 C 706.28125 390.050781 707.195312 390.09375 708.105469 390.183594 C 709.019531 390.273438 709.921875 390.410156 710.820312 390.585938 C 711.71875 390.765625 712.605469 390.988281 713.484375 391.253906 C 714.359375 391.519531 715.222656 391.828125 716.066406 392.179688 C 716.914062 392.53125 717.742188 392.921875 718.550781 393.351562 C 719.355469 393.785156 720.140625 394.253906 720.902344 394.765625 C 721.664062 395.273438 722.398438 395.820312 723.109375 396.398438 C 723.816406 396.980469 724.492188 397.597656 725.140625 398.242188 C 725.789062 398.890625 726.402344 399.570312 726.984375 400.277344 C 727.566406 400.984375 728.109375 401.722656 728.617188 402.484375 C 729.125 403.246094 729.597656 404.03125 730.027344 404.839844 C 730.460938 405.644531 730.851562 406.472656 731.199219 407.320312 C 731.550781 408.167969 731.859375 409.027344 732.125 409.90625 C 732.390625 410.78125 732.613281 411.667969 732.789062 412.566406 C 732.96875 413.464844 733.101562 414.371094 733.191406 415.28125 C 733.28125 416.195312 733.324219 417.109375 733.324219 418.023438 Z M 717.390625 418.023438 C 717.390625 417.234375 717.3125 416.453125 717.160156 415.675781 C 717.007812 414.902344 716.777344 414.152344 716.476562 413.421875 C 716.175781 412.691406 715.804688 412 715.367188 411.34375 C 714.925781 410.6875 714.429688 410.078125 713.871094 409.519531 C 713.3125 408.960938 712.707031 408.464844 712.050781 408.023438 C 711.394531 407.585938 710.699219 407.214844 709.96875 406.914062 C 709.242188 406.609375 708.488281 406.382812 707.714844 406.226562 C 706.941406 406.074219 706.160156 405.996094 705.371094 405.996094 C 704.578125 405.996094 703.796875 406.074219 703.023438 406.226562 C 702.25 406.382812 701.496094 406.609375 700.769531 406.910156 C 700.039062 407.214844 699.34375 407.585938 698.6875 408.023438 C 698.03125 408.460938 697.425781 408.960938 696.867188 409.519531 C 696.308594 410.078125 695.808594 410.683594 695.371094 411.339844 C 694.933594 411.996094 694.5625 412.691406 694.261719 413.417969 C 693.957031 414.148438 693.730469 414.902344 693.578125 415.675781 C 693.421875 416.449219 693.347656 417.230469 693.347656 418.019531 C 693.347656 418.808594 693.421875 419.59375 693.578125 420.367188 C 693.730469 421.140625 693.960938 421.890625 694.261719 422.621094 C 694.5625 423.351562 694.933594 424.042969 695.375 424.699219 C 695.8125 425.355469 696.308594 425.964844 696.867188 426.523438 C 697.425781 427.082031 698.035156 427.578125 698.691406 428.015625 C 699.347656 428.457031 700.039062 428.824219 700.769531 429.128906 C 701.5 429.429688 702.25 429.65625 703.027344 429.8125 C 703.800781 429.964844 704.582031 430.042969 705.371094 430.042969 C 706.160156 430.042969 706.941406 429.964844 707.714844 429.808594 C 708.488281 429.65625 709.242188 429.425781 709.96875 429.125 C 710.699219 428.824219 711.390625 428.453125 712.046875 428.015625 C 712.703125 427.574219 713.308594 427.078125 713.867188 426.519531 C 714.425781 425.960938 714.921875 425.355469 715.363281 424.699219 C 715.800781 424.042969 716.171875 423.351562 716.472656 422.621094 C 716.773438 421.894531 717.003906 421.140625 717.15625 420.367188 C 717.3125 419.59375 717.390625 418.8125 717.390625 418.023438 Z M 780.152344 394.710938 C 780 399.433594 779.746094 408.960938 777.878906 412.179688 C 777.667969 412.597656 777.359375 412.921875 776.953125 413.152344 C 771.640625 415.695312 753.519531 418.003906 740.664062 420.460938 C 741.460938 420.308594 740.789062 418.84375 740.789062 418.023438 C 740.789062 416.863281 740.734375 415.703125 740.621094 414.550781 C 740.503906 413.394531 740.335938 412.25 740.109375 411.113281 C 739.882812 409.972656 739.601562 408.851562 739.265625 407.738281 C 738.925781 406.628906 738.539062 405.539062 738.09375 404.464844 C 737.648438 403.394531 737.152344 402.347656 736.605469 401.324219 C 736.058594 400.300781 735.464844 399.304688 734.820312 398.339844 C 734.175781 397.378906 733.484375 396.445312 732.75 395.550781 C 732.011719 394.652344 731.234375 393.792969 730.414062 392.972656 C 729.59375 392.152344 728.734375 391.375 727.839844 390.640625 C 726.941406 389.902344 726.011719 389.210938 725.046875 388.566406 C 724.082031 387.921875 723.085938 387.328125 722.0625 386.78125 C 721.042969 386.234375 719.992188 385.738281 718.921875 385.292969 C 717.851562 384.851562 716.757812 384.460938 715.648438 384.125 C 714.539062 383.785156 713.414062 383.503906 712.277344 383.277344 C 711.136719 383.050781 709.992188 382.882812 708.835938 382.769531 C 707.683594 382.65625 706.527344 382.597656 705.367188 382.597656 C 704.207031 382.597656 703.046875 382.65625 701.894531 382.769531 C 700.738281 382.882812 699.59375 383.050781 698.453125 383.277344 C 697.316406 383.503906 696.191406 383.785156 695.082031 384.125 C 693.972656 384.460938 692.878906 384.851562 691.808594 385.292969 C 690.738281 385.738281 689.691406 386.234375 688.667969 386.78125 C 687.644531 387.328125 686.648438 387.921875 685.683594 388.566406 C 684.71875 389.210938 683.789062 389.902344 682.890625 390.640625 C 681.996094 391.375 681.136719 392.152344 680.316406 392.972656 C 679.496094 393.792969 678.71875 394.652344 677.980469 395.550781 C 677.246094 396.445312 676.554688 397.378906 675.910156 398.339844 C 675.265625 399.304688 674.671875 400.300781 674.125 401.324219 C 673.578125 402.347656 673.082031 403.394531 672.636719 404.464844 C 672.195312 405.539062 671.804688 406.628906 671.464844 407.738281 C 671.128906 408.847656 670.847656 409.972656 670.621094 411.113281 C 670.394531 412.25 670.226562 413.394531 670.113281 414.550781 C 669.996094 415.703125 669.941406 416.863281 669.941406 418.023438 C 669.941406 418.84375 670.011719 419.65625 670.066406 420.464844 L 569.222656 420.464844 C 569.265625 419.65625 569.328125 418.84375 569.328125 418.023438 C 569.332031 416.175781 569.191406 414.339844 568.90625 412.511719 C 568.621094 410.6875 568.195312 408.894531 567.628906 407.136719 C 567.066406 405.375 566.367188 403.671875 565.53125 402.023438 C 564.699219 400.371094 563.746094 398.796875 562.664062 397.296875 C 561.585938 395.796875 560.394531 394.390625 559.097656 393.078125 C 557.796875 391.765625 556.402344 390.5625 554.914062 389.464844 C 553.425781 388.371094 551.859375 387.398438 550.21875 386.550781 C 548.578125 385.699219 546.882812 384.980469 545.128906 384.398438 C 543.375 383.816406 541.589844 383.371094 539.765625 383.066406 C 537.941406 382.761719 536.109375 382.601562 534.261719 382.585938 C 532.414062 382.570312 530.574219 382.699219 528.746094 382.96875 C 526.917969 383.242188 525.125 383.652344 523.359375 384.207031 C 521.597656 384.761719 519.886719 385.445312 518.234375 386.269531 C 516.578125 387.089844 514.996094 388.03125 513.488281 389.101562 C 511.980469 390.171875 510.566406 391.351562 509.242188 392.640625 C 507.921875 393.929688 506.707031 395.316406 505.601562 396.796875 C 505.25 397.261719 504.878906 397.714844 504.550781 398.199219 C 502.574219 401.125 501.070312 404.277344 500.035156 407.65625 C 499.003906 411.035156 498.492188 414.488281 498.496094 418.023438 C 498.496094 418.824219 498.566406 419.609375 498.621094 420.402344 C 484.566406 419.027344 472.957031 418.386719 470.667969 417.808594 C 464.734375 416.308594 463.746094 412.355469 463.828125 400.984375 C 463.828125 400.984375 463.558594 398.847656 468.496094 398.523438 C 468.484375 398.105469 468.492188 397.703125 468.484375 397.292969 C 468.40625 391.570312 468.953125 385.90625 470.125 380.300781 C 471.726562 372.621094 473.902344 367.773438 473.902344 367.773438 C 475.691406 365.023438 480.417969 362.148438 486.570312 359.355469 C 489.59375 357.984375 492.957031 356.632812 496.5 355.328125 C 516.226562 348.058594 541.269531 342.222656 541.269531 342.222656 L 582.671875 311.074219 C 585.945312 308.738281 589.496094 306.960938 593.324219 305.734375 C 597.15625 304.507812 601.082031 303.894531 605.101562 303.894531 L 686.355469 303.894531 C 688.699219 303.894531 691.023438 304.105469 693.332031 304.53125 C 695.636719 304.953125 697.886719 305.582031 700.078125 306.414062 C 702.269531 307.246094 704.367188 308.273438 706.375 309.488281 C 708.378906 310.703125 710.257812 312.089844 712.011719 313.648438 L 739.90625 338.4375 L 763.558594 344.078125 C 769.132812 346.222656 772.882812 350.308594 773.855469 353.945312 C 773.90625 354.144531 773.960938 354.402344 774.015625 354.621094 C 774.613281 357.019531 775.253906 360.390625 775.832031 364.289062 L 769.523438 364.289062 C 769.238281 364.289062 768.953125 364.316406 768.675781 364.378906 C 768.394531 364.4375 768.125 364.523438 767.863281 364.640625 C 767.601562 364.757812 767.355469 364.898438 767.125 365.066406 C 766.894531 365.234375 766.683594 365.425781 766.492188 365.636719 C 766.296875 365.847656 766.132812 366.078125 765.988281 366.324219 C 765.84375 366.574219 765.726562 366.832031 765.640625 367.105469 C 765.550781 367.375 765.492188 367.652344 765.460938 367.9375 C 765.429688 368.222656 765.429688 368.507812 765.457031 368.789062 L 766.183594 378.195312 C 766.207031 378.519531 766.261719 378.839844 766.347656 379.15625 C 766.433594 379.46875 766.546875 379.773438 766.6875 380.066406 C 766.828125 380.359375 766.996094 380.636719 767.191406 380.898438 C 767.382812 381.160156 767.601562 381.402344 767.839844 381.625 C 768.078125 381.84375 768.335938 382.042969 768.613281 382.214844 C 768.886719 382.390625 769.179688 382.535156 769.480469 382.652344 C 769.785156 382.773438 770.097656 382.863281 770.417969 382.921875 C 770.738281 382.984375 771.058594 383.011719 771.386719 383.011719 L 776.816406 383.011719 C 776.84375 383.976562 777.714844 386.070312 777.714844 386.980469 L 779.039062 389.628906 C 779.839844 391.230469 780.210938 392.921875 780.152344 394.710938 Z M 498.292969 381.425781 C 500.316406 379.199219 502.273438 375.808594 503.777344 372.378906 C 505.679688 368.042969 506.835938 363.703125 506.53125 361.578125 C 506.414062 360.75 506.09375 360.226562 505.476562 360.226562 C 504.96875 360.375 504.492188 360.527344 504.003906 360.679688 C 499.785156 361.984375 496.152344 363.273438 493.121094 364.496094 C 485.605469 367.523438 481.644531 370.140625 480.777344 371.59375 C 479.789062 373.242188 479.191406 375.554688 478.746094 377.914062 C 478.367188 379.894531 478.097656 381.90625 477.804688 383.59375 C 477.777344 383.761719 477.765625 383.933594 477.777344 384.105469 C 477.785156 384.277344 477.8125 384.445312 477.859375 384.609375 C 477.90625 384.773438 477.972656 384.929688 478.054688 385.082031 C 478.136719 385.230469 478.234375 385.371094 478.347656 385.5 C 478.464844 385.628906 478.589844 385.742188 478.730469 385.84375 C 478.867188 385.941406 479.015625 386.027344 479.175781 386.09375 C 479.332031 386.160156 479.496094 386.207031 479.667969 386.238281 C 479.835938 386.265625 480.003906 386.277344 480.175781 386.269531 C 485.230469 386.054688 492.671875 385.398438 496.066406 383.351562 C 496.902344 382.816406 497.644531 382.175781 498.292969 381.425781 Z M 641.984375 313.769531 L 605.101562 313.769531 C 602.144531 313.761719 599.253906 314.199219 596.433594 315.089844 C 593.613281 315.980469 590.996094 317.28125 588.582031 318.988281 L 567.0625 335.429688 C 562.660156 338.792969 565.039062 345.824219 570.578125 345.824219 L 641.984375 345.824219 Z M 722.132812 335.855469 L 705.449219 321.03125 C 704.144531 319.871094 702.746094 318.839844 701.253906 317.933594 C 699.761719 317.03125 698.199219 316.269531 696.566406 315.648438 C 694.9375 315.027344 693.261719 314.558594 691.546875 314.246094 C 689.828125 313.929688 688.097656 313.769531 686.351562 313.769531 L 655.414062 313.769531 L 655.414062 345.824219 L 718.34375 345.824219 C 723.589844 345.824219 726.050781 339.339844 722.132812 335.855469 Z M 722.132812 335.855469 " fill-opacity="1" fill-rule="nonzero"/></g></svg>