<svg xmlns="http://www.w3.org/2000/svg" xmlns:xlink="http://www.w3.org/1999/xlink" width="1080" zoomAndPan="magnify" viewBox="0 0 810 809.999993" height="1080" preserveAspectRatio="xMidYMid meet" version="1.0"><path fill="#02468f" d="M 419.878906 253.433594 C 418.785156 255.125 417.292969 256.042969 415.726562 256.417969 C 415.703125 256.417969 415.703125 256.46875 415.652344 256.46875 C 389.082031 270.238281 362.390625 282.441406 332.6875 285.96875 C 337.136719 297.625 340.839844 309.679688 343.824219 322.058594 C 353.316406 315.199219 363.53125 309.628906 373.972656 304.285156 C 386.820312 297.699219 403.796875 294.070312 414.035156 283.730469 C 414.90625 281.421875 416.917969 279.679688 420.25 279.855469 C 440.507812 281 457.78125 267.601562 477.613281 265.214844 C 477.835938 265.042969 478.035156 264.84375 478.285156 264.667969 C 480.59375 263.328125 481.367188 262.234375 481.566406 260.742188 C 481.339844 260.519531 481.019531 260.292969 480.84375 260.046875 C 480.320312 259.648438 479.304688 259.050781 478.707031 258.804688 C 474.28125 257.210938 468.988281 257.335938 464.019531 257.511719 C 463.394531 257.609375 462.652344 257.660156 461.855469 257.609375 C 459.371094 257.757812 456.933594 257.808594 454.820312 257.609375 C 447.539062 257.238281 443.960938 254.851562 444.132812 253.980469 C 444.332031 252.839844 448.507812 253.1875 454.226562 252.191406 C 454.347656 250.527344 454.972656 250.15625 454.996094 249.882812 C 455.046875 249.882812 455.046875 249.832031 455.046875 249.832031 C 454.871094 249.832031 455.046875 249.832031 454.921875 249.757812 C 454.300781 248.089844 453.03125 247.121094 450.722656 243.941406 C 450.222656 243.195312 449.378906 241.828125 449.476562 239.765625 C 449.527344 238.597656 449.925781 237.726562 450.449219 236.90625 C 450.894531 236.261719 451.515625 235.613281 451.964844 235.292969 C 454.078125 233.777344 455.320312 233.304688 457.457031 232.582031 C 460.015625 232.0625 461.359375 232.109375 463.246094 232.0625 C 464.988281 232.0625 466.726562 232.160156 468.492188 232.308594 C 471.945312 232.605469 475.351562 233.179688 478.605469 234 C 481.886719 234.917969 485.070312 235.886719 488.199219 238.199219 C 488.324219 238.273438 488.523438 238.472656 488.699219 238.597656 C 490.808594 237.082031 492.972656 235.613281 495.160156 234.097656 C 483.503906 226.640625 471.351562 223.511719 456.710938 227.734375 C 441.476562 232.109375 428.527344 239.839844 419.878906 253.433594 " fill-opacity="1" fill-rule="nonzero"/><path fill="#02468f" d="M 470.429688 243.121094 C 472.914062 243.445312 476.421875 244.4375 480.421875 245.132812 C 481.066406 245.28125 481.738281 245.332031 482.386719 245.40625 C 482.609375 244.761719 482.855469 244.113281 483.128906 243.542969 C 481.464844 242.648438 479.226562 241.925781 476.792969 241.40625 C 473.960938 240.757812 470.925781 240.363281 467.796875 240.039062 C 466.203125 239.890625 464.664062 239.839844 463.148438 239.816406 C 461.832031 239.765625 459.964844 239.890625 459.417969 239.9375 C 458.824219 240.0625 457.855469 240.4375 457.207031 240.757812 C 457.679688 241.503906 458.402344 242.425781 459.046875 243.492188 C 459.46875 244.164062 459.917969 244.859375 460.339844 245.78125 C 460.589844 246.253906 460.613281 246.476562 460.761719 246.800781 C 460.835938 246.972656 461.109375 247.816406 461.160156 248.214844 C 461.359375 249.011719 461.308594 250.03125 461.085938 251.023438 C 462.601562 250.800781 464.167969 250.527344 465.832031 250.351562 C 470.207031 249.78125 475.523438 249.558594 481.191406 251.597656 C 481.191406 251.398438 481.242188 251.273438 481.242188 251.125 C 480.472656 250.898438 479.726562 250.699219 479.03125 250.476562 C 474.605469 248.910156 471.574219 247.171875 469.460938 245.980469 C 467.347656 244.734375 466.28125 244.113281 466.28125 243.566406 C 466.230469 243.070312 467.894531 242.699219 470.429688 243.121094 " fill-opacity="1" fill-rule="nonzero"/><path fill="#02468f" d="M 464.886719 280.179688 L 465.460938 281.820312 C 465.65625 282.363281 465.757812 282.835938 465.808594 283.410156 C 466.203125 289.125 466.328125 294.84375 466.453125 300.382812 C 466.652344 311.023438 466.902344 322.007812 469.1875 333.042969 C 471.972656 346.191406 474.183594 357.175781 475.25 368.757812 L 475.449219 371.019531 L 477.488281 370.050781 C 479.476562 369.128906 481.464844 368.335938 483.378906 367.738281 L 484.722656 367.292969 L 484.472656 365.925781 C 478.457031 334.359375 473.761719 307.988281 472.691406 280.152344 L 472.617188 278.238281 L 470.753906 278.660156 C 469.484375 278.960938 468.21875 279.308594 466.925781 279.65625 L 466.976562 281.273438 L 466.578125 279.730469 L 464.886719 280.179688 " fill-opacity="1" fill-rule="nonzero"/><path fill="#02468f" d="M 292.128906 222.269531 C 291.855469 228.058594 292.699219 232.757812 295.507812 237.304688 C 300.402344 240.585938 305.796875 243.195312 311.9375 244.734375 C 312.382812 244.636719 312.855469 244.585938 313.402344 244.539062 C 334.703125 244.089844 354.0625 246.054688 372.03125 232.433594 C 375.3125 229.996094 378.542969 231.191406 380.382812 233.726562 C 380.882812 234.097656 381.453125 234.496094 381.949219 235.066406 C 385.777344 239.390625 388.808594 242.746094 392.539062 236.90625 C 395.621094 232.011719 397.65625 226.691406 399.570312 221.25 C 399.71875 220.800781 399.894531 220.429688 400.144531 220.054688 C 400.042969 218.390625 400.589844 216.652344 402.105469 215.136719 C 410.132812 206.984375 417.390625 197.910156 425.644531 189.984375 C 423.457031 188.839844 421.292969 187.125 418.3125 185.535156 C 402.753906 177.183594 400.265625 197.488281 389.777344 200.398438 C 386.648438 201.214844 383.191406 200.171875 380.210938 199.425781 C 367.757812 196.496094 363.484375 200.125 353.390625 205.691406 C 345.710938 209.914062 339.546875 207.628906 332.789062 203.628906 C 331.125 202.683594 330.652344 201.167969 330.851562 199.699219 C 330.800781 199.425781 330.699219 199.203125 330.699219 198.929688 C 330.898438 194.929688 330.625 189.535156 329.558594 184.316406 L 326.972656 183.222656 C 325.707031 182.675781 324.3125 182.128906 323.246094 182.203125 C 322.101562 182.128906 321.503906 182.453125 320.957031 183.046875 C 320.261719 183.496094 319.839844 184.738281 319.390625 186.03125 L 317.402344 191.699219 L 312.433594 189.585938 C 311.511719 189.210938 311.066406 189.113281 310.964844 189.039062 C 310.867188 188.890625 310.320312 189.210938 309.898438 189.933594 C 308.878906 191.375 308.703125 193.6875 308.929688 195.226562 C 309.128906 196.84375 309.773438 198.058594 310.171875 198.929688 C 311.066406 199.898438 311.6875 200.621094 311.464844 201.214844 C 311.238281 201.789062 310.445312 202.1875 308.976562 202.1875 C 307.039062 201.863281 304.605469 200.496094 302.9375 197.738281 C 301.421875 194.953125 300.402344 191.152344 301.894531 186.628906 C 302.640625 184.464844 304.207031 181.707031 307.460938 180.289062 C 308.703125 179.769531 309.949219 179.59375 311.191406 179.59375 C 311.9375 178.25 312.632812 176.910156 313.949219 175.765625 C 315.191406 174.347656 317.082031 173.503906 318.769531 172.808594 C 320.4375 172.410156 322.152344 172.1875 323.617188 172.3125 C 323.46875 171.664062 323.46875 171.019531 323.34375 170.371094 C 320.683594 167.613281 317.355469 165.972656 312.707031 166.296875 C 298.664062 167.339844 295.757812 186.902344 297.84375 198.085938 C 298.066406 198.78125 298.8125 199.527344 298.8125 200.347656 C 298.8125 200.398438 298.8125 200.398438 298.8125 200.398438 C 294.191406 207.378906 292.5 214.9375 292.128906 222.269531 " fill-opacity="1" fill-rule="nonzero"/><path fill="#02468f" d="M 284.996094 112.4375 C 283.527344 111.171875 282.609375 109.257812 282.0625 107.441406 C 281.042969 103.714844 281.714844 100.359375 282.558594 97.375 C 283.054688 95.761719 283.328125 94.667969 284.199219 92.851562 C 284.820312 91.609375 285.417969 90.367188 286.011719 89.175781 C 287.679688 86.539062 289.367188 84.105469 291.308594 82.265625 C 295.085938 78.414062 299.136719 75.828125 302.714844 74.210938 C 309.824219 71.03125 314.59375 70.632812 314.917969 71.554688 C 315.339844 72.648438 311.238281 74.910156 305.472656 78.960938 C 302.566406 80.972656 299.460938 83.65625 296.601562 87.0625 C 295.132812 88.703125 294.066406 90.589844 292.871094 92.429688 C 292.324219 93.699219 291.753906 94.867188 291.15625 96.160156 C 290.835938 96.828125 290.335938 98.421875 290.015625 99.488281 C 289.320312 101.824219 289.046875 104.136719 289.417969 105.527344 C 289.742188 106.894531 290.511719 107.640625 292.003906 108.460938 L 296.875 111.269531 L 293.195312 114.453125 C 288.125 118.777344 284.722656 123.796875 284.621094 126.953125 C 284.496094 128.617188 285.09375 129.859375 285.441406 130.878906 C 286.136719 131.898438 286.4375 132.644531 286.136719 132.917969 C 285.863281 133.242188 285.144531 133.140625 283.976562 132.644531 C 282.734375 131.898438 280.941406 130.332031 280.296875 127.476562 C 279.652344 124.667969 280.347656 121.3125 281.8125 118.230469 C 282.683594 116.339844 283.875 114.5 285.269531 112.710938 C 285.191406 112.613281 285.09375 112.511719 284.996094 112.4375 Z M 364.003906 172.734375 C 370.441406 169.429688 379.414062 163.785156 384.433594 154.167969 L 388.585938 146.214844 L 391.46875 154.8125 C 391.839844 156.007812 392.386719 157.226562 392.8125 157.722656 C 392.8125 157.722656 392.8125 157.722656 392.859375 157.722656 C 393.359375 157.546875 394.601562 156.527344 395.445312 155.609375 C 395.667969 155.410156 396.015625 155.011719 396.316406 154.691406 C 396.8125 154.144531 396.8125 154.042969 397.136719 153.671875 L 398.527344 151.957031 C 399.523438 150.914062 400.144531 149.46875 400.914062 148.226562 C 401.707031 146.984375 402.28125 145.667969 402.851562 144.277344 C 405.1875 139.03125 406.257812 133.738281 406.902344 129.363281 C 407.398438 124.816406 407.398438 121.585938 407.226562 118.875 C 406.855469 116.242188 406.855469 114.675781 407.351562 114.5 C 407.847656 114.351562 408.84375 115.542969 410.085938 117.929688 C 411.179688 120.292969 412.273438 124.714844 412.371094 129.585938 C 412.421875 134.609375 411.824219 140.597656 409.464844 146.910156 C 408.964844 148.527344 408.371094 150.117188 407.449219 151.683594 C 406.582031 153.25 405.933594 154.964844 404.640625 156.480469 L 402.851562 158.765625 L 402.058594 159.785156 L 401.136719 160.804688 C 399.671875 162.320312 398.328125 163.886719 395.445312 165.027344 C 394.203125 165.550781 392.339844 165.875 390.550781 165.277344 C 389.15625 164.804688 388.164062 163.984375 387.417969 163.164062 C 384.757812 166.421875 381.703125 169.128906 378.71875 171.21875 C 374.171875 174.300781 369.695312 176.1875 365.894531 177.332031 C 358.238281 179.644531 353.390625 179.394531 353.269531 178.574219 C 353.070312 177.554688 357.445312 176.039062 364.003906 172.734375 Z M 403.125 60.492188 C 403.773438 60.542969 404.839844 60.867188 405.933594 61.414062 C 408.144531 62.480469 410.980469 64.59375 414.085938 67.625 C 417.117188 70.707031 420.472656 74.636719 423.65625 79.554688 C 425.21875 82.042969 426.785156 84.75 427.929688 88.207031 C 428.203125 89.125 428.453125 90.09375 428.574219 91.210938 C 428.574219 92.429688 428.824219 93.773438 427.707031 95.761719 C 427.53125 96.085938 427.285156 96.308594 427.058594 96.53125 C 427.753906 97.375 428.453125 98.148438 429.046875 98.992188 C 438.566406 112.363281 441.375 127.699219 439.488281 138.335938 C 438.566406 143.730469 436.40625 147.730469 434.566406 150.09375 C 432.578125 152.328125 431.160156 153.199219 430.789062 152.875 C 429.769531 152.105469 433.722656 147.132812 434.042969 137.738281 C 434.390625 128.59375 431.0625 115.195312 422.734375 103.539062 C 421.121094 101.230469 419.28125 99.265625 417.441406 97.375 L 407.449219 87.335938 L 420.96875 90.839844 C 420.96875 90.640625 420.945312 90.515625 420.894531 90.269531 C 420.25 87.832031 419.058594 85.296875 417.8125 82.960938 C 415.328125 78.265625 412.546875 74.210938 410.207031 70.933594 C 407.847656 67.675781 405.785156 65.242188 404.320312 63.625 C 402.902344 62.007812 401.882812 61.289062 402.03125 60.816406 C 402.105469 60.59375 402.480469 60.492188 403.125 60.492188 Z M 284.871094 155.011719 C 295.855469 153.671875 305.894531 149.894531 314.96875 158.167969 C 317.949219 158.492188 320.585938 159.335938 322.972656 160.582031 L 322.972656 160.53125 C 323.617188 160.308594 324.636719 161.003906 325.78125 162.320312 C 335.648438 169.601562 339.277344 184.9375 339.027344 197.488281 C 352.074219 203.304688 358.886719 188.242188 370.714844 189.4375 C 375.734375 189.933594 377.253906 190.28125 382.398438 191.472656 C 390.722656 193.363281 391.839844 187.273438 396.390625 182.949219 C 400.914062 178.625 404.964844 174.894531 411.648438 174.894531 C 418.632812 174.894531 427.332031 184.789062 433.496094 182.625 C 433.820312 182.527344 434.09375 182.527344 434.417969 182.527344 C 436.527344 180.910156 438.765625 179.371094 441.101562 177.976562 C 441.375 177.828125 441.597656 177.753906 441.898438 177.605469 C 449.601562 161.175781 457.355469 146.859375 453.082031 127.847656 C 450.398438 115.816406 447.042969 103.8125 441.699219 92.679688 C 431.929688 72.273438 417.070312 48.015625 393.953125 40.933594 C 340.792969 24.578125 284.894531 72.324219 264.789062 118.128906 C 265.285156 133.140625 267.273438 157.125 284.871094 155.011719 " fill-opacity="1" fill-rule="nonzero"/><path fill="#02468f" d="M 580.832031 149.023438 C 581.128906 149.121094 581.429688 149.171875 581.726562 149.171875 C 582.445312 149.171875 583.144531 148.925781 583.714844 148.476562 C 587.941406 145.144531 590.476562 138.609375 589.878906 132.621094 C 589.53125 128.792969 587.816406 125.984375 585.03125 124.691406 C 584.4375 124.417969 583.789062 124.269531 583.019531 124.121094 C 582.769531 124.046875 582.523438 123.996094 582.296875 123.945312 C 582.050781 123.746094 581.777344 123.597656 581.453125 123.472656 C 580.210938 123.027344 578.792969 123.398438 577.949219 124.394531 C 573.324219 129.785156 577.378906 143.058594 578.742188 147.011719 C 579.066406 147.980469 579.863281 148.75 580.832031 149.023438 " fill-opacity="1" fill-rule="nonzero"/><path fill="#02468f" d="M 607.277344 176.289062 L 609.289062 177.234375 L 609.511719 174.996094 C 609.664062 173.53125 609.835938 172.039062 610.011719 170.523438 L 610.160156 169.429688 L 609.164062 168.929688 C 594.574219 161.402344 571.4375 157 554.289062 169.355469 L 553.765625 169.726562 L 552.523438 176.261719 L 558.585938 175.167969 C 575.6875 172.085938 591.84375 169.179688 607.277344 176.289062 " fill-opacity="1" fill-rule="nonzero"/><path fill="#02468f" d="M 645.328125 375.765625 L 643.464844 375.71875 C 632.429688 375.417969 621.167969 374.546875 610.257812 373.730469 C 603.050781 373.183594 595.917969 372.660156 588.910156 372.261719 L 580.980469 371.839844 C 555.15625 370.421875 528.464844 368.957031 502.117188 368.683594 L 500.304688 368.660156 L 500.503906 370.449219 C 500.601562 371.292969 500.753906 372.089844 500.902344 372.984375 L 500.851562 374.300781 L 502.195312 374.300781 C 502.691406 374.425781 503.136719 374.648438 503.785156 375.046875 C 503.984375 375.144531 504.230469 375.246094 504.679688 375.417969 C 515.390625 380.886719 519.167969 392.195312 514.125 403.503906 L 513.875 404.074219 L 514.074219 404.671875 C 517.503906 414.539062 515.265625 424.15625 508.382812 429.203125 L 507.8125 429.625 L 507.734375 430.320312 C 507.140625 436.808594 502.542969 442.175781 495.757812 444.339844 L 495.035156 444.710938 L 494.738281 445.308594 L 494.761719 445.332031 L 494.289062 445.804688 L 493.867188 446.972656 L 494.363281 447.644531 C 494.636719 448.066406 494.886719 448.515625 495.035156 448.886719 C 496.925781 453.957031 497.644531 459.175781 498.441406 464.695312 C 499.0625 469.34375 499.734375 474.164062 501.175781 478.835938 L 501.421875 479.632812 L 502.242188 479.878906 C 530.179688 488.03125 558.933594 488.976562 583.417969 488.777344 C 589.679688 488.753906 596.066406 489.027344 602.851562 489.324219 C 609.140625 489.621094 615.578125 489.921875 621.964844 489.921875 C 627.085938 489.921875 632.203125 489.722656 637.199219 489.199219 L 638.839844 489 L 638.617188 487.386719 C 633.375 450.03125 638.890625 410.910156 644.980469 377.582031 L 645.328125 375.765625 " fill-opacity="1" fill-rule="nonzero"/><path fill="#02468f" d="M 488.574219 366.84375 L 490.363281 367.242188 C 491.628906 367.292969 492.796875 367.789062 493.542969 368.660156 L 497.199219 372.757812 L 496.304688 367.339844 C 495.410156 361.847656 494.464844 356.355469 493.542969 350.863281 C 489.542969 327.226562 485.390625 302.796875 484.296875 278.386719 L 484.199219 276.351562 L 482.261719 276.945312 C 481.960938 277.046875 481.539062 277.070312 481.117188 277.097656 C 480.398438 277.144531 479.652344 277.21875 478.90625 277.296875 L 476.320312 277.519531 L 476.394531 279.035156 C 477.4375 309.40625 483.15625 339.332031 488.199219 365.726562 L 488.574219 366.84375 " fill-opacity="1" fill-rule="nonzero"/><path fill="#02468f" d="M 660.191406 432.535156 C 663.746094 414.242188 667.421875 395.328125 671.996094 376.910156 L 672.542969 374.746094 L 670.304688 374.945312 C 664.042969 375.492188 657.554688 375.765625 651.070312 375.765625 L 649.703125 375.765625 L 649.480469 377.109375 C 642.394531 423.808594 636.304688 480.5 647.539062 485.421875 L 649.949219 486.492188 L 649.753906 483.855469 C 649.726562 483.285156 649.753906 482.6875 649.902344 482.09375 C 653.804688 465.589844 657.058594 448.789062 660.191406 432.535156 " fill-opacity="1" fill-rule="nonzero"/><path fill="#02468f" d="M 624.054688 319.621094 C 624.277344 312.066406 625.792969 302 628.425781 291.089844 C 631.035156 280.253906 633.894531 270.632812 636.15625 263.75 C 638.367188 256.839844 640.109375 252.589844 641.226562 252.789062 C 642.222656 252.960938 642.371094 257.609375 641.523438 264.941406 C 640.628906 272.25 638.59375 282.140625 635.957031 292.929688 C 633.421875 303.566406 631.136719 313.183594 629.472656 320.167969 C 627.953125 327.277344 626.761719 331.773438 625.667969 331.652344 C 624.648438 331.550781 623.855469 327.027344 624.054688 319.621094 Z M 495.382812 262.730469 C 494.835938 267.378906 492.601562 270.882812 489.394531 273.640625 C 490.261719 303.9375 496.054688 333.515625 501 363.363281 C 533.3125 363.636719 565.546875 365.898438 597.855469 367.414062 C 613.214844 368.085938 629.046875 369.703125 644.757812 370.222656 C 646.867188 358.988281 649.128906 347.878906 651.242188 336.996094 C 656.039062 312.6875 655.667969 265.910156 680.84375 251.074219 C 665.707031 242.199219 648.757812 236.957031 632.328125 230.542969 C 627.582031 229.226562 621.964844 227.414062 616.074219 225.398438 C 608.171875 222.765625 600.988281 220.753906 595.867188 219.359375 C 590.523438 218.066406 586.996094 217.097656 587.070312 216.003906 C 587.167969 214.984375 590.625 213.96875 596.316406 213.890625 C 599.695312 213.890625 603.746094 214.390625 608.070312 215.257812 C 607.921875 214.761719 607.824219 214.242188 607.796875 213.644531 C 607.375 203.203125 606.929688 192.742188 607.375 182.304688 C 590.203125 173.15625 571.835938 178.203125 553.242188 181.484375 C 551.132812 192.714844 548.222656 204.222656 541.585938 213.296875 C 541.089844 213.917969 540.59375 214.488281 540.070312 215.085938 C 544.171875 213.519531 548 212.328125 551.304688 211.582031 C 557.519531 210.339844 561.496094 210.386719 561.742188 211.355469 C 562.117188 212.449219 558.539062 214.289062 552.871094 216.824219 C 547.476562 219.460938 539.921875 223.136719 531.546875 227.414062 C 524.734375 230.96875 518.300781 234.050781 512.90625 236.261719 C 512.78125 236.632812 512.730469 236.980469 512.507812 237.304688 C 507.488281 244.113281 502.367188 247.992188 494.910156 251 C 493.992188 254.578125 495.78125 259.078125 495.382812 262.730469 " fill-opacity="1" fill-rule="nonzero"/><path fill="#02468f" d="M 636.554688 519.796875 C 638.640625 519.175781 644.433594 532.59375 649.503906 549.746094 C 654.597656 566.917969 657.058594 581.335938 654.972656 581.929688 C 652.957031 582.527344 647.140625 569.132812 642.046875 551.957031 C 636.976562 534.78125 634.542969 520.390625 636.554688 519.796875 Z M 534.132812 619.859375 C 534.179688 618.8125 534.179688 617.746094 534.230469 616.726562 C 533.484375 612.675781 533.039062 608.871094 532.714844 605.542969 C 531.84375 593.761719 532.613281 586.679688 533.585938 586.527344 C 534.132812 586.527344 534.679688 588.195312 535.347656 591.003906 C 536.441406 592.246094 538.15625 596.792969 539.523438 603.800781 C 540.246094 607.703125 540.992188 612.5 541.265625 617.796875 C 541.488281 618.617188 541.738281 619.460938 542.007812 620.332031 C 585.554688 643.195312 635.089844 647.074219 679.503906 624.503906 C 679.277344 614.714844 678.359375 604.820312 676.195312 594.78125 C 671.746094 573.679688 667.871094 552.28125 661.78125 531.625 C 657.929688 518.402344 652.4375 505.777344 649.726562 492.40625 C 626.4375 498.199219 598.777344 494.320312 574.964844 494.097656 C 550.433594 493.871094 526.675781 492.15625 503.0625 485.621094 C 499.707031 499.292969 491.878906 510.898438 486.734375 523.921875 C 485.417969 527.25 482.484375 528.617188 479.625 528.542969 C 479.226562 553.347656 477.613281 578.152344 477.785156 602.933594 C 477.835938 608.351562 477.9375 613.84375 477.984375 619.261719 C 495.832031 624.332031 516.410156 625.476562 534.132812 619.859375 " fill-opacity="1" fill-rule="nonzero"/><path fill="#02468f" d="M 568.851562 728.296875 L 561.820312 726.953125 C 560.847656 726.753906 559.804688 727.054688 559.058594 727.722656 C 558.3125 728.394531 557.941406 729.390625 558.039062 730.382812 C 558.910156 739.007812 558.613281 747.90625 558.3125 756.53125 C 558.214844 759.066406 558.140625 761.574219 558.066406 764.109375 C 558.039062 765.578125 559.011719 766.871094 560.425781 767.242188 C 562.664062 767.863281 564.949219 768.261719 567.238281 768.460938 C 567.3125 768.460938 567.410156 768.460938 567.511719 768.460938 C 568.253906 768.460938 568.976562 768.210938 569.574219 767.714844 C 570.21875 767.167969 570.617188 766.371094 570.691406 765.527344 C 571.4375 755.910156 571.363281 746.167969 571.3125 736.722656 L 571.289062 732.746094 C 571.289062 732.421875 571.3125 732.246094 571.335938 732.097656 C 571.535156 731.277344 571.386719 730.382812 570.914062 729.664062 C 570.441406 728.941406 569.695312 728.445312 568.851562 728.296875 " fill-opacity="1" fill-rule="nonzero"/><path fill="#02468f" d="M 474.78125 521.113281 C 474.828125 496.65625 473.261719 476.722656 469.859375 458.355469 L 469.609375 456.988281 L 468.21875 457.0625 C 465.980469 457.1875 463.769531 457.289062 461.53125 457.289062 L 459.644531 457.289062 L 459.964844 459.152344 C 465.707031 491.761719 464.515625 525.3125 463.347656 557.773438 C 462.824219 572.585938 462.277344 587.894531 462.378906 602.933594 C 462.476562 612.648438 462.625 622.367188 462.75 632.085938 C 463.046875 651.769531 463.371094 672.152344 463.046875 692.160156 C 462.824219 705.378906 461.457031 718.703125 460.117188 731.601562 C 458.847656 743.929688 457.53125 756.679688 457.234375 769.304688 L 457.183594 771.070312 L 458.949219 770.921875 C 461.382812 770.746094 463.746094 770.347656 466.03125 770 L 467.324219 769.777344 L 467.375 768.460938 C 467.695312 756.503906 468.964844 744.425781 470.207031 732.746094 C 471.574219 719.523438 473.015625 705.851562 473.113281 692.207031 C 473.289062 672.796875 473.015625 653.089844 472.792969 634 L 472.640625 623.1875 L 472.394531 622.816406 C 471.945312 622.121094 471.921875 621.175781 472.367188 620.453125 L 472.617188 620.082031 L 472.617188 619.632812 C 472.617188 617.050781 472.566406 614.515625 472.519531 611.804688 C 472.417969 596.023438 473.039062 579.84375 473.660156 564.183594 C 474.160156 551.160156 474.679688 537.691406 474.78125 524.445312 L 474.703125 523.921875 C 474.480469 523.273438 474.480469 522.457031 474.730469 521.511719 L 474.78125 521.113281 " fill-opacity="1" fill-rule="nonzero"/><path fill="#02468f" d="M 545.191406 629.675781 C 547.253906 634.871094 549.839844 640.164062 553.292969 645.183594 C 557.890625 652.042969 563.929688 657.238281 570.046875 660.964844 C 572.953125 663.054688 576.257812 664.246094 579.117188 665.714844 C 582.148438 666.855469 585.007812 667.875 587.617188 668.796875 C 590.402344 669.542969 592.835938 670.1875 595 670.785156 C 597.160156 671.332031 599.097656 671.652344 600.664062 672.078125 C 603.746094 672.796875 605.488281 673.492188 605.488281 674.039062 C 605.488281 674.5625 603.699219 674.933594 600.367188 675.058594 C 598.726562 675.109375 596.6875 675.257812 594.351562 675.058594 C 591.992188 674.835938 589.332031 674.511719 586.375 674.140625 C 583.492188 673.542969 580.261719 672.746094 576.855469 671.753906 C 573.597656 670.410156 569.871094 669.316406 566.417969 667.15625 C 559.308594 663.328125 552.125 657.4375 546.882812 649.65625 C 544.046875 645.382812 541.785156 641.082031 539.972656 636.757812 C 539.921875 637.132812 539.898438 637.503906 539.796875 637.878906 C 538.230469 644.539062 535.421875 651.023438 530.875 655.597656 C 526.402344 660.269531 520.710938 662.53125 516.136719 663.128906 C 511.539062 663.824219 507.910156 663.179688 505.449219 662.632812 C 503.164062 661.9375 501.871094 661.339844 501.921875 660.792969 C 502.042969 659.550781 507.585938 659.996094 514.945312 657.808594 C 518.574219 656.59375 522.472656 654.480469 525.582031 650.800781 C 528.710938 647.171875 530.875 641.953125 532.21875 636.113281 C 532.886719 633.128906 533.3125 630.121094 533.632812 627.191406 C 515.9375 632.210938 495.832031 631.242188 478.058594 626.445312 C 478.382812 648.367188 478.804688 670.3125 478.433594 692.183594 C 478.382812 695.363281 478.285156 698.546875 478.109375 701.703125 C 478.707031 701.628906 479.351562 701.578125 480.097656 701.628906 C 543.425781 709.234375 607.003906 734.632812 670.804688 718.976562 C 672.992188 689.472656 679.15625 661.117188 679.550781 632.160156 C 636.105469 652.914062 588.1875 650.203125 545.191406 629.675781 " fill-opacity="1" fill-rule="nonzero"/><path fill="#02468f" d="M 216.546875 178.796875 C 228.277344 180.785156 237.300781 182.625 247.066406 189.660156 C 260.738281 199.601562 270.828125 214.710938 282.929688 226.816406 C 282.832031 225.300781 282.78125 223.785156 282.957031 222.269531 C 283.875 214.289062 286.609375 206.785156 288.773438 199.105469 C 286.832031 186.453125 290.1875 167.863281 301.894531 160.855469 C 290.835938 159.460938 276.617188 168.582031 267.371094 157.25 C 260.613281 148.925781 258.203125 138.261719 257.183594 127.476562 C 248.433594 134.929688 238.964844 141.34375 227.78125 144.550781 C 226.5625 144.921875 225.519531 144.921875 224.597656 144.722656 C 224.277344 144.796875 223.953125 144.824219 223.628906 144.824219 C 221.941406 144.722656 220.125 144.796875 218.285156 144.824219 C 213.8125 155.933594 194.078125 175.070312 216.546875 178.796875 " fill-opacity="1" fill-rule="nonzero"/><path fill="#02468f" d="M 671.523438 325.960938 C 663.917969 317.484375 670.207031 297.847656 673.613281 287.3125 L 674.929688 283.160156 C 676.867188 276.945312 678.882812 270.511719 684.398438 267.179688 C 686.535156 265.863281 689.492188 265.960938 691.679688 267.378906 L 695.804688 270.0625 L 694.015625 265.464844 C 692.5 261.511719 690.488281 258.183594 687.929688 255.300781 L 687.929688 253.433594 L 685.691406 254.40625 C 669.5625 261.464844 666.128906 283.535156 663.84375 298.148438 L 663.71875 298.941406 C 661.730469 311.59375 659.195312 324.417969 656.710938 336.796875 C 655.417969 343.28125 654.125 349.769531 652.910156 356.230469 C 652.585938 357.898438 651.714844 362.992188 650.546875 370.050781 L 650.25 371.890625 L 652.113281 371.914062 C 652.585938 371.914062 653.03125 371.914062 653.480469 371.914062 C 659.992188 371.914062 666.355469 371.617188 672.394531 371.019531 L 673.511719 370.921875 L 673.785156 369.851562 C 675.527344 363.265625 677.164062 357.523438 678.832031 352.28125 C 680.023438 348.378906 681.613281 343.855469 683.328125 339.082031 C 684.398438 336.050781 685.515625 332.867188 686.636719 329.5625 L 688.175781 325.089844 L 684.25 327.75 C 679.675781 330.832031 675.402344 330.234375 671.523438 325.960938 " fill-opacity="1" fill-rule="nonzero"/><path fill="#02468f" d="M 687.679688 269.738281 C 685.167969 269.21875 683.527344 272.199219 682.980469 273.195312 C 680.597656 277.566406 679.105469 282.140625 677.9375 286.019531 C 676.148438 291.910156 674.132812 298.792969 673.015625 305.976562 C 672.292969 310.5 671.398438 316.117188 673.015625 320.691406 C 674.109375 323.671875 675.722656 325.386719 677.789062 325.785156 C 678.085938 325.835938 678.382812 325.859375 678.683594 325.859375 C 680.820312 325.859375 683.132812 324.46875 685.566406 321.734375 L 685.839844 321.335938 C 691.160156 309.28125 693.542969 295.960938 692.75 282.8125 C 692.453125 279.132812 691.382812 270.535156 687.679688 269.738281 " fill-opacity="1" fill-rule="nonzero"/><path fill="#02468f" d="M 209.113281 696.605469 C 188.609375 697.851562 166.8125 698.074219 146.65625 693.152344 C 150.335938 696.558594 154.363281 700.113281 159.058594 702.996094 C 160.003906 703.566406 161.023438 704.164062 162.042969 704.757812 C 162.488281 704.984375 163.136719 705.429688 163.433594 705.480469 L 164.925781 706.125 C 167.011719 706.871094 168.800781 708.015625 171.238281 708.5625 C 173.597656 709.257812 176.035156 709.953125 178.519531 710.699219 C 179.863281 711.074219 181.179688 711.46875 182.519531 711.890625 C 183.863281 712.316406 184.957031 712.886719 186.175781 713.410156 C 191.691406 715.570312 195.792969 718.925781 199.871094 722.007812 C 203.871094 725.140625 207.523438 728.371094 210.878906 731.351562 C 217.640625 737.441406 223.730469 742.636719 229.246094 746.316406 C 234.738281 749.96875 239.660156 752.207031 243.113281 753.324219 C 246.644531 754.566406 248.855469 755.164062 248.707031 755.710938 C 248.683594 756.183594 246.570312 756.679688 242.542969 756.308594 C 238.441406 756.035156 232.800781 754.367188 226.386719 751.0625 C 220.074219 747.707031 213.316406 742.585938 206.28125 736.847656 C 202.726562 733.9375 199.097656 730.957031 195.222656 728.046875 C 191.417969 725.238281 187.316406 722.058594 182.992188 720.492188 C 181.800781 719.996094 180.582031 719.347656 179.4375 718.976562 C 178.296875 718.652344 177.175781 718.328125 176.035156 718.007812 C 173.597656 717.285156 171.1875 716.539062 168.851562 715.792969 C 164.054688 714.152344 158.859375 711.570312 155.304688 709.132812 C 147.179688 703.515625 141.835938 696.980469 137.238281 691.960938 C 136.542969 691.113281 135.894531 690.445312 135.199219 689.699219 C 130.675781 688.058594 126.300781 686.070312 122.027344 683.707031 C 120.984375 699.09375 122.621094 714.601562 127.246094 729.339844 C 130.550781 739.929688 133.734375 750.242188 134.925781 761.152344 C 198.253906 764.65625 262.128906 782.976562 325.058594 767.691406 C 326.796875 734.585938 326.847656 701.480469 325.382812 668.375 C 288.074219 683.535156 249.503906 694.171875 209.113281 696.605469 " fill-opacity="1" fill-rule="nonzero"/><path fill="#02468f" d="M 485.988281 436.785156 C 486.808594 435.042969 488.324219 433.550781 490.3125 433.15625 C 491.132812 433.003906 491.980469 432.832031 492.75 432.558594 C 492.921875 432.507812 493.023438 432.457031 493.121094 432.410156 C 493.171875 432.410156 493.222656 432.359375 493.296875 432.308594 C 493.667969 432.136719 493.992188 431.910156 494.363281 431.664062 C 494.539062 431.488281 494.960938 431.167969 495.058594 431.066406 C 495.109375 431.015625 495.109375 430.992188 495.160156 430.941406 C 495.160156 430.894531 495.183594 430.792969 495.285156 430.71875 C 495.332031 430.570312 495.382812 430.46875 495.410156 430.445312 C 495.410156 430.394531 495.410156 430.347656 495.484375 430.246094 C 495.507812 430.074219 495.605469 429.328125 495.605469 429.152344 C 495.605469 428.679688 495.65625 428.207031 495.605469 427.710938 C 495.605469 427.539062 495.65625 427.339844 495.65625 427.164062 C 495.332031 423.859375 497.546875 421.125 500.675781 419.933594 C 504.628906 418.417969 504.207031 411.929688 502.863281 408.796875 C 502.589844 408.152344 502.417969 407.457031 502.292969 406.808594 C 501.125 404.96875 500.851562 402.585938 502.292969 400.097656 C 505.824219 394.109375 504.730469 389.136719 498.464844 385.957031 C 498.367188 385.90625 498.316406 385.832031 498.21875 385.78125 C 494.042969 384.441406 490.164062 382.277344 486.957031 379.320312 C 451.964844 388.617188 391.144531 462.804688 350.757812 452.390625 C 347.527344 446.027344 346.484375 438.273438 345.515625 430.667969 C 343.402344 414.015625 345.289062 401.167969 345.488281 399.777344 C 348.296875 382.75 340.144531 326.679688 315.761719 281.320312 C 312.65625 274.1875 309.328125 267.179688 305.523438 260.519531 C 302.640625 259.226562 299.261719 257.5625 295.359375 255.546875 C 289.640625 252.515625 282.929688 248.960938 275.425781 244.960938 C 271.648438 242.921875 267.746094 240.808594 263.695312 238.597656 C 261.65625 237.503906 259.59375 236.359375 257.503906 235.140625 C 255.714844 234.050781 253.503906 233.402344 251.515625 232.433594 C 249.503906 231.414062 247.289062 231.066406 245.226562 230.421875 C 243.140625 229.675781 241.078125 229.449219 239.113281 229.175781 C 238.09375 229.027344 237.125 228.855469 236.105469 228.707031 C 235.0625 228.605469 233.894531 228.65625 232.800781 228.605469 C 231.683594 228.605469 230.589844 228.554688 229.46875 228.554688 L 227.953125 228.53125 L 226.339844 228.53125 C 217.863281 228.53125 210.457031 228.65625 204.292969 229.253906 C 198.128906 229.800781 193.382812 230.96875 190.25 232.0625 C 187.269531 233.03125 185.328125 234.421875 184.855469 233.824219 C 184.507812 233.351562 184.957031 231.339844 188.261719 228.65625 C 191.367188 226.171875 196.5625 223.785156 203.101562 222.269531 C 209.636719 220.601562 217.515625 219.734375 226.066406 219.234375 L 227.679688 219.136719 L 229.445312 219.085938 C 230.488281 219.035156 231.609375 218.988281 232.703125 218.988281 C 233.84375 218.9375 234.914062 218.863281 236.105469 218.9375 C 237.398438 219.035156 238.691406 219.1875 239.957031 219.308594 C 242.59375 219.558594 245.226562 219.855469 247.714844 220.652344 C 250.199219 221.375 252.808594 221.84375 255.242188 223.039062 C 257.703125 224.183594 260.191406 225.027344 262.453125 226.445312 C 263.695312 227.140625 264.835938 227.835938 266.03125 228.53125 C 258.027344 219.136719 249.230469 207.578125 238.765625 200.398438 C 237.945312 200.074219 237.074219 199.75 236.105469 199.425781 C 234.167969 198.730469 232.003906 198.058594 229.667969 197.488281 C 227.359375 196.769531 224.796875 196.34375 222.164062 195.796875 C 220.871094 195.476562 219.503906 195.476562 218.113281 195.277344 C 216.71875 195.101562 215.351562 194.929688 214.0625 194.953125 C 212.71875 195.003906 211.527344 194.828125 209.960938 194.953125 C 208.34375 195.101562 206.730469 195.277344 205.0625 195.476562 C 202.628906 195.875 199.246094 196.71875 196.289062 197.414062 C 193.207031 198.136719 190.078125 198.78125 186.996094 199.203125 C 183.863281 199.578125 180.632812 199.652344 177.425781 199.054688 C 174.144531 198.332031 171.011719 196.445312 169.175781 193.984375 C 165.769531 188.9375 166.539062 184.515625 166.8125 182.03125 C 167.433594 179.542969 168.054688 178.203125 168.75 178.203125 C 169.449219 178.152344 170.144531 179.542969 170.789062 181.929688 C 171.0625 183.222656 171.710938 184.316406 172.105469 185.757812 C 172.480469 186.355469 172.851562 187 173.175781 187.695312 C 173.597656 188.34375 174.144531 188.789062 174.617188 189.335938 C 175.710938 190.132812 176.902344 190.628906 178.695312 190.777344 C 180.632812 190.828125 182.894531 190.578125 185.480469 190.03125 C 188.039062 189.4375 190.796875 188.664062 193.855469 187.820312 C 195.222656 187.421875 196.613281 187.050781 198.03125 186.675781 C 195.097656 184.613281 192.734375 181.855469 191.640625 178.101562 C 187.417969 163.5625 196.464844 157.300781 202.355469 146.859375 C 184.734375 150.714844 166.789062 160.109375 162.785156 176.585938 C 162.4375 177.878906 161.867188 178.847656 161.121094 179.644531 C 143.675781 238.746094 142.804688 300.382812 137.785156 361.375 C 138.828125 362.816406 139.375 364.707031 138.976562 366.84375 C 134.601562 390.976562 131.097656 415.136719 128.5625 439.417969 C 130.054688 450.03125 132.191406 462.480469 135.84375 475.554688 C 141.289062 494.195312 148.59375 510.203125 154.0625 521.808594 C 159.878906 533.21875 163.359375 540.5 162.414062 541.09375 C 161.570312 541.640625 156.425781 535.429688 149.242188 524.46875 C 142.429688 513.332031 134.054688 497.054688 128.390625 477.71875 C 127.46875 474.4375 126.722656 471.253906 126.050781 468.097656 C 124.734375 486.367188 123.964844 504.632812 123.867188 523.050781 C 123.867188 523.546875 123.839844 523.972656 123.742188 524.445312 C 124.710938 531.253906 125.207031 538.0625 125.40625 544.921875 C 125.753906 545.742188 126.128906 546.390625 126.449219 546.664062 C 126.550781 546.613281 126.675781 546.539062 126.773438 546.539062 L 127.644531 545.792969 L 131.792969 542.386719 L 133.78125 547.359375 C 136.21875 553.523438 138.554688 560.058594 141.734375 566.519531 C 151.578125 588.019531 163.980469 605.691406 173.722656 617.695312 C 176.207031 620.652344 178.519531 623.3125 180.484375 625.625 C 182.421875 628.058594 184.507812 629.847656 185.925781 631.515625 C 188.933594 634.769531 190.398438 636.808594 190.078125 637.179688 C 189.703125 637.578125 187.542969 636.386719 183.886719 633.800781 C 182.148438 632.433594 179.910156 631.042969 177.550781 628.855469 C 175.238281 626.644531 172.578125 624.132812 169.621094 621.375 C 158.488281 609.917969 144.917969 592.097656 134.675781 569.828125 C 132.117188 564.53125 130.105469 559.1875 128.164062 553.996094 C 127.320312 554.21875 126.402344 554.21875 125.480469 554.09375 C 125.109375 592.097656 116.683594 630.097656 122.773438 668.023438 C 149.664062 685.648438 184.460938 685.199219 215.429688 682.339844 C 253.652344 678.738281 289.59375 668.375 324.859375 653.785156 C 324.859375 649.109375 324.761719 644.363281 324.140625 639.714844 C 324.039062 639.167969 324.089844 638.648438 324.164062 638.125 C 324.164062 637.902344 324.140625 637.679688 324.140625 637.40625 C 324.710938 607.382812 331.347656 578.027344 332.960938 548.152344 C 328.464844 556.007812 323.445312 562.96875 318.421875 569.03125 C 314.917969 573.007812 311.636719 576.734375 308.207031 579.917969 C 304.976562 583.222656 301.621094 585.933594 298.613281 588.417969 C 286.460938 598.183594 277.910156 602.1875 277.539062 601.492188 C 276.890625 600.570312 284.398438 595.152344 295.308594 584.640625 C 298.019531 582.03125 301.023438 579.171875 303.957031 575.765625 C 307.039062 572.535156 310.046875 568.757812 313.203125 564.804688 C 317.949219 558.542969 322.746094 551.359375 326.972656 543.457031 C 325.929688 543.480469 324.859375 543.582031 323.765625 543.582031 C 320.957031 544.003906 318.101562 544.449219 315.242188 544.972656 C 308.058594 546.066406 301.371094 547.53125 294.8125 548.925781 C 291.480469 549.792969 288.226562 550.640625 285.042969 551.460938 L 282.632812 552.105469 L 280.570312 552.800781 C 279.054688 553.300781 277.585938 553.847656 276.121094 554.367188 C 264.316406 558.492188 253.332031 562.421875 243.511719 563.835938 C 242.320312 564.035156 241.125 564.257812 239.957031 564.433594 C 238.816406 564.484375 237.671875 564.53125 236.554688 564.582031 C 234.316406 564.632812 232.253906 564.855469 230.265625 564.707031 C 226.3125 564.210938 222.859375 564.0625 220.273438 563.289062 C 215.15625 561.722656 212.394531 560.605469 212.496094 560.109375 C 212.570312 559.5625 215.578125 559.660156 220.921875 560.28125 C 223.578125 560.65625 226.660156 560.257812 230.265625 560.382812 C 232.054688 560.28125 234.042969 559.886719 236.054688 559.660156 C 237.074219 559.511719 238.121094 559.363281 239.238281 559.238281 C 240.308594 559.015625 241.398438 558.742188 242.492188 558.46875 C 251.515625 556.480469 261.804688 552.179688 273.6875 547.582031 C 275.152344 547.035156 276.667969 546.488281 278.183594 545.941406 C 279.054688 545.617188 279.476562 545.371094 280.71875 545.023438 L 283.054688 544.328125 C 286.238281 543.457031 289.46875 542.539062 292.773438 541.566406 C 295.308594 541.019531 297.941406 540.449219 300.503906 539.851562 C 297.246094 538.609375 294.289062 536.027344 291.207031 534.882812 C 288.398438 533.789062 285.21875 534.113281 282.382812 532.945312 C 280.71875 532.222656 278.953125 531.476562 277.265625 530.78125 C 269.4375 529.464844 261.058594 528.394531 252.210938 528.769531 C 249.601562 528.769531 246.96875 528.769531 244.332031 528.769531 C 241.671875 528.816406 239.386719 528.445312 236.875 528.296875 C 231.882812 527.699219 226.933594 526.878906 222.484375 525.4375 C 213.5625 522.652344 206.332031 518.554688 200.515625 515 C 189.058594 507.542969 182.671875 502.296875 183.167969 501.402344 C 183.714844 500.410156 191.320312 504.136719 203.199219 510.203125 C 209.1875 513.058594 216.273438 516.367188 224.449219 518.554688 C 228.550781 519.695312 232.875 520.242188 237.5 520.714844 C 239.882812 520.789062 242.445312 521.113281 244.753906 521.039062 C 247.191406 521.039062 249.625 521.039062 252.136719 520.988281 C 253.082031 520.988281 254.050781 521.039062 255.019531 521.039062 C 252.210938 519.695312 249.402344 518.402344 246.59375 516.988281 C 232.601562 510.078125 219.628906 502.421875 208.765625 494.046875 C 197.90625 485.722656 189.28125 476.648438 183.265625 468.222656 C 180.035156 464.121094 177.921875 459.898438 175.761719 456.394531 C 173.996094 452.664062 172.378906 449.433594 171.4375 446.773438 C 169.621094 441.382812 168.851562 438.300781 169.296875 438.125 C 169.820312 437.902344 171.511719 440.5625 174.195312 445.582031 C 175.5625 448.066406 177.5 450.824219 179.539062 454.179688 C 181.925781 457.3125 184.234375 461.191406 187.589844 464.867188 C 193.878906 472.472656 202.402344 480.652344 213.089844 488.355469 C 223.679688 496.035156 236.304688 503.269531 250 510.027344 C 259.320312 514.625 268.515625 518.726562 277.265625 522.652344 C 264.09375 507.121094 255.492188 485.84375 244.207031 469.617188 C 243.4375 469.664062 242.644531 469.691406 241.824219 469.738281 C 238.691406 469.839844 236.703125 468.175781 235.785156 465.960938 C 231.234375 461.6875 227.035156 457.140625 223.132812 452.390625 C 221.195312 451.199219 219.179688 450.003906 217.042969 448.714844 C 213.6875 446.648438 210.132812 444.464844 206.457031 442.226562 C 205.535156 441.605469 204.617188 441.058594 203.695312 440.460938 L 202.304688 439.589844 L 200.8125 438.347656 C 199 436.882812 197.210938 435.367188 195.371094 433.824219 C 181.425781 420.851562 173.375 405.714844 168.253906 394.929688 C 163.234375 384.019531 160.921875 376.984375 161.867188 376.511719 C 162.8125 376.015625 166.914062 382.277344 173.078125 392.367188 C 179.289062 402.3125 187.816406 416.253906 200.566406 428.085938 C 202.28125 429.5 203.871094 430.894531 205.535156 432.285156 C 205.859375 432.558594 206.503906 433.054688 206.554688 433.15625 L 207.921875 434.074219 C 208.867188 434.671875 209.761719 435.265625 210.65625 435.863281 C 210.878906 436.011719 211.054688 436.136719 211.300781 436.285156 C 204.9375 426.691406 199.171875 416.703125 193.433594 406.683594 C 193.058594 406.136719 192.636719 405.566406 192.1875 404.847656 C 190.796875 402.484375 188.785156 399.402344 186.945312 395.449219 C 182.746094 390.105469 178.097656 384.019531 173.273438 377.257812 C 165.59375 366.296875 159.457031 355.683594 156 347.332031 C 152.746094 339.132812 151.777344 333.8125 152.644531 333.339844 C 153.691406 332.894531 156.5 337.617188 160.972656 344.996094 C 163.058594 348.304688 165.59375 352.203125 168.429688 356.503906 L 168.304688 355.585938 C 168.007812 353.917969 167.683594 352.179688 167.433594 350.464844 C 166.863281 346.9375 166.640625 342.910156 166.316406 339.058594 C 165.671875 323.5 167.832031 309.582031 170.417969 299.835938 C 173 290.121094 175.984375 284.503906 177.175781 284.824219 C 180.136719 285.570312 175.1875 309.40625 176.40625 338.585938 C 176.730469 342.1875 176.804688 345.496094 177.226562 349.046875 C 177.402344 350.664062 177.601562 352.253906 177.796875 353.820312 L 176.828125 355.609375 L 176.707031 356.628906 L 178.742188 356.628906 L 179.636719 357.101562 L 179.6875 357.027344 L 178.992188 356.628906 L 179.886719 356.628906 L 179.835938 349.992188 L 178.121094 353.199219 C 178.070312 352.527344 178.046875 351.882812 177.996094 351.210938 L 177.996094 350.414062 L 178.046875 349.917969 L 178.148438 348.949219 L 178.320312 346.960938 C 178.421875 345.644531 178.570312 344.300781 178.667969 342.910156 C 178.792969 341.59375 178.941406 340.199219 179.066406 338.859375 C 179.390625 337.542969 179.664062 336.148438 179.984375 334.808594 C 180.683594 332.148438 181.230469 329.4375 181.972656 326.855469 C 182.945312 324.320312 183.886719 321.882812 184.832031 319.449219 C 185.328125 318.253906 185.753906 317.011719 186.25 315.84375 C 186.84375 314.75 187.441406 313.632812 188.039062 312.539062 C 189.230469 310.324219 190.398438 308.214844 191.542969 306.101562 C 194.128906 302.125 196.738281 298.445312 199.273438 295.140625 C 202.082031 292.007812 204.664062 289.101562 207.152344 286.566406 C 209.859375 284.179688 212.347656 282.066406 214.507812 280.253906 C 216.671875 278.4375 218.808594 277.417969 220.421875 276.351562 C 223.804688 274.363281 225.839844 273.542969 226.3125 274.089844 C 226.761719 274.636719 225.519531 276.5 222.882812 279.382812 C 221.691406 280.875 219.800781 282.488281 218.1875 284.550781 C 216.496094 286.613281 214.558594 288.925781 212.445312 291.363281 C 210.457031 294.070312 208.292969 296.980469 206.007812 300.160156 C 203.921875 303.417969 201.808594 307.019531 199.597656 310.75 C 198.625 312.6875 197.707031 314.699219 196.6875 316.761719 C 196.191406 317.78125 195.742188 318.800781 195.222656 319.871094 C 194.773438 320.914062 194.449219 322.007812 194.027344 323.125 C 193.207031 325.335938 192.414062 327.550781 191.59375 329.835938 C 190.945312 332.148438 190.5 334.535156 189.878906 336.945312 C 187.367188 349.769531 187.441406 361.648438 188.660156 371.914062 C 188.832031 372.113281 188.957031 372.238281 189.105469 372.460938 C 207.199219 400.546875 220.546875 432.410156 245.078125 455.746094 C 261.183594 454.925781 277.6875 451.273438 292.625 445.433594 C 305.996094 440.289062 315.839844 430.84375 327.195312 422.890625 C 327.070312 420.902344 327.023438 419.160156 327.070312 417.769531 C 325.730469 415.0625 325.183594 412.527344 324.585938 410.089844 C 324.214844 408.523438 323.988281 407.03125 323.714844 405.566406 L 323.070312 401.789062 C 322.425781 399.351562 321.230469 396.742188 320.386719 394.207031 C 319.390625 391.671875 318.648438 389.136719 317.503906 386.703125 C 316.335938 384.21875 315.191406 381.78125 314.046875 379.371094 C 311.886719 374.546875 309.300781 369.703125 306.914062 365.003906 C 304.453125 360.332031 302.34375 355.710938 300.082031 351.210938 C 291.679688 332.644531 284.820312 316.367188 277.164062 303.515625 C 269.707031 290.617188 261.878906 281.496094 255.867188 275.804688 C 249.875 270.238281 245.773438 267.476562 246.246094 266.832031 C 246.59375 266.359375 251.019531 267.703125 258.351562 272.773438 C 265.433594 277.765625 274.679688 286.765625 283.253906 299.6875 C 291.953125 312.539062 299.832031 329.289062 308.480469 347.058594 C 310.769531 351.484375 313.078125 356.132812 315.566406 360.730469 C 318 365.378906 320.585938 369.949219 322.972656 375.046875 C 323.566406 376.339844 324.214844 377.628906 324.859375 378.921875 L 324.636719 377.902344 L 323.890625 374.175781 C 322 364.382812 320.210938 355.011719 318.546875 346.316406 C 318.148438 344.128906 317.777344 341.988281 317.355469 339.878906 C 317.082031 338.136719 316.261719 335.875 315.738281 333.9375 C 314.546875 329.984375 313.5 326.109375 312.332031 322.578125 C 307.414062 308.660156 302.566406 297.351562 299.460938 289.472656 C 296.226562 281.59375 294.710938 277.097656 295.359375 276.773438 C 296.003906 276.5 298.664062 280.351562 302.9375 287.734375 C 307.238281 295.140625 313.03125 305.953125 319.09375 320.367188 C 320.535156 323.894531 321.777344 327.675781 323.144531 331.601562 C 323.816406 333.613281 324.585938 335.328125 325.183594 337.765625 C 325.707031 339.878906 326.152344 342.039062 326.648438 344.25 C 328.636719 352.949219 330.75 362.296875 332.960938 372.136719 L 333.808594 375.839844 L 334.207031 377.679688 L 334.429688 378.648438 L 334.480469 378.773438 C 334.480469 378.824219 334.578125 379.097656 334.578125 379.097656 C 335.273438 381.035156 336.417969 383.519531 337.460938 385.882812 C 338.207031 387.546875 338.953125 389.289062 339.671875 391.050781 C 339.699219 394.109375 339.546875 396.742188 339.226562 398.78125 C 338.976562 400.273438 336.964844 413.941406 339.199219 431.464844 C 339.921875 437.15625 340.71875 443.171875 342.480469 448.863281 C 342.132812 448.636719 341.761719 448.488281 341.4375 448.242188 C 346.78125 462.558594 350.136719 474.164062 348.296875 474.960938 C 346.359375 475.679688 338.953125 463.300781 332.414062 446.453125 C 331.496094 443.417969 330.625 440.5625 329.832031 437.753906 C 317.578125 446.453125 306.714844 455.695312 291.355469 460.542969 C 280.894531 463.800781 270.355469 466.484375 259.59375 468.097656 C 272.941406 490.519531 284.671875 525.808594 312.632812 528.992188 C 312.980469 529.042969 313.304688 529.140625 313.625 529.214844 C 314.398438 529.140625 315.292969 529.089844 316.160156 529.265625 C 343.226562 534.433594 361.421875 507.492188 381.351562 493.648438 C 403.125 478.488281 426.140625 465.339844 446.394531 448.140625 C 446.570312 448.015625 446.769531 447.917969 446.941406 447.792969 C 448.035156 446.128906 449.851562 444.984375 452.460938 445.035156 C 464.390625 445.085938 477.613281 447.097656 485.988281 436.785156 " fill-opacity="1" fill-rule="nonzero"/></svg>